<?xml version="1.0" encoding="UTF-8"?>
<svg id="Layer_2" data-name="Layer 2" xmlns="http://www.w3.org/2000/svg" viewBox="0 0 577.08 302.88">
  <defs>
    <style>
      .cls-1 {
        font-family: ArialMT, Arial;
        font-size: 24px;
      }

      .cls-1, .cls-2 {
        fill: #353435;
      }

      .cls-3, .cls-4, .cls-5 {
        stroke: #231f20;
      }

      .cls-3, .cls-4, .cls-5, .cls-6 {
        fill: none;
        stroke-miterlimit: 10;
      }

      .cls-3, .cls-6 {
        stroke-width: 3.44px;
      }

      .cls-7 {
        letter-spacing: -.11em;
      }

      .cls-8 {
        letter-spacing: .03em;
      }

      .cls-9 {
        font-family: ArialUnicodeMS, 'Arial Unicode MS';
        font-size: 26.49px;
      }

      .cls-9, .cls-10, .cls-11 {
        fill: #231f20;
      }

      .cls-4 {
        stroke-width: 1.72px;
      }

      .cls-5 {
        stroke-width: 2.58px;
      }

      .cls-10 {
        fill-rule: evenodd;
      }

      .cls-10, .cls-11, .cls-12, .cls-2 {
        stroke-width: 0px;
      }

      .cls-6 {
        stroke: #353435;
      }

      .cls-12 {
        fill: #fff;
      }
    </style>
  </defs>
  <g id="Assets">
    <g id="Climate_control">
      <polyline class="cls-12" points="3.56 252.49 1.78 250.83 1.78 3.32 3.56 1.66 573.51 1.66 575.3 3.32 575.3 250.83 573.51 252.49 3.56 252.49"/>
      <path class="cls-11" d="M573.51,0H3.56L0,3.32v247.5l3.56,3.32h569.95l3.56-3.32V3.32l-3.56-3.32M573.51,3.32v247.5H3.56V3.32h569.95"/>
      <path class="cls-11" d="M563.72,5.81H10.69l-1.78,1.66v238.37l1.78,1.66h553.03l1.78-1.66V7.47l-1.78-1.66M563.72,7.47v238.37H10.69V7.47h553.03"/>
      <rect class="cls-4" x="156.74" y="7.57" width="264.49" height="238.36"/>
      <rect class="cls-4" x="10.69" y="144.61" width="146.05" height="101.32"/>
      <rect class="cls-4" x="421.23" y="144.61" width="142.48" height="101.32"/>
      <rect class="cls-3" x="471.99" y="181.15" width="44.52" height="31.56"/>
      <rect class="cls-3" x="57.88" y="181.15" width="44.53" height="31.56"/>
      <rect class="cls-11" x="481.79" y="188.54" width="25.82" height="15.78"/>
      <rect class="cls-3" x="481.78" y="188.62" width="25.82" height="15.78"/>
      <line class="cls-6" x1="90.83" y1="74.01" x2="93.5" y2="74.01"/>
      <polyline class="cls-2" points="97.96 63.95 59.67 73.09 97.96 83.88 97.96 63.95"/>
      <line class="cls-6" x1="488.02" y1="74.01" x2="485.34" y2="74.01"/>
      <polyline class="cls-2" points="480.9 83.05 519.19 73.09 480.9 63.95 480.9 83.05"/>
      <rect class="cls-12" x="187.02" y="31.56" width="204.83" height="101.33"/>
      <rect class="cls-5" x="187.01" y="31.66" width="204.82" height="101.32"/>
      <text class="cls-1" transform="translate(461.23 295.06) scale(1.08 1)"><tspan class="cls-8" x="0" y="0">V</tspan><tspan class="cls-7" x="16.8" y="0">1</tspan><tspan x="27.6" y="0">154253</tspan></text>
      <text class="cls-9" transform="translate(216.39 67.27) scale(1.08 1)"><tspan x="0" y="0">P</tspan></text>
      <text class="cls-9" transform="translate(202.17 117.94) scale(1.08 1)"><tspan x="0" y="0">13:35</tspan></text>
      <line class="cls-3" x1="262.71" y1="77.34" x2="312.58" y2="77.34"/>
      <path class="cls-10" d="M272.51,51.5h-1.78l2.67-3.33.89-4.15,1.78,4.15,1.78,3.33h-.89l-.89,1.66-.89,2.49v2.49l.89,1.66,1.78,2.49,2.67,2.49.89,4.15-.89,3.32-2.67,3.32h-6.23l3.56-3.32.89-3.32v-4.15l-4.45-4.15v-2.49l-.89-2.49.89-2.49.89-1.66M292.1,51.5h-.89l-.89,1.66-.89,2.49.89,2.49v2.49l.89.83,2.67,3.32.89,4.15v3.32l-2.67,3.32h-6.23l3.56-3.32.89-1.66v-3.32l-.89-2.49-3.56-4.99-.89-1.66v-2.49l.89-2.49.89-1.66h-1.78l2.67-3.33.89-4.15,1.78,4.15,1.78,3.33M303.68,51.5l-.89,4.15v1.66l.89,1.66v1.66l1.78,1.66,1.78,3.33.89,3.32-.89,3.32-2.67,3.32h-5.34l2.67-3.32,1.78-3.32-.89-3.32-2.67-3.33-.89-2.49-.89-4.15.89-2.49.89-1.66h-1.78l2.67-3.33.89-4.15.89,4.15,2.67,3.33h-1.78M358.89,60.63v-1.66l-.89-.83h-1.78l-.89.83v1.66l.89.83h1.78l.89-.83M354.44,49.83l.89,2.49v4.15h.89v-3.32c2.52-5.94,5.86-7.73,11.57-3.32l1.78,1.66v3.32c-1.71,2.25-4.34,2.74-7.13,2.49l-1.78,1.66h.89c6.19-.73,10.99,2.68,8.02,8.31l-.89,2.49-5.35,1.66-2.67-1.66-.89-.83v-4.15l-.89-1.66-.89-.83v4.15l-.89,3.32-2.67,1.66-2.67.83-2.67-.83-2.67-1.66-1.78-2.49v-2.49l.89-1.66.89-.83,1.78-.83h2.67v.83l.89-.83,2.67-.83h-4.45l-1.78-.83-1.78-.83-1.78-1.66v-4.99l1.78-2.49,2.67-1.66h2.67l2.67,1.66"/>
      <text class="cls-9" transform="translate(321.48 117.94) scale(1.08 1)"><tspan x="0" y="0">23°C</tspan></text>
    </g>
  </g>
</svg>