<?xml version="1.0" encoding="UTF-8"?>
<svg id="uuid-174612f6-1bd1-4747-afee-e241377fbd5b" data-name="Layer 2" xmlns="http://www.w3.org/2000/svg" width="131" height="40" viewBox="0 0 131 40">
  <defs>
    <style>
      .uuid-1c238e86-00e4-4e9b-8b65-bbe609e7d0c4 {
        fill: #2d2b2c;
      }

      .uuid-1c238e86-00e4-4e9b-8b65-bbe609e7d0c4, .uuid-460a0ebb-587e-4ee8-87b2-622277dc80d7 {
        stroke-width: 0px;
      }

      .uuid-460a0ebb-587e-4ee8-87b2-622277dc80d7 {
        fill: #dac89e;
      }
    </style>
  </defs>
  <g id="uuid-5dc9447b-2eb3-499c-ad14-a52412403c66" data-name="Assets">
    <g id="uuid-9ac84fff-7e03-4098-923b-e23404959999" data-name="Note">
      <rect class="uuid-460a0ebb-587e-4ee8-87b2-622277dc80d7" width="131" height="40" rx="6" ry="6"/>
      <g>
        <g>
          <path class="uuid-1c238e86-00e4-4e9b-8b65-bbe609e7d0c4" d="M39.46,7.93l-.9-.9-1.27-1.27c-.43-.43-.99-.65-1.55-.65-.56,0-1.13.22-1.55.65l-1.37,1.37.27.27,5.01,5.01,1.37-1.37c.86-.86.86-2.25,0-3.11Z"/>
          <path class="uuid-1c238e86-00e4-4e9b-8b65-bbe609e7d0c4" d="M19.29,20.65l-.62,3.97h0s-.43,2.76-.43,2.76l2.62-.61,3.72-.86,12.99-12.99-5.28-5.28-13,13ZM21.33,25.86l-1.73-1.73.37-2.97,4.1,4.1-2.74.59Z"/>
        </g>
        <path class="uuid-1c238e86-00e4-4e9b-8b65-bbe609e7d0c4" d="M35.52,21.16v6.77c0,.99-.4,1.88-1.05,2.52-.65.65-1.54,1.04-2.52,1.05H15.63c-.99,0-1.88-.4-2.52-1.05-.65-.65-1.04-1.54-1.05-2.52v-15.07c0-.99.4-1.88,1.05-2.52.65-.65,1.54-1.04,2.52-1.05h10.62v-1.13h-10.62c-2.59,0-4.7,2.1-4.7,4.7v15.07c0,2.59,2.1,4.7,4.7,4.7h16.32c2.59,0,4.7-2.1,4.7-4.7v-6.77h-1.13Z"/>
      </g>
    </g>
  </g>
</svg>