<?xml version="1.0" encoding="UTF-8"?>
<svg id="Layer_2" data-name="Layer 2" xmlns="http://www.w3.org/2000/svg" width="160.47" height="182.18" viewBox="0 0 160.47 182.18">
  <defs>
    <style>
      .cls-1 {
        fill: #48484a;
      }

      .cls-1, .cls-2, .cls-3 {
        fill-rule: evenodd;
        stroke-width: 0px;
      }

      .cls-4 {
        fill: none;
        stroke: #48484a;
        stroke-miterlimit: 10;
        stroke-width: 1.4px;
      }

      .cls-2 {
        fill: #2d2b2c;
      }

      .cls-3 {
        fill: #fff;
      }
    </style>
  </defs>
  <g id="Assets">
    <g id="callout_05">
      <path class="cls-3" d="M99.48,20.32l-3.63-4.06-3.63-2.71-2.9-3.39C78.79,2.97,65.31-1.09,52.28,1.36l-5.08.68-4.36,1.35c-13.53,5.04-25.43,14.64-30.49,27.77l-1.45,4.74-1.45,4.06v12.87l1.45,4.74.73,4.74,2.18,3.39,2.18,4.74,2.9,3.39,2.18,4.06,3.63,2.71,2.91,2.03,2.9,2.71c12.56,7.74,20.25,8.53,34.85,8.13l4.36-1.35,3.63-.68,4.36-1.35,76.25,83.98-59.55-94.14,2.91-3.39,2.18-2.71,2.91-4.06,1.45-3.39,1.45-4.06,2.18-4.06.73-3.38.73-4.06v-3.39l-.73-4.74-.73-4.06v-3.39l-2.18-4.06-1.45-4.06-2.18-3.39-2.18-3.39"/>
      <path class="cls-2" d="M100.21,19.64l-.73.67.73-.67M100.93,24.38l-2.18-4.06,1.45-.67,2.9,3.39-2.18,1.35M103.11,23.03l-1.45.67,1.45-.67M103.11,27.77l-2.18-3.39,2.18-1.35,1.45,4.06-1.45.68M104.56,27.09h-.73.73M104.56,31.16l-1.45-3.39,1.45-.68,1.45,3.39-1.45.68M106.01,35.89l-1.45-4.74,1.45-.68,2.18,4.06-2.18,1.35M108.19,34.54v.67h-.73l.73-.67M106.74,38.6h.73-.73l-.73-3.39h2.18l.73,3.39h-2.18M107.46,43.35l-.73-4.74h2.18v4.06l-1.45.68M108.92,42.67h-.73.73M107.46,47.41v-4.74h1.45l.73,4.74h-2.18M109.64,47.41h-.73.73M107.46,50.79v-3.39h2.18v3.39h-2.18M109.64,50.79h-.73.73M107.46,54.86v-4.06h2.18l-.73,4.06h-1.45M108.92,54.86v.67l-.73-.67h.73M106.01,58.24l1.45-3.38,1.45.67-1.45,3.39-1.45-.68M107.46,58.92v-.68.68M104.56,62.31l1.45-4.06,1.45.68-1.45,4.06-1.45-.68M106.01,62.98l-.73-.68.73.68M101.66,69.76l2.91-7.45,1.45.68-2.91,6.77h-1.45M103.11,69.76v.67l-.73-.67h.73M98.75,73.14l2.91-4.06,1.45,1.35-2.9,3.39-1.45-.68M100.21,73.82h-.73.73M96.58,76.53l2.18-3.39,1.45.68-2.18,3.39-1.45-.68M98.03,77.21v.68l-.73-1.36.73.68M92.95,79.24l3.63-2.71,1.45,1.36-3.63,2.71-1.45-1.36M94.4,80.59l-.73-1.36h.73v1.36l-3.63,1.35,2.18-2.71,1.45.68v.68M94.4,79.24v-.68l.73.68-.73.68v-.68M153.21,174.05l-59.54-93.46,1.45-1.36,59.55,94.14-1.45.68M154.67,173.37l5.81,8.8-7.26-8.13h.73l.73-.68M83.5,94.81l-.73.68.73-.68,71.16,77.88-1.45,1.36-71.16-77.88,1.45-1.35M77.7,89.4l5.81,5.42-1.45,1.35-5.81-5.42,1.45-1.35M76.97,89.4h.73v.68l-.73-.68M72.61,90.75l4.36-1.35.73,1.35-3.63,1.36-1.45-1.36M74.07,92.11l-.73-.68.73.68M69.71,91.43h-.73.73v.68-.68l3.63-.68.73,1.36-4.36,1.35v-2.03M65.35,92.11l4.36-.68v2.03l-4.36.68v-2.03M65.35,94.14v-.68.68M60.99,92.11h4.36v2.03h-4.36v-2.03M57.36,92.11h3.63v2.03h-3.63v-2.03M53,92.78l4.36-.68v2.03l-4.36.68v-2.03M53,94.81v-1.36,1.36M49.37,92.11l3.63.68v1.35l-3.63-.68v-1.35M49.37,93.46h-.73l.73-.67v.67M45.74,90.75l3.63,1.36-.73,1.35-3.63-.67.73-2.03M45.02,92.78l.73-.68-.73.68M41.39,89.4v1.35-1.35l4.36,1.35-.73,2.03-4.36-1.36.73-2.03M37.76,88.72l3.63.68-.73,2.03-3.63-1.35.73-1.36M37.03,90.08l.73-.68-.73.68M34.85,86.69l-.73.67.73-.67,3.63,2.03-1.45,1.36-3.63-2.03,1.45-1.35M30.49,83.98l4.36,2.71-1.45,1.35-3.63-2.03.73-2.03M29.77,86.01l.73-.68-.73.68M27.59,82.62l3.64,2.03-1.45,1.36-2.91-2.03.73-1.36M26.86,83.98l.73-1.36-.73,1.36M24.69,79.91l3.63,2.71-1.45,1.36-3.63-2.71,1.45-1.36M21.78,76.53l2.91,3.39-1.45,1.36-2.9-3.39,1.45-1.36M20.33,77.88h.73-.73M19.6,73.82h-.73.73l2.18,3.39-1.45.68-2.18-3.39,1.45-.68M16.7,69.76l2.9,4.06-1.45.68-2.91-3.39,1.45-1.35M15.24,71.11l.73-.68-.73.68M14.52,65.69l2.18,4.06-1.45,1.35-2.9-4.74,2.18-.68M12.34,66.37l1.45-.68-1.45.68M12.34,61.63l2.18,4.06-2.18.68-1.45-4.06,1.45-.68M10.89,62.31h.73-.73M10.89,57.57l1.45,4.06-1.45.68-1.45-4.06,1.45-.67M9.44,58.24v-.67h1.45l-1.45.67M10.89,52.82l.73,4.74h-2.18l-.73-4.74h2.18M8.71,52.82h.73-.73M10.16,48.09l.73,4.74h-2.18l-.73-4.06,2.18-.68M7.98,48.76h1.45-1.45M10.16,44.02v4.06l-2.18.68v-4.74h2.18M7.98,44.02h1.45-1.45M10.89,39.96l-.73,4.06h-2.18l.73-4.06h2.18M8.71,39.96v-.68l.73.68h-.73M11.61,35.89l-.73,4.06-2.18-.68.73-4.06,2.18.68M9.44,35.22l1.45.68-1.45-.68M13.79,31.16l-2.18,4.74-2.18-.68,2.18-4.74,2.18.68M11.61,30.48l.73.68-.73-.68M15.24,27.09l-1.45,4.74-2.18-1.36,2.18-3.39h1.45M13.79,27.09l4.36-9.48-4.36,9.48h.73-.73M17.43,23.03l-2.18,4.06h-1.45l1.45-4.06h2.18M15.24,23.03v-.68l1.45.68h-1.45M20.33,19.64l-2.91,4.06-2.18-1.35,3.63-3.39,1.45.68M18.88,18.96h.73-.73M23.23,16.26l-2.9,3.39-1.45-.68,2.91-4.06,1.45,1.36M21.78,14.9l.73.68-.73-.68M26.14,12.87l-2.91,3.39-1.45-1.36,2.91-2.71,1.45.68M24.69,12.19h.73v-.67l.73,1.35-1.45-.68M30.49,10.16l-4.36,3.39-.73-2.03,3.63-2.71,1.45,1.36M29.04,8.8l.73,1.36-.73-1.36M34.85,8.13v-.68.68l-4.36,2.03-1.45-1.36,5.08-2.71.73,2.03M38.48,5.42l-3.63,2.71-.73-2.03,3.63-2.03.73,1.36M37.76,4.06h.73v.68l-.73-.68M42.84,4.06l-4.36,1.36v-1.36l4.36-2.03v2.03M42.84,2.03v1.35-1.35M47.92,2.71l-5.09,1.35v-2.03l4.36-1.36.73,2.03M47.2.68v1.36V.68M53,2.03l-5.08.68-.73-2.03h5.08l.73,1.36M52.28.68v.68-.68M57.36,2.03h-4.36l-.73-1.36,5.08-.68v2.03M57.36,0v.68-.68M62.45,2.03h-5.09V0h5.09v2.03M66.8,2.03h-4.36V0l4.36.68v1.36M66.8.68v.68-.68M71.88,3.39l-5.08-1.35V.68l5.08.68v2.03M71.88,1.36h.73v.68h-.73v-.68M75.52,4.74l-4.36-1.36,1.45-1.35,3.63,1.35-.73,1.36M76.24,3.39v-.67.67M80.6,6.1l-5.08-1.35.73-1.36,4.36,1.36v1.35M80.6,4.74h.73l-.73.68v-.68M84.23,8.13l-3.63-2.03.73-1.35,3.63,2.03-.73,1.36M84.96,6.77v.68-.68M87.86,11.52l-3.63-3.39.73-1.36,4.36,2.71-1.45,2.03M89.31,9.48v.68-.68M92.22,13.55l-4.36-2.71,1.45-1.36,3.63,3.39-.73.68M92.95,12.87l-.73.68.73-.68M95.12,16.93l-2.91-3.39.73-.68,3.63,2.71-1.45,1.36M96.58,15.58l-.73.68.73-.68M98.75,20.99l-3.63-4.06,1.45-1.36,3.63,4.06-1.45,1.35"/>
      <path class="cls-1" d="M92.95,41.31l-24.69,8.13v.68l-1.45,1.36h-.73v.68l-.73.67-2.18,22.35h3.63l1.45-.68,1.45-.68h1.45l1.45-.68,1.45-.67h1.45l.73-1.36h1.45l1.45-1.35.73-.68,1.45-.68.73-1.36,1.45-.67,1.45-.68.73-1.36.73-.67,1.45-1.36v-1.35l1.45-.68v-1.36l1.45-1.35v-.68l.73-1.36.73-1.35v-1.36l.73-1.35v-10.16l-34.13,33.86-3.63-22.35h-.73l-.73-.67-2.18-2.03-25.42-8.13v1.36c-.04,8.29-.46,4.62,2.18,12.19l.73,1.36v1.35l1.45,1.36v1.36l1.45,1.35.73,1.36.73.67,1.45.68.73,1.36,1.45.67.73,1.36,2.91,1.36.73,1.35h1.45l1.45,1.36h1.45l1.45.67,1.45.68h2.18l2.9,1.36h5.09l34.13-33.86M66.8,39.96l25.41-2.03v-1.35l-.73-.68-.73-1.35v-1.36l-1.45-1.35v-.68l-.73-1.36-.73-.68-1.45-.67v-1.36l-1.45-.68-.73-.67-.73-1.36-1.45-.68-1.45-1.35-1.45-.68-1.45-1.36h-.73l-1.45-.67-.73-.68-1.45-.68-1.45-.68h-.73l-1.45-.67h-1.45l-1.45-.68h-13.8l-1.45.68h-1.45l-1.45.67h-1.45l-2.91,1.36-.73.68-1.45.67-.73.68-2.91,1.36-.73.68-.73.67-2.18,2.03-.73.67-.73.68-.73,1.36-.73.67-1.45,1.36v.68l-.73,1.35-.73.68-.73,1.36-.73,1.35v2.71l24.69,1.36h.73v-.68l.73-.68h1.45l.73-.68.73-.67h6.54l.73.67.73.68h.73l.73.68h.73v.68M59.54,10.16h6.54l2.18.68,1.45.68h2.18l2.18.67,2.9,1.36,2.18.68,1.45.67,1.45,1.36,1.45.68,1.45.67,1.45,1.36,2.91,2.71,1.45,1.36c5.16,4.82,7.87,12.46,9.44,18.96v5.42c-1.42,17.44-17.42,32.67-36.31,33.86h-7.99c-18.22-1.07-35.13-15.2-36.31-32.51v-4.74c-.21-7.06,2.7-14.48,7.99-19.64l1.45-1.35.73-1.36,1.45-1.36,1.45-1.35,1.45-1.36,1.45-.67,1.45-.68,1.45-1.36,2.18-.67,1.45-.68,2.18-.68,1.45-.68,2.18-.67h2.18l1.45-.68,2.18-.68h5.81"/>
      <path class="cls-3" d="M92.22,42.67l-23.96,7.45v.68l-1.45,1.36v.67h-1.45v.68l-2.18,22.35,1.45-.67h3.63l1.45-.68h1.45l1.45-.68.73-.68,1.45-.67h1.45l1.45-1.36.73-.68,1.45-.67.73-.68,1.45-.68,1.45-1.36.73-.67.73-1.36,1.45-.68.73-.67.73-1.36.73-1.35.73-1.36.73-1.36.73-.67v-1.36l.73-1.35.73-1.36v-4.06l.73-1.35v-4.06h-.73v-1.35l-33.4,33.18-3.63-21.67-1.45-1.36h-.73v-.67l-.73-.68h-.73l-24.69-8.13v2.03c.19,2.45-.57,5.2.73,7.45v1.36l.73,1.35.73,1.36v1.35l.73,1.36.73.68.73,1.35.73,1.36,1.45.68.73,1.35.73.68,1.45,1.35.73,1.36,2.91,1.36.73.67,1.45.68,1.45,1.36h1.45l1.45,1.35h1.45l2.91,1.36h3.63l1.45.67h2.91l33.4-33.18M66.8,41.31l24.69-2.03v-1.36l-.73-1.35v-.68l-.73-1.35-.73-1.36-.73-.68-.73-1.35-.73-.68-.73-1.36-.73-.67-.73-.68-1.45-.68-.73-1.35-.73-.68-1.45-.68-.73-.68-.73-.67-1.45-.68-1.45-.68-.73-.68-1.45-.68h-.73l-1.45-.67-1.45-.68h-.73l-1.45-.68-1.45-.68h-13.8l-1.45.68c-4.83,1.4-8.14,2.46-12.34,5.42l-2.18,2.03h-.73l-.73,1.35-.73.68-1.45.68v1.35l-1.45.68-.73,1.36-.73.67v1.36l-.73.68-.73,1.35-.73,1.36v1.35l-.73.68,24.69,2.03h.73v-.67l.73-.68h.73l.73-.68h.73v-.68h7.26l.73.68h.73l.73.68h.73v.68h.73v.67M59.54,11.52h4.36l1.45.67h2.18c9.15,1.85,13.35,3.79,20.33,9.48l2.91,2.71c4.18,5.8,8.19,11.7,7.99,18.96l.73,2.03v3.39l-.73,1.35v3.39l-.73,2.03-.73,1.36v2.03l-1.45,1.36v2.03l-1.45,1.36-.73,1.35-.73,1.36-1.45,1.35-.73,1.36-1.45,1.35-1.45.68c-5.65,5.9-14.05,9.82-22.51,10.16h-1.45l-2.18.67h-4.36l-1.45-.67c-16.49.77-35.25-15.71-35.58-31.16v-3.39c-1.8-16.25,16.23-34.01,33.4-34.54l2.18-.67h3.63"/>
      <path class="cls-1" d="M100.21,46.73v-5.42l-.73-1.35v-1.36l-.73-1.35v-1.36l-.73-.68v-.67l-.73-1.36v-.68l-1.45-1.35v-.68l-.73-1.36-.73-.67-.73-1.36-.73-.68v-.67l-.73-.68v-.68l-1.45-.68v-.67l-1.45-1.36h-.73l-.73-1.36h-.73l-.73-1.35h-.73l-.73-.68-.73-.68h-.73l-1.45-.67-.73-.68-.73-.68h-.73l-.73-.68h-1.45v-.67l-1.45-.68h-.73l-.73-.68h-2.18l-.73-.68h-.73l-1.45-.67h-3.63l-.73-.68h-5.81v2.03h7.99l.73.68h2.91l1.45.68h.73l.73.67h.73l.73.68h.73l1.45.68c1.59,1,3.14,1.3,4.36,2.71h.73l.73.68c4.15,4.2,1.17.13,4.36,3.39l1.45,1.35v.68l1.45.68v.67l1.45,1.36v.68l.73.67.73,1.36.73.68v.68l.73.67v.68l.73,1.36.73,1.35v.68l.73.68v2.71l.73.68v2.71l.73.67v2.71h1.45"/>
      <path class="cls-1" d="M59.54,82.62h6.54l.73-.68h2.18l.73-.67h2.18l.73-.68h2.18l1.45-1.36h1.45l1.45-.68.73-.67h.73l.73-.68.73-.68h1.45l.73-1.35h.73l1.45-1.36h.73l.73-1.35h.73l.73-1.36h.73l.73-.68v-.67l1.45-.68v-.68l.73-.68v-.68l.73-1.35h.73v-1.36l.73-.67.73-.68v-.68l1.45-1.35v-1.36l.73-.68v-.68l.73-.67v-2.03l.73-.67v-2.03l.73-.67v-5.42h-1.45v2.71l-.73.68v2.71l-.73.68v2.71l-.73.68v.68l-.73.67v1.36l-.73.68v.68l-.73.67v.68l-1.45,1.36v.67l-.73.68v.68l-.73.68-.73.67v.68l-1.45.68v.68l-.73.68c-3.34,3.37-.29-.66-3.63,2.71l-.73.67-.73.68h-.73l-1.45,1.36h-.73l-.73.67-.73.68h-1.45v.68l-1.45.68h-.73l-.73.67h-.73l-.73.68h-2.18l-.73.68h-.73l-1.45.68h-5.81l-.73.68h-2.18v1.35"/>
      <polyline class="cls-1" points="19.6 46.73 19.6 54.18 20.33 54.86 20.33 56.89 21.05 57.57 21.05 58.24 21.78 58.92 21.78 60.95 22.51 61.63 23.23 62.31 23.23 62.98 23.96 63.66 24.68 64.34 24.68 65.69 25.41 65.69 26.14 67.05 26.14 67.72 27.59 68.4 27.59 69.08 28.31 69.76 29.04 70.43 29.77 71.11 30.49 71.11 31.22 72.47 31.94 72.47 32.67 73.82 33.4 73.82 34.12 74.5 34.85 75.18 35.58 75.18 36.3 76.53 37.03 76.53 38.48 77.88 39.93 77.88 39.93 78.56 41.39 79.24 42.84 79.24 44.29 79.91 45.02 80.59 47.19 80.59 47.19 81.27 50.1 81.27 50.82 81.95 53 81.95 53.73 82.62 59.54 82.62 59.54 81.27 58.09 81.27 56.64 80.59 50.82 80.59 50.1 79.91 48.65 79.91 48.65 79.24 46.47 79.24 45.74 78.56 44.29 78.56 43.56 77.88 42.84 77.88 41.39 76.53 39.93 76.53 39.93 75.85 38.48 75.18 37.76 75.18 36.3 73.82 34.85 73.14 34.85 72.47 33.4 71.79 33.4 71.11 31.94 71.11 31.94 70.43 31.22 69.76 29.04 67.72 29.04 67.05 28.31 66.37 26.14 64.34 26.14 63.66 25.41 62.98 25.41 62.31 24.68 61.63 24.68 60.95 23.23 59.6 23.23 57.57 22.51 56.89 22.51 56.21 21.78 55.53 21.78 51.47 21.05 50.79 21.05 46.73 19.6 46.73"/>
      <path class="cls-1" d="M92.22,38.6h-.73l-24.69,1.36v2.03l25.41-2.03v-1.36,1.36h.73l-.73-1.36M59.54,10.84h-5.08l-.73.68h-3.63l-1.45.67h-1.45v.68h-2.18l-.73.68h-1.45l-.73.68-.73.67h-1.45v.68h-1.45c-4.15,4.21-1.15.11-4.36,3.39h-.73l-.73,1.35h-.73l-.73,1.36h-.73l-1.45,1.36-.73.67-.73.68v.68l-1.45.68v.67l-.73.68-.73,1.36-.73.67-.73,1.36v.68l-.73.68-.73.67v2.03l-.73.67v.68l-.73,1.36v1.35l-.73.68v7.45h1.45v-4.06l.73-1.36v-2.71l.73-1.35v-.68l.73-.68v-1.35l.73-1.36.73-.68v-.67l.73-.68v-.68l.73-1.36.73-.67,2.18-2.03v-.67l2.18-2.03.73-.67v-.68l2.9-1.36v-.68l1.45-.67v-.68h.73l1.45-1.36h1.45v-.67l1.45-.68h.73c1.1-1.23,4.7-1.64,6.54-2.71h2.18l.73-.68h7.99v-2.03"/>
      <polyline class="cls-1" points="59.54 18.29 62.45 18.29 63.9 18.96 68.25 18.96 68.98 19.64 70.43 20.32 72.61 20.32 74.07 21.67 75.52 21.67 76.97 23.03 78.42 23.7 79.15 24.38 80.6 25.06 82.05 26.41 83.5 27.09 84.23 28.45 84.96 29.12 86.41 30.48 87.13 31.83 87.86 33.19 88.58 33.86 89.31 34.54 89.31 35.89 90.04 37.25 90.76 38.6 90.76 39.28 92.22 38.6 92.22 36.57 91.49 35.22 90.76 34.54 90.04 33.19 89.31 31.83 88.58 30.48 87.13 29.12 86.41 28.45 85.68 27.09 84.96 26.41 83.5 25.74 82.78 24.38 81.33 23.7 80.6 23.03 79.15 22.35 78.42 21.67 76.97 20.99 76.24 20.32 74.79 19.64 73.34 18.96 72.61 18.96 69.71 17.61 66.8 17.61 65.35 16.93 63.9 16.93 62.45 16.26 59.54 16.26 59.54 18.29"/>
      <path class="cls-1" d="M27.59,38.6l1.45,1.36v-2.71l.73-1.36.73-.68v-.67l1.45-1.36v-1.35l1.45-.68v-.68l1.45-1.36v-.67l1.45-.68.73-.68.73-1.35.73-.68,1.45-.68.73-.68,1.45-.67.73-.68,1.45-.68h1.45l.73-.68c8.25-3.71,5.94-.77,10.89-2.71h2.18v-2.03h-2.18c-3.19,1.72-7.08.61-10.17,2.71h-1.45l-1.45.68-.73.67-1.45.68-.73.68-2.91,1.36-.73.67-1.45.68-.73,1.36-.73.67-1.45.68v1.36l-1.45.67-.73,1.36-1.45,1.36-.73,1.35v1.36l-.73,1.35-.73,1.36v.67l-.73,1.36.73.68-.73-.68-.73.68h1.45v-1.36"/>
      <polyline class="cls-1" points="53 41.99 52.28 40.64 27.59 38.6 27.59 39.96 52.28 42.67 53 41.99 52.28 42.67 53 42.67 53 41.99"/>
      <polyline class="cls-1" points="59.54 37.25 57.36 37.25 56.64 37.93 55.91 37.93 55.19 38.6 54.46 38.6 53.73 39.28 53 39.28 53 39.96 52.28 39.96 51.55 40.64 51.55 41.31 53 41.99 53.73 41.31 54.46 41.31 54.46 40.64 55.19 39.96 57.36 39.96 57.36 39.28 59.54 39.28 59.54 37.25"/>
      <polyline class="cls-1" points="66.8 39.96 67.53 40.64 66.08 39.28 65.35 38.6 63.9 38.6 63.9 37.93 63.17 37.93 62.45 37.25 59.54 37.25 59.54 39.28 62.45 39.28 62.45 39.96 63.9 39.96 64.62 40.64 65.35 40.64 65.35 41.31 66.08 41.31 66.08 41.99 66.8 41.99 66.08 41.99 66.8 41.99 66.8 39.96"/>
      <polyline class="cls-1" points="67.53 50.12 68.25 51.47 92.95 44.02 92.22 41.99 68.25 49.44 67.53 50.12 68.25 49.44 67.53 50.12"/>
      <polyline class="cls-1" points="66.08 53.5 66.08 54.18 66.8 54.18 66.8 52.82 67.53 52.82 68.25 52.15 68.25 51.47 68.98 51.47 68.98 50.79 67.53 50.12 66.8 50.12 66.8 51.47 66.08 51.47 65.35 52.15 65.35 52.82 64.62 52.82 63.9 53.5 64.62 52.82 63.9 53.5 66.08 53.5"/>
      <polyline class="cls-1" points="63.17 76.53 63.9 75.85 66.08 53.5 63.9 53.5 62.45 75.85 63.17 76.53 62.45 75.85 62.45 76.53 63.17 76.53"/>
      <path class="cls-1" d="M55.91,52.82l-1.45,1.36,3.63,21.67h1.45l-3.63-21.67v-1.36,1.36-1.36M92.22,41.99l-1.45-.68v2.71h.73v1.36h1.45v-4.06l-1.45-1.35,1.45,1.35-.73-1.35h-.73l.73,2.03M92.22,46.73v1.36l-.73,1.35v2.71l-.73,1.35v.68l-.73,1.35-.73,1.36v1.35l-.73,1.36-.73,1.36-.73.67-.73,1.36-1.45.68-.73.67-.73,1.36-1.45.68-.73.67-.73,1.36-2.9,1.36-.73.67-2.9,1.36c-1.69,1.64-4.13,2.36-6.54,2.03l-1.45.68-1.45.68h-1.45v1.35h3.63l1.45-.68,1.45-.67h1.45l1.45-.68,1.45-.68h1.45l.73-1.35h1.45l1.45-1.36,1.45-.68.73-.67,2.18-2.03,1.45-.68.73-1.35.73-1.36,1.45-.67.73-1.36.73-.68c2.76-4.78,3.83-6.41,3.63-12.19l.73-1.35v-1.36h-1.45"/>
      <path class="cls-1" d="M51.55,51.47h-.73l.73.68v.67h.73l.73.68v.68h1.45v.68l1.45-2.03h-.73c-1.87.28-1.88-1.99-2.91-2.71h-.73.73-.73v1.36"/>
      <polyline class="cls-1" points="26.14 42.67 26.86 44.02 51.55 51.47 51.55 50.12 27.59 42.67 26.14 42.67 27.59 42.67 26.14 41.99 26.14 42.67"/>
      <polyline class="cls-1" points="27.59 46.73 27.59 43.35 26.14 42.67 26.14 46.73 27.59 46.73"/>
      <path class="cls-1" d="M58.09,75.85l.73-.67h-3.63l-.73-.68h-1.45l-1.45-.68h-2.18l-1.45-.68-1.45-.67-.73-.68-2.91-1.36-1.45-.67-2.91-1.36-.73-1.36-.73-.67-1.45-.68-.73-1.36-.73-.67-.73-1.36c-3.57-2.82-2.31-4.66-4.36-6.77v-2.03l-.73-.68v-1.35l-.73-.68v-4.06h-1.45v6.77l.73.68v.68l.73.67v1.36l.73.68v.67l1.45,2.71.73,1.35.73,1.36.73.67,1.45,1.36,1.45,1.35.73.68c2.39,2.99,5.93,4.1,8.71,6.1h1.45l1.45,1.36h1.45l2.18.67h1.45l.73.68h5.81l.73-.68-.73.68h.73v-.68h-1.45"/>
      <polyline class="cls-3" points="59.54 39.96 62.45 39.96 63.17 40.64 63.9 41.31 64.62 41.31 65.35 41.99 65.35 42.67 66.08 42.67 66.8 43.35 66.8 44.7 67.53 44.7 67.53 48.76 66.8 49.44 66.8 50.12 66.08 50.79 65.35 51.47 65.35 52.15 64.62 52.82 63.17 52.82 62.45 53.5 61.72 54.18 57.36 54.18 55.91 52.82 54.46 52.82 53.73 52.15 53 51.47 53 50.79 51.55 49.44 51.55 44.02 52.28 43.35 54.46 41.31 55.19 41.31 55.91 40.64 56.64 39.96 59.54 39.96"/>
      <polygon class="cls-4" points="59.54 40.02 62.44 40.02 63.17 40.7 63.9 41.37 64.62 41.37 65.35 42.05 65.35 42.73 66.08 42.73 66.8 43.41 66.8 44.76 67.53 44.76 67.53 48.82 66.8 49.5 66.8 50.18 66.08 50.85 65.35 51.53 65.35 52.21 64.62 52.89 63.17 52.89 61.72 54.24 57.36 54.24 56.63 53.56 55.91 52.89 54.45 52.89 53.01 51.53 53.01 50.85 52.28 50.18 51.55 49.5 51.55 44.09 54.45 41.37 55.18 41.37 55.91 40.7 56.63 40.02 59.54 40.02"/>
      <polyline class="cls-3" points="59.54 41.99 60.99 41.99 61.72 42.67 63.17 42.67 63.9 43.35 63.9 44.02 64.62 44.02 65.35 44.7 65.35 46.73 66.08 47.41 65.35 48.09 65.35 50.12 64.62 50.12 63.9 50.79 63.9 51.47 63.17 52.15 62.45 52.15 61.72 52.82 57.36 52.82 56.64 52.15 55.91 52.15 55.91 51.47 55.19 51.47 54.46 50.79 54.46 50.12 53.73 49.44 53.73 48.76 53 48.76 53 46.73 53.73 46.05 53.73 45.38 54.46 44.7 54.46 44.02 55.19 43.35 55.91 43.35 55.91 42.67 57.36 42.67 57.36 41.99 59.54 41.99"/>
      <polygon class="cls-4" points="59.54 42.05 60.99 42.05 61.72 42.73 63.17 42.73 63.9 43.41 63.9 44.09 64.62 44.09 65.35 44.76 65.35 46.79 66.08 47.47 65.35 48.15 65.35 50.18 64.62 50.18 63.9 50.85 63.9 51.53 63.17 52.21 62.44 52.21 61.72 52.89 57.36 52.89 56.63 52.21 55.91 52.21 55.91 51.53 55.18 51.53 54.45 50.85 54.45 50.18 53.73 49.5 53.73 48.83 53.01 48.83 53.01 46.79 53.73 46.12 53.73 45.44 54.45 44.76 54.45 44.09 55.18 43.41 55.91 43.41 55.91 42.73 57.36 42.73 57.36 42.05 59.54 42.05"/>
      <path class="cls-3" d="M22.51,70.43l-7.99-2.71-7.26,5.42-5.81,16.26,15.97,5.42,6.54-16.26-1.45-8.13M16.7,73.14h1.45v-.67h.73v-1.36h-.73v-.68h-1.45v.68h-.73l-.73.68v.68h.73l.73.67"/>
      <polyline class="cls-1" points="18.15 72.47 16.7 72.47 16.7 73.82 18.88 73.82 19.6 73.14 19.6 72.47 18.15 72.47"/>
      <polyline class="cls-1" points="17.43 71.11 17.43 71.79 18.15 71.79 18.15 72.47 19.61 72.47 19.61 70.43 18.88 69.76 18.15 69.76 17.43 71.11"/>
      <polyline class="cls-1" points="16.7 71.79 16.7 71.11 17.43 71.11 18.15 69.76 15.25 69.76 15.25 71.11 16.7 71.79"/>
      <polyline class="cls-1" points="16.7 72.47 16.7 71.79 15.25 71.11 14.52 71.11 14.52 71.79 15.25 72.47 15.25 73.82 16.7 73.82 16.7 72.47"/>
      <polyline class="cls-1" points="13.79 67.05 13.79 68.4 21.78 71.11 22.51 69.76 14.52 67.05 13.79 67.05 14.52 67.05 13.79 66.37 13.79 67.05"/>
      <polyline class="cls-1" points="6.53 72.47 7.98 73.82 15.24 68.4 13.79 67.05 6.53 72.47"/>
      <polyline class="cls-1" points=".73 90.08 2.18 89.4 7.99 73.82 6.54 72.47 0 88.72 .73 90.08 0 88.72 0 89.4 .73 90.08"/>
      <polyline class="cls-1" points="18.15 94.81 18.15 94.14 1.45 88.04 .72 90.08 17.43 95.49 18.15 94.81 17.43 95.49 18.15 96.17 18.15 94.81"/>
      <polyline class="cls-1" points="24.69 78.56 23.24 77.88 16.7 94.81 18.15 94.81 24.69 79.24 24.69 78.56 24.69 79.24 24.69 78.56"/>
      <polyline class="cls-1" points="22.51 69.76 21.78 70.43 23.23 78.56 24.69 78.56 23.23 70.43 22.51 69.76 23.23 70.43 23.23 69.76 22.51 69.76"/>
      <polyline class="cls-1" points="18.15 71.79 23.23 62.31 21.78 60.95 16.7 71.11 18.15 71.79 16.7 71.11 13.79 76.53 18.15 71.79"/>
      <path class="cls-1" d="M31.94,59.6l-6.53,3.39.73,1.35,5.81-2.71v-2.03,2.03l3.63-2.03h-3.63M23.23,63.66l-6.54,7.45,1.45.68,6.53-6.77-1.45-1.35"/>
      <polyline class="cls-1" points="23.96 59.6 24.69 61.63 31.95 61.63 31.95 59.6 23.96 59.6 19.61 61.63 24.69 61.63 23.96 59.6"/>
      <polyline class="cls-1" points="31.95 58.24 30.5 56.89 23.96 59.6 24.69 61.63 31.95 58.92 31.95 58.24 31.95 58.92 31.95 58.24"/>
      <polyline class="cls-1" points="38.48 55.53 37.76 55.53 37.76 54.86 37.03 54.86 36.3 54.18 34.85 54.18 34.12 54.86 32.67 54.86 31.94 55.53 30.49 56.89 30.49 58.24 31.94 58.24 31.94 57.57 32.67 56.89 34.85 56.89 34.85 56.21 36.3 56.21 36.3 56.89 37.03 56.89 38.48 55.53"/>
      <polyline class="cls-1" points="34.85 59.6 38.48 59.6 39.21 58.92 39.21 58.24 39.93 58.24 39.21 57.57 39.21 56.89 38.48 56.21 38.48 55.53 37.03 56.89 37.03 58.24 37.76 58.24 37.76 57.57 34.12 57.57 34.85 59.6"/>
      <polyline class="cls-1" points="31.22 58.24 31.95 59.6 34.85 59.6 34.13 57.57 31.22 58.24 29.77 58.92 31.95 59.6 31.22 58.24"/>
      <polyline class="cls-1" points="33.4 59.6 32.67 58.24 31.22 58.24 31.95 59.6 33.4 59.6"/>
      <polyline class="cls-1" points="38.48 60.95 38.48 60.28 37.03 58.92 37.03 58.24 36.3 58.24 36.3 57.57 33.4 57.57 32.67 58.24 33.4 59.6 36.3 59.6 36.3 61.63 36.3 60.95 38.48 60.95"/>
      <polyline class="cls-1" points="31.95 61.63 31.95 62.31 33.4 62.31 34.85 62.98 34.85 63.66 37.03 63.66 37.03 62.98 37.76 62.98 37.76 62.31 38.49 62.31 38.49 60.95 36.31 60.95 36.31 61.63 35.58 60.95 33.4 60.95 33.4 60.28 32.67 60.28 32.67 59.6 31.95 59.6 31.95 61.63"/>
    </g>
  </g>
</svg>