<?xml version="1.0" encoding="UTF-8"?>
<svg id="Layer_2" data-name="Layer 2" xmlns="http://www.w3.org/2000/svg" width="123.84" height="254.1" viewBox="0 0 123.84 254.1">
  <defs>
    <style>
      .cls-1, .cls-2 {
        fill: #48484a;
      }

      .cls-1, .cls-2, .cls-3, .cls-4 {
        stroke-width: 0px;
      }

      .cls-1, .cls-3, .cls-4 {
        fill-rule: evenodd;
      }

      .cls-3 {
        fill: #2d2b2c;
      }

      .cls-5 {
        stroke-width: .68px;
      }

      .cls-5, .cls-6 {
        fill: none;
        stroke: #48484a;
        stroke-miterlimit: 10;
      }

      .cls-4 {
        fill: #fff;
      }

      .cls-6 {
        stroke-width: 2.05px;
      }
    </style>
  </defs>
  <g id="Assets">
    <g id="callout_08">
      <path class="cls-4" d="M27.6,219.12l2.12,5.28,1.41,3.96,2.83,3.96c9.42,11.49,14.66,15.76,29.72,19.8l4.25.66,4.95.66c14.35-.56,28.93-4.93,38.22-15.84l3.54-3.3,2.12-3.3,2.12-3.96,1.41-3.96.71-4.62,1.42-3.96.71-4.62v-4.62l-.71-4.62-1.42-3.96-.71-3.96-1.41-3.96-2.12-3.3-2.12-3.3-2.83-2.64-2.12-3.3-3.54-1.98-2.83-2.64-2.83-1.98-3.54-1.98-3.54-1.32-3.54-1.32-4.25-1.32h-3.54l-4.25-.66h-4.25L5.66,13.86l48.83,153.12-4.25,1.32-2.83,2.64c-6.13,3.97-9.88,9.27-14.86,13.86l-1.42,3.96-1.41,3.3c-2.26,7.27-4.31,12.07-3.54,19.8l.71,3.96.71,3.3"/>
      <path class="cls-3" d="M26.89,219.78l.71-.66-.71.66M27.6,215.82l.71,3.3-1.42.66-.71-3.96h1.41M26.18,215.82h.71-.71M27.6,211.86v3.96h-1.41l-.71-3.96h2.12M25.48,211.86h.71-.71M27.6,207.9v3.96h-2.12v-3.96h2.12M27.6,203.28v4.62h-2.12v-4.62h2.12M25.48,203.28h.71-.71M28.31,200.64h-.71.71l-.71-.66.71.66-.71,3.3-2.12-.66.71-3.3,2.12.66M29.02,196.68l-.71,3.96-2.12-.66,1.41-3.96,1.42.66M27.6,196.02h.71-.71M30.43,192.72l-1.41,3.96-1.42-.66,1.42-3.96,1.41.66M29.02,192.06h.71-.71M31.14,188.76l-.71,3.96-1.41-.66,1.41-3.3h.71M30.43,188.76v-.66l.71.66h-.71M33.26,185.46l-2.12,3.3-.71-.66,1.41-3.3,1.42.66M31.84,184.8h.71-.71M35.38,182.16l-2.12,3.96-1.42-1.32,2.12-3.3,1.41.66M33.97,181.5l1.41.66-1.41-.66M38.21,180.18l-2.83,2.64-1.41-1.32,2.83-2.64,1.41,1.32M36.8,178.86h1.41-1.41M43.88,174.24l-5.66,5.94-1.41-1.32,5.66-5.94,1.42,1.32M42.46,172.92l1.42.66-1.42-.66M48.12,171.6l-4.25,2.64-1.42-1.32,4.25-2.64,1.42,1.32M46.7,170.28l.71.66-.71-.66M50.95,169.62l-2.83,1.98-1.42-1.32,2.83-1.98,1.42,1.32M49.54,168.3h.71v-.66.66h-.71M54.49,167.64l-4.25,1.98v-1.98l4.25-1.32v1.32M54.49,166.32v1.32-1.32h4.25l-4.25,1.32v-1.32M54.49,167.64h-1.42v-.66h1.42v.66M6.37,13.86l48.12,153.12h-1.42L4.25,13.86h2.12M4.25,13.86L0,0l5.66,13.86h-1.41M70.77,156.42L4.25,13.86h1.41l66.52,141.9-1.41.66M72.18,155.76h-.71.71M72.89,163.68l-2.12-7.26,1.41-.66,2.12,7.26-1.42.66M73.6,163.68h-.71l.71-.66v.66M77.84,163.68h-4.25v-1.32h4.25v1.32M77.84,162.36v.66-.66M81.38,164.34l.71-.66-.71.66-3.54-.66v-1.32h4.25l-.71,1.98M85.63,165l-4.25-.66.71-1.98,3.54.66v1.98M85.63,163.02v.66-.66M89.17,166.32l-3.54-1.32v-1.98l4.25,1.98-.71,1.32M92.7,166.98l-3.54-.66.71-1.32,3.54.66-.71,1.32M96.95,168.3l-4.25-1.32.71-1.32,3.54,1.32v1.32M96.95,166.98h.71l-.71.66v-.66M99.78,170.28l-2.83-1.98.71-1.32,3.54,1.98-1.41,1.32M101.2,168.96l-.71.66.71-.66M102.61,172.26l-2.83-1.98,1.41-1.32,2.83,1.98-1.42,1.32M104.03,170.94l-.71.66.71-.66M106.15,174.9v-.66.66l-3.54-2.64,1.42-1.32,3.54,2.64-1.42,1.32M108.98,177.54l-2.83-2.64,1.42-1.32,2.83,2.64-1.42,1.32M110.4,176.22h-.71.71M111.1,180.18l.71-.66-.71.66-2.12-3.3,1.42-.66,2.12,2.64-1.41,1.32M113.94,183.48l-2.83-3.3,1.41-1.32,2.83,3.3-1.41,1.32M115.35,182.16h-.71.71M116.06,186.12l-2.12-3.3,1.41-.66,2.12,2.64-1.41,1.32M117.47,184.8l-.71.66.71-.66M117.47,189.42l-1.41-3.3,1.41-1.32,1.42,3.96-1.42.66M119.6,192.72l-2.12-3.3,1.42-.66,2.12,3.3-1.41.66M121.01,192.06v.66h-.71l.71-.66M120.3,196.68h.71-.71l-.71-3.96h1.41l.71,3.96h-1.42M121.72,201.3l-1.42-4.62h1.42l1.41,3.96-1.41.66M123.13,200.64h-.71.71M122.43,205.26l-.71-4.62h1.41l.71,4.62h-1.41M123.84,205.26h-.71.71M122.43,209.88v-4.62h1.41v4.62h-1.41M123.84,209.88v.66l-.71-.66h.71M121.72,214.5l.71-4.62,1.41.66-.71,3.96h-1.41M123.13,214.5h-.71.71M121.01,218.46l.71-3.96h1.41l-.71,4.62-1.42-.66M122.43,219.12l-1.42-.66,1.42.66M119.6,223.08l1.41-4.62,1.42.66-1.42,3.96h-1.41M121.01,223.08h-.71.71M118.18,227.04l1.41-3.96h1.41l-1.41,3.96h-1.41M119.6,227.04h-.71.71M116.06,230.34l2.12-3.96,1.41.66-2.12,3.96-1.41-.66M117.47,231h-.71.71M113.23,233.64l2.83-3.3,1.41.66-2.83,3.3-1.42-.66M114.64,234.3v.66-.66M110.4,236.94l2.83-3.3,1.42,1.32-2.83,3.3-1.41-1.32M111.81,238.26l-.71-.66.71.66M106.86,240.24l3.54-3.3,1.41,1.32-3.54,3.3-1.41-1.32M103.32,243.54l3.54-3.3,1.41,1.32-3.54,3.3-1.41-1.32M104.73,244.86v-1.32,1.32M99.78,246.18l3.54-2.64,1.41,1.32-3.54,2.64-1.41-1.32M101.2,247.5h-.71v-1.32l.71,1.32M95.54,248.16l4.25-1.98.71,1.32-3.54,1.98-1.41-1.32M96.95,249.48h-.71v-.66l.71.66M91.29,249.48l4.25-1.98.71,1.98-4.25,1.32-.71-1.32M92,250.8v-.66.66M87.04,250.8l4.25-1.32.71,1.32-4.96,1.32v-1.32M87.04,252.12v-.66.66M82.09,251.46v.66-.66l4.95-.66v1.32l-4.95,1.32v-1.98M77.14,252.12l4.95-.66v1.98l-4.25.66-.71-1.98M77.84,254.1v-.66.66M72.89,252.12h4.96v1.98h-4.96v-1.98M72.89,254.1h-.71l.71-.66v.66M67.93,252.12h4.95l-.71,1.98-4.25-.66v-1.32M67.93,253.44v-.66.66M63.69,250.8l4.25,1.32v1.32l-4.95-.66.71-1.98M62.98,252.78l.71-.66-.71.66M58.74,250.14l4.95.66-.71,1.98-4.25-1.32v-1.32M58.74,251.46v-.66.66M54.49,248.16l4.25,1.98v1.32l-4.25-1.32v-1.98M50.24,246.18l4.25,1.98v1.98l-4.25-1.98v-1.98M50.24,248.16h-.71l.71-.66v.66M46.7,244.2l4.25,2.64-1.42,1.32-4.25-2.64,1.41-1.32M45.29,245.52l1.41-.66-1.41.66M43.88,241.56l2.83,2.64-1.41,1.32-2.83-2.64,1.42-1.32M42.46,242.88l.71-.66-.71.66M39.63,238.26l4.25,3.3-1.42,1.32-4.25-3.3,1.42-1.32M38.21,239.58l1.42-.66-1.42.66M36.8,235.62l2.83,2.64-1.42,1.32-2.83-2.64,1.42-1.32M35.38,236.94v-.66l1.42-.66-1.42,1.32M33.97,231.66l2.83,3.96-1.42.66-2.83-3.96,1.41-.66M32.55,232.32h1.41-1.41M31.84,227.7l2.12,3.96-1.41.66-2.12-3.96,1.41-.66M30.43,228.36h.71-.71M30.43,224.4l1.41,3.3-1.41.66-1.41-3.96h1.41M29.02,224.4h.71-.71M28.31,219.12l2.12,5.28h-1.41l-2.12-4.62,1.42-.66"/>
      <polyline class="cls-4" points="99.78 226.38 111.81 205.92 102.61 205.92 102.61 186.12 95.54 186.12 95.54 205.92 87.04 205.92 99.78 226.38"/>
      <polyline class="cls-1" points="111.81 204.6 110.4 205.26 98.36 225.72 100.49 227.04 113.23 206.58 111.81 204.6 113.23 206.58 113.94 204.6 111.81 204.6"/>
      <polyline class="cls-1" points="101.2 205.92 102.61 207.24 111.81 207.24 111.81 204.6 102.61 204.6 101.2 205.92 101.2 207.24 102.61 207.24 101.2 205.92"/>
      <polyline class="cls-1" points="102.61 184.8 101.2 186.12 101.2 205.92 104.03 205.92 104.03 186.12 102.61 184.8 104.03 186.12 104.03 184.8 102.61 184.8"/>
      <polyline class="cls-1" points="94.12 186.12 95.54 187.44 102.61 187.44 102.61 184.8 95.54 184.8 94.12 186.12 95.54 184.8 94.12 184.8 94.12 186.12"/>
      <polyline class="cls-1" points="95.54 207.24 96.95 205.92 96.95 186.12 94.12 186.12 94.12 205.92 95.54 207.24 96.95 207.24 96.95 205.92 95.54 207.24"/>
      <polyline class="cls-1" points="85.63 206.58 87.04 207.24 95.54 207.24 95.54 204.6 87.04 204.6 85.63 206.58 87.04 204.6 84.92 204.6 85.63 206.58"/>
      <polyline class="cls-1" points="100.49 227.04 100.49 225.72 87.75 205.26 85.63 206.58 98.36 227.04 100.49 227.04 98.36 227.04 99.78 228.36 100.49 227.04"/>
      <path class="cls-4" d="M73.6,250.14h-.71l-.71-.66h-2.12l-.71-.66h-1.42l-.71-.66h-.71l-.71-.66h-.71l-.71-.66v-.66h-.71l-.71-.66v-.66h-.71l-.71-.66v-.66l-.71-.66-.71-.66v-1.98l-.71-.66-.71-.66v-5.94l.71-.66v-1.32l.71-.66v-.66l.71-.66.71-.66v-1.32h.71l.71-1.32h.71l.71-1.32h.71l.71-.66v-49.5l.71-.66v-1.32h.71v-.66l.71-.66v-.66l1.42-.66h.71l.71-.66h.71l.71-.66h2.83l.71.66h.71l.71.66h1.41l.71.66v.66l.71.66.71.66v.66l.71.66v50.16l.71.66h.71l.71,1.32h1.42v1.32h.71v1.32h.71l.71,1.32v.66l.71.66.71,1.32v6.6l-.71.66v.66l-.71.66v1.32l-.71.66-.71.66v.66l-1.41,1.32c-3.26,3.42-1.86.92-3.54,2.64h-.71l-.71.66h-1.41v.66h-2.83l-.71.66h-.71"/>
      <path class="cls-6" d="M73.59,250.18h-.71l-.71-.66h-2.12l-.71-.65h-1.41l-.71-.66h-.71l-.71-.66h-.71l-.71-.66v-.65h-.71l-.71-.66v-.66h-.71l-.71-.66v-.66l-.71-.66-.71-.66v-1.98l-1.42-1.32v-5.94l.71-.66v-1.32l.71-.66v-.66l.71-.66.71-.66v-1.32h.71l.71-1.32h.71l.71-1.32h.71l.71-.66v-49.5l.71-.66v-1.32h.71v-.66l.71-.66v-.66l1.41-.66h.71l.71-.65h.71l.71-.66h2.84l.71.66h.71l.71.65h1.42l.71.66v.66l.71.66.71.66v.66l.71.66v50.16l.71.66h.71l.71,1.32h1.42v1.32h.71v1.32h.71l.71,1.32v.66l.71.66.71,1.32v6.6l-.71.66v.66l-.71.66v1.32l-.71.66-.71.66v.66l-.71.66-.71.66c-3.26,3.43-1.86.92-3.53,2.64h-.71l-.71.66h-1.41v.65h-2.83l-.71.66h-.71Z"/>
      <polyline class="cls-1" points="41.04 203.28 39.63 203.28 39.63 203.94 38.92 204.6 38.92 205.26 39.63 205.26 39.63 206.58 41.04 206.58 41.04 203.28"/>
      <rect class="cls-2" x="41.04" y="203.28" width="24.06" height="3.3"/>
      <path class="cls-1" d="M51.66,220.44h-1.42l-.71.66v1.98h.71l.71.66h.71v-3.3M65.1,206.58h1.42v-3.3h-1.42v3.3"/>
      <rect class="cls-2" x="51.66" y="220.44" width="12.74" height="3.3"/>
      <path class="cls-1" d="M51.66,216.48h-1.42l-.71.66v1.98h.71v.66h1.42v-3.3M64.4,223.74h.71v-.66h.71v-.66l.71-.66h-.71v-1.32h-1.42v3.3"/>
      <rect class="cls-2" x="51.66" y="216.48" width="12.74" height="3.3"/>
      <path class="cls-1" d="M51.66,212.52h-1.42v.66h-.71v1.98l.71.66h1.42v-3.3M64.4,219.78h.71v-.66h.71v-.66l.71-.66h-.71v-1.32h-1.42v3.3"/>
      <rect class="cls-2" x="51.66" y="212.52" width="12.74" height="3.3"/>
      <path class="cls-1" d="M51.66,208.56h-.71l-.71.66h-.71v1.98l.71.66h1.42v-3.3M64.4,215.82h1.42v-1.32h.71l-.71-.66v-.66h-.71v-.66h-.71v3.3"/>
      <rect class="cls-2" x="51.66" y="208.56" width="12.74" height="3.3"/>
      <path class="cls-1" d="M51.66,198h-.71l-.71.66v2.64h1.42v-3.3M64.4,211.86h1.42v-1.32h.71-.71v-1.32h-.71v-.66h-.71v3.3"/>
      <rect class="cls-2" x="51.66" y="198" width="13.44" height="3.3"/>
      <path class="cls-1" d="M51.66,194.04h-.71v.66h-.71v2.64h.71l.71.66v-3.96M65.1,201.3h.71l.71-.66v-1.98h-.71v-.66h-.71v3.3"/>
      <rect class="cls-2" x="51.66" y="194.04" width="13.44" height="3.96"/>
      <path class="cls-1" d="M51.66,190.08h-.71v.66h-.71v2.64h.71v.66h.71v-3.96M65.1,198v-.66h1.42v-2.64h-.71v-.66h-.71v3.96"/>
      <rect class="cls-2" x="51.66" y="190.08" width="13.44" height="3.96"/>
      <path class="cls-1" d="M51.66,186.12h-.71v.66h-.71v2.64h.71v.66h.71v-3.96M65.1,194.04l.71-.66h.71v-2.64h-.71v-.66h-.71v3.96"/>
      <rect class="cls-2" x="51.66" y="186.12" width="13.44" height="3.96"/>
      <path class="cls-1" d="M51.66,182.16l-.71.66h-.71v2.64l.71.66h.71v-3.96M65.1,190.08h.71v-.66h.71v-2.64h-.71l-.71-.66v3.96"/>
      <rect class="cls-2" x="51.66" y="182.16" width="13.44" height="3.96"/>
      <polyline class="cls-1" points="65.1 186.12 65.81 186.12 65.81 185.46 66.52 185.46 66.52 183.48 65.81 182.82 65.1 182.82 65.1 182.16 65.1 186.12"/>
      <polyline class="cls-1" points="71.47 178.86 75.72 178.86 75.72 227.7 76.43 228.36 77.84 228.36 77.84 229.02 79.26 229.02 79.26 229.68 79.96 229.68 79.96 230.34 80.68 231 80.68 231.66 82.09 232.98 82.09 236.94 81.38 236.94 81.38 238.26 80.68 238.26 80.68 239.58 79.96 239.58 79.26 240.24 79.26 240.9 78.55 240.9 77.84 241.56 77.84 242.22 75.72 242.22 75.01 242.88 72.18 242.88 71.47 242.22 69.35 242.22 69.35 241.56 68.64 241.56 68.64 240.9 67.93 240.9 67.23 240.24 67.23 239.58 66.52 239.58 66.52 238.92 65.81 238.26 65.81 237.6 65.1 236.94 65.1 232.98 65.81 232.32 66.52 231.66 66.52 230.34 67.23 229.68 67.93 229.68 67.93 229.02 68.64 229.02 69.35 228.36 70.77 228.36 71.47 227.7 71.47 178.86"/>
      <polygon class="cls-5" points="71.47 178.91 75.72 178.91 75.72 227.75 76.42 228.41 77.84 228.41 77.84 229.07 79.25 229.07 79.25 229.73 79.96 229.73 79.96 230.38 80.67 231.05 80.67 231.71 81.38 232.37 82.08 233.02 82.08 236.99 81.38 236.99 81.38 238.31 80.67 238.31 80.67 239.63 79.96 239.63 79.25 240.29 79.25 240.95 78.55 240.95 77.84 241.61 77.84 242.27 75.72 242.27 75.01 242.93 72.17 242.93 71.47 242.27 69.34 242.27 69.34 241.61 68.64 241.61 68.64 240.95 67.93 240.95 67.22 240.29 67.22 239.63 66.52 239.63 66.52 238.97 65.81 238.31 65.81 237.65 65.1 236.99 65.1 233.02 66.52 231.71 66.52 230.38 67.22 229.73 67.93 229.73 67.93 229.07 68.64 229.07 69.34 228.41 70.76 228.41 71.47 227.75 71.47 178.91"/>
    </g>
  </g>
</svg>