<?xml version="1.0" encoding="UTF-8"?>
<svg id="Layer_2" data-name="Layer 2" xmlns="http://www.w3.org/2000/svg" width="99.76" height="130.26" viewBox="0 0 99.76 130.26">
  <defs>
    <style>
      .cls-1 {
        fill: #48484a;
      }

      .cls-1, .cls-2, .cls-3 {
        fill-rule: evenodd;
        stroke-width: 0px;
      }

      .cls-2 {
        fill: #2d2b2c;
      }

      .cls-3 {
        fill: #fff;
      }
    </style>
  </defs>
  <g id="Assets">
    <g id="callout_06">
      <path class="cls-3" d="M1.43,83.74v4.65l1.42,4.65.71,3.99c2.97,11.74,12.74,21.1,23.52,27.25l4.28,1.99,4.27,1.33c13.69,3.14,29.55,1.85,41.33-5.98l4.27-2.66,3.56-2.66,2.85-3.32,2.85-3.32c7.26-9.7,9.33-22.35,7.13-33.89l-.71-3.99-.71-2.66-1.42-3.99-2.14-3.99-2.14-2.66-2.14-3.32-2.85-2.66-2.14-2.66-3.56-1.99-3.56-2-2.85-2.66-4.28-.67-3.56-1.33-4.28-1.33-.72,3.32L56.29,3.32l-14.96,35.22.72.67-4.99.66-3.56,1.33c-7.66,1.33-11.14,6.97-17.81,9.97l-2.85,3.32-2.14,3.32-2.85,3.32-1.42,3.32-2.14,3.32-1.42,3.99-.71,3.99-.71,3.99v3.99"/>
      <path class="cls-2" d="M0,83.74h1.43H0M2.14,79.75v3.99H0v-3.99h2.14M0,79.75v-.66l1.43.66H0M2.85,75.77l-.71,3.99-2.14-.66,1.43-3.32h1.42M1.43,75.77h.71-.71M3.56,71.78l-.71,3.99h-1.42l.71-3.99h1.42M4.99,67.79l-1.43,3.99h-1.42l1.42-3.99h1.43M3.56,67.79v-.67l.71.67h-.71M6.41,65.13v-.67.67l-1.42,2.66-1.43-.67,1.43-3.32,1.42,1.33M9.27,61.14l-2.85,3.99-1.42-1.33,2.14-3.32,2.14.67M7.13,60.48l.71.67-.71-.67M11.4,57.82l-2.14,3.32-2.14-.67,2.14-3.32,2.14.67M9.27,57.15l1.42.67-1.42-.67M13.54,55.16l-2.14,2.66-2.14-.67,2.85-3.32,1.42,1.33M12.12,53.83l.71.66-.71-.66M16.39,52.5l-2.85,2.66-1.42-1.33,2.85-2.66,1.43,1.33M14.96,51.17h.72-.72M19.24,49.85l-2.85,2.66-1.43-1.33,2.85-2.66,1.42,1.33M17.82,48.51l1.42.67-1.42-.67M22.8,47.19l-3.56,2.66-1.42-1.33,3.56-2.66,1.42,1.33M21.38,45.86l.71,1.33-.71-1.33M29.93,43.2l-7.13,3.99-1.42-1.33,7.13-3.99,1.42,1.33M28.51,41.87l.71.66-.71-.66M34.2,41.87l-4.28,1.33-1.42-1.33,4.99-1.33.71,1.33M33.49,40.54v.67-.67M37.77,40.54l-3.56,1.33-.71-1.33,3.56-1.99.71,1.99M37.06,38.55v1.33-1.33M42.05,39.88l-4.28.67-.71-1.99h4.99v1.33M42.05,38.55v1.33h-.72l.72-1.33,4.28.67-4.28.66v-1.33M41.33,39.88h-.71v-1.33h.71v1.33M57.01,3.99l-14.96,35.22-1.43-.67L55.58,2.66l1.43,1.33M55.58,2.66l1.43-2.66v3.32h-.72l-.71-.67M59.86,32.57l-4.28-29.24h1.43l4.28,29.24h-1.43M61.29,32.57h-.72.72M60.57,39.88l-.71-7.31h1.43l1.42,7.31h-2.14M61.29,40.54h-.72v-.67h.72v.67M65.56,41.87l-4.28-1.33.71-1.33,3.56.66v2M65.56,39.88h.71l-.71,1.33v-1.33M69.12,43.2h-.71.71v-.67.67l-3.56-1.33.71-2,3.56,1.33-.71,1.99M72.69,44.53l-3.56-1.33.71-1.99,3.56,1.33-.71,2M73.4,42.53h.71v.67h-.71v-.67M76.25,46.52l-3.56-1.99,1.42-1.33,2.85,1.33-.71,1.99M79.1,48.51l-2.85-1.99.71-1.99,3.56,2.66-1.43,1.33M81.95,51.17l-2.85-2.66,1.43-1.33,2.85,1.99-1.43,1.99M83.38,49.18v.67-.67M84.8,53.17l-2.85-2.66,1.43-.67,2.85,1.99-1.42,1.33M86.22,51.84l-.71.67.71-.67M87.65,56.49l-2.85-3.32,1.42-1.33,2.85,3.32-1.42,1.33M89.07,55.16h-.71.71M89.79,59.15l.71-.67-.71.67-2.14-3.32,1.42-.67,2.85,3.32-2.14.67M91.93,61.81l-2.14-2.66,2.14-.67,1.42,2.66-1.42.67M93.35,61.14h-.71.71M93.35,65.13h1.43-1.43l-1.42-3.32,1.42-.67,1.43,3.99h-1.43M95.49,69.12l-2.14-3.99,1.43-.67,2.14,3.99-1.42.67M96.91,68.45l-.71.67.71-.67M96.2,72.44l-.71-3.32,1.42-.67,1.43,3.32-2.14.67M98.34,71.78h-1.43,1.43M96.91,76.43l-.71-3.99,2.14-.67v3.99l-1.43.67M97.62,79.75l-.71-3.32,1.43-.67,1.42,3.99h-2.14M99.76,79.75h-1.42,1.42M97.62,83.74h.72-.72v-3.99h2.14v3.99h-2.14M97.62,88.39v-4.65h2.14v4.65h-2.14M99.76,88.39h-1.42,1.42M96.91,93.04l.71-4.65h2.14l-1.42,4.65h-1.43M98.34,93.04h-.72.72M95.49,97.03l1.42-3.99h1.43l-.72,4.65-2.14-.67M97.62,97.7l-.71-.67.71.67M94.06,101.02l1.43-3.99,2.14.67-2.14,3.99-1.43-.67M95.49,101.68h-.71.71M91.93,105.01l2.85-3.99.71.67-1.43,4.65-2.14-1.33M94.06,106.34h-.71v-.67l.71.67M89.79,108.99l2.14-3.99,1.42,1.33-2.14,3.32-1.43-.67M91.21,109.66h-.72.72M86.94,112.32l2.85-3.32,1.43.67-2.14,3.99-2.14-1.33M89.07,113.65l-1.42-.67,1.42.67M84.09,115.64l3.56-3.32,1.42,1.33-4.28,2.66-.71-.67M80.52,118.3l3.56-3.32.71,1.33-2.85,3.32-1.42-1.33M81.95,119.63l-.71-.67.71.67M76.25,120.96l4.28-2.66,1.42,1.33-4.27,2.66-1.42-1.33M77.67,122.29l-.71-.67.71.67M72.69,122.95l3.56-1.99,1.42,1.33-3.56,1.99-1.42-1.33M68.41,125.61l4.28-2.66,1.42,1.33-4.28,2.66-1.42-1.33M69.84,126.94l-.71-1.33.71,1.33M64.13,126.94l4.99-1.99.71,1.99-4.99,1.33-.72-1.33M64.85,128.27h-.72v-.66l.72.66M59.15,127.6l4.99-.67v1.33l-4.27.67-.71-1.33M59.86,128.93v-.67.67M54.87,128.27l4.99-.66v1.33l-4.28,1.33-.71-2M55.58,130.26h-.71v-1.33l.71,1.33M50.6,128.27h4.28v2h-4.28v-2M50.6,130.26v-1.33,1.33M44.89,127.6v1.33-1.33l5.7.66v2l-5.7-.67v-1.99M40.62,127.6h4.28v1.99h-4.99l.71-1.99M39.91,129.6l.71-.67-.71.67M35.63,126.94l4.99.67-.71,1.99-4.28-1.33v-1.33M35.63,128.27v-.66.66M31.36,125.61l4.99,1.33-.71,1.33-4.27-1.33v-1.33M31.36,126.94v-.67.67M27.08,122.95l4.28,2.66v1.33l-4.99-1.99.72-2M26.37,124.95l.72-.67-.72.67M22.8,120.96l4.28,1.99-.72,2-4.27-2.66.71-1.33M22.09,122.29l.71-.67-.71.67M19.96,118.3l3.56,2.66-1.43,1.33-3.56-2.66,1.43-1.33M16.39,115.64l3.56,2.66-1.43,1.33-3.56-2.66,1.43-1.33M14.96,116.97l.72-.66-.72.66M12.83,112.32l3.56,3.32-1.43,1.33-3.56-3.99,1.43-.67M11.4,112.98l.72-.67-.72.67M10.69,108.99l2.85,3.32-2.14.67-2.14-3.32,1.42-.67M9.27,109.66h.71-.71M7.84,105.01l2.85,3.99-1.42.67-2.85-3.32,1.42-1.33M6.41,106.34l.71-.67-.71.67M6.41,101.68l1.42,3.32-1.42,1.33-2.14-3.99,2.14-.67M4.28,102.35l.72-.67-.72.67M4.28,97.03l2.14,4.65-2.14.67-1.42-4.65,1.42-.67M2.85,97.7l.71-.67-.71.67M3.56,93.04l.71,3.99-1.42.67-1.42-4.65h2.14M1.43,93.04h1.42-1.42M2.85,88.39l.71,4.65H1.43l-.71-3.99,2.14-.67M.72,89.06l.71-.67-.71.67M2.14,83.74l.71,4.65-2.14.67-.72-5.32h2.14"/>
      <path class="cls-1" d="M72.69,93.04v-27.25h4.99l.71.67h1.43v.67l.71.67v.66l.71.67v21.27l-.71.67v.66l-.71.67h-.72l-.71.67h-5.7M72.69,55.16l-1.43,1.99-2.14,1.33-1.43,2.66-2.14,1.33-1.43,1.99-1.42,1.99-2.14,1.33-1.42,1.99-2.14,1.99-1.43,1.33-2.14,1.33-1.43,1.33-1.42,1.99-2.14,1.33-2.14,1.33-2.14,1.33-2.14,1.33c-6.65,6.19-17.16,9.72-25.65,13.96l-2.85,1.33-2.14.67,61.29-.67v-2.66h6.41c2.82-.13,1.42.65,3.56-1.33h.72v-.66l1.42-1.33v-25.92h-.71v-.67l-.71-.66v-.67l-.72-.67h-1.42l-.71-.67h-7.84v-7.97"/>
      <path class="cls-1" d="M11.4,98.36l.72,1.33,2.14-.66,2.14-.67,2.14-1.33,2.14-.66,2.14-1.33,2.14-.67,2.14-1.33,2.14-.67,2.14-1.33c2.81-2.27,6.83-2.86,9.26-5.98l2.85-1.33,1.42-1.33,2.14-1.33,2.14-1.33,1.43-1.99,2.14-.67,2.14-1.99,1.42-1.33,1.43-2,2.14-1.33c1.77-3.4,6.78-5.9,8.55-9.31l1.42-1.33,1.42-1.99,2.14-2.66-2.14-.67-1.42,2-1.42,1.99c-6.84,7.66-13.97,15.49-22.81,21.26l-2.14,1.33-1.42,1.33-2.14,1.33-1.42,1.33-2.14.66-2.14,1.33-2.14,1.33-2.14,1.33-1.42,1.33c-3.63,1.33-7.33,2.51-10.69,4.65l-2.14.67-2.14.66-2.14,1.33v1.33-1.33h-.71v1.33h1.43l-.72-1.33"/>
      <polyline class="cls-1" points="73.4 98.36 72.69 97.7 11.4 98.36 11.4 99.69 72.69 99.69 73.4 98.36 72.69 99.69 72.69 99.03 73.4 99.03 73.4 98.36 72.69 97.7 73.4 98.36"/>
      <polyline class="cls-1" points="72.69 95.04 71.26 95.7 71.26 98.36 73.4 98.36 73.4 95.7 72.69 95.04 73.4 95.7 73.4 95.04 71.26 95.04 71.26 95.7 72.69 95.04"/>
      <polyline class="cls-1" points="72.69 95.04 72.69 97.03 73.4 97.03 73.4 96.37 74.11 95.7 73.4 95.7 73.4 95.04 72.69 95.04"/>
      <polyline class="cls-1" points="79.1 97.03 79.1 95.04 72.69 95.04 72.69 97.03 79.1 97.03 79.81 96.37 80.52 95.7 79.81 95.7 79.81 95.04 79.1 95.04 79.1 97.03"/>
      <polyline class="cls-1" points="83.38 91.05 83.38 93.04 82.66 93.04 82.66 93.71 81.95 94.37 80.52 94.37 80.52 95.04 79.1 95.04 79.1 97.03 79.81 97.03 80.52 96.37 81.95 96.37 81.95 95.7 83.38 95.7 83.38 95.04 84.09 94.37 84.8 94.37 84.8 93.04 85.51 93.04 85.51 90.39 84.09 90.39 84.09 91.05 83.38 91.05"/>
      <polyline class="cls-1" points="85.51 67.79 83.38 67.79 83.38 91.05 85.51 91.05 85.51 67.13 84.09 67.13 84.09 67.79 83.38 67.79 85.51 67.79"/>
      <path class="cls-1" d="M79.1,63.8h1.43v.67h1.42v.67h.71l.72.66v2h2.14v-1.33l-.71-.67v-1.33h-.71c-3-2.68-1.07-1.88-4.99-1.99h-.71v1.33h.71"/>
      <polyline class="cls-1" points="72.69 62.47 72.69 63.8 79.1 63.8 79.1 62.47 71.97 62.47 71.97 63.8 72.69 63.8 72.69 62.47"/>
      <polyline class="cls-1" points="71.26 63.14 72.69 63.8 72.69 62.47 73.4 63.14 72.69 62.47 71.26 62.47 71.26 63.8 72.69 63.8 71.26 63.14"/>
      <path class="cls-1" d="M72.69,65.13l-1.43.66v27.25h2.14v-27.25l-.71-.66.71.66v-.66h-2.14v.66l1.43-.66M71.26,54.5v8.64h2.14v-7.97l-2.14-.67,2.14.67v-.67h-.71v-.66h-.71v.66h-.72v.67-.67"/>
      <polyline class="cls-1" points="76.96 66.46 76.96 65.13 72.69 65.13 72.69 66.46 77.67 66.46 77.67 65.13 76.96 65.13 76.96 66.46"/>
      <polyline class="cls-1" points="81.95 69.78 81.95 67.79 81.24 67.13 81.24 66.46 80.52 66.46 79.81 65.79 79.1 65.13 76.96 65.13 76.96 66.46 77.67 66.46 78.39 67.13 79.1 67.13 79.1 67.79 79.81 67.79 79.81 68.45 80.52 69.12 80.52 70.45 81.95 70.45 81.95 69.78"/>
      <polyline class="cls-1" points="80.52 89.06 81.95 89.06 81.95 69.78 80.52 69.78 80.52 89.72 81.95 89.72 81.95 89.06 80.52 89.06"/>
      <polyline class="cls-1" points="76.96 93.71 78.39 93.71 79.1 93.04 80.52 93.04 80.52 92.38 81.24 92.38 81.24 91.71 81.95 91.71 81.95 89.06 80.52 89.06 80.52 90.39 79.81 91.05 79.1 91.05 79.1 91.71 78.39 91.71 78.39 92.38 76.25 92.38 76.25 93.71 76.96 93.71"/>
      <polyline class="cls-1" points="71.26 93.04 72.69 93.71 76.96 93.71 76.96 92.38 72.69 92.38 71.26 93.04 72.69 92.38 71.26 92.38 71.26 93.71 72.69 93.71 71.26 93.04"/>
    </g>
  </g>
</svg>