<?xml version="1.0" encoding="UTF-8"?>
<svg id="Layer_2" data-name="Layer 2" xmlns="http://www.w3.org/2000/svg" width="114.08" height="230.23" viewBox="0 0 114.08 230.23">
  <defs>
    <style>
      .cls-1 {
        stroke: #fff;
      }

      .cls-1, .cls-2, .cls-3 {
        fill: none;
        stroke-miterlimit: 10;
      }

      .cls-1, .cls-3 {
        stroke-width: .69px;
      }

      .cls-4, .cls-5 {
        fill: #2d2b2c;
      }

      .cls-4, .cls-5, .cls-6 {
        stroke-width: 0px;
      }

      .cls-2 {
        stroke: #353435;
        stroke-width: 2.76px;
      }

      .cls-5, .cls-6 {
        fill-rule: evenodd;
      }

      .cls-3 {
        stroke: #2d2b2c;
      }

      .cls-6 {
        fill: #fff;
      }
    </style>
  </defs>
  <g id="Assets">
    <g id="callout_07">
      <polyline class="cls-6" points="65.81 136.16 60.09 6.08 44.35 127.49 65.81 136.16"/>
      <rect class="cls-4" y="180.86" width="2.15" height="5.34"/>
      <polyline class="cls-5" points="2.15 186.2 2.15 190.21 .71 190.87 0 186.2 2.15 186.2"/>
      <polyline class="cls-5" points="2.15 190.21 3.58 194.87 1.43 194.87 .71 190.87 2.15 190.21"/>
      <polyline class="cls-5" points="3.58 194.87 5.01 198.87 2.86 200.21 1.43 194.87 3.58 194.87"/>
      <polyline class="cls-5" points="2.86 200.21 3.58 199.54 2.86 200.21"/>
      <polyline class="cls-5" points="5.01 198.87 6.44 202.88 5.01 203.55 2.86 200.21 5.01 198.87"/>
      <polyline class="cls-5" points="5.01 204.21 5.01 203.55 5.72 203.55 5.01 204.21"/>
      <polyline class="cls-5" points="6.44 202.88 9.3 206.88 7.15 208.22 5.01 204.21 6.44 202.88"/>
      <polyline class="cls-5" points="7.15 208.22 7.15 207.55 7.15 208.22 7.87 207.55 7.15 208.22"/>
      <polyline class="cls-5" points="9.3 206.88 10.73 210.22 9.3 211.55 7.15 208.22 9.3 206.88"/>
      <polyline class="cls-5" points="9.3 211.55 10.73 210.88 9.3 211.55"/>
      <polyline class="cls-5" points="10.73 210.22 14.31 214.22 12.88 214.89 9.3 211.55 10.73 210.22"/>
      <polyline class="cls-5" points="12.88 214.89 13.59 214.22 12.88 214.89"/>
      <polyline class="cls-5" points="14.31 214.22 17.17 216.89 15.74 218.22 12.88 214.89 14.31 214.22"/>
      <polyline class="cls-5" points="17.17 216.89 20.75 219.56 20.03 220.89 15.74 218.22 17.17 216.89"/>
      <polyline class="cls-5" points="20.75 219.56 25.04 222.22 24.32 223.56 20.03 220.89 20.75 219.56"/>
      <polyline class="cls-5" points="25.04 222.22 29.33 224.23 28.61 226.23 24.32 223.56 25.04 222.22"/>
      <polyline class="cls-5" points="28.61 224.23 33.62 226.23 32.19 227.56 28.61 226.23 28.61 224.23"/>
      <polyline class="cls-5" points="32.19 227.56 32.91 226.9 32.19 227.56"/>
      <polyline class="cls-5" points="32.91 226.23 37.91 226.9 37.2 228.9 32.19 227.56 32.91 226.23"/>
      <polyline class="cls-5" points="37.91 226.9 42.2 227.56 42.2 229.56 37.2 228.9 37.91 226.9"/>
      <polyline class="cls-5" points="42.2 227.56 47.93 228.23 47.21 230.23 42.2 229.56 42.2 227.56"/>
      <polyline class="cls-5" points="47.93 230.23 47.21 230.23 47.93 229.56 47.93 230.23"/>
      <rect class="cls-4" x="47.93" y="228.23" width="4.29" height="2"/>
      <polyline class="cls-5" points="52.22 228.23 57.22 228.23 57.22 229.56 52.22 230.23 52.22 228.23"/>
      <polyline class="cls-5" points="56.51 228.23 61.52 226.9 61.52 228.9 57.22 229.56 56.51 228.23"/>
      <polyline class="cls-5" points="61.52 226.9 66.53 226.23 67.24 227.56 61.52 228.9 61.52 226.9"/>
      <polyline class="cls-5" points="67.24 227.56 66.53 226.9 67.24 227.56"/>
      <polyline class="cls-5" points="65.81 226.23 70.1 224.23 70.82 225.56 67.24 227.56 65.81 226.23"/>
      <polyline class="cls-5" points="70.1 224.23 74.39 222.22 75.11 223.56 70.82 225.56 70.1 224.23"/>
      <polyline class="cls-5" points="74.39 222.22 78.68 219.56 79.4 220.89 75.11 223.56 74.39 222.22"/>
      <polyline class="cls-5" points="78.68 219.56 82.26 216.89 83.69 218.22 79.4 220.89 78.68 219.56"/>
      <polyline class="cls-5" points="82.26 216.89 85.12 214.22 86.55 215.56 83.69 218.22 82.26 216.89"/>
      <polyline class="cls-5" points="85.12 214.22 87.99 210.88 89.41 211.55 86.55 215.56 85.12 214.22"/>
      <polyline class="cls-5" points="87.99 210.88 90.84 206.88 92.28 208.22 89.41 211.55 87.99 210.88"/>
      <polyline class="cls-5" points="92.28 208.22 91.56 207.55 92.28 208.22"/>
      <polyline class="cls-5" points="90.84 206.88 92.99 203.55 94.42 204.21 92.28 208.22 90.84 206.88"/>
      <polyline class="cls-5" points="92.99 203.55 95.14 199.54 96.57 200.21 94.42 204.21 92.99 203.55"/>
      <polyline class="cls-5" points="96.57 200.21 95.85 199.54 96.57 200.21"/>
      <polyline class="cls-5" points="94.42 199.54 96.57 194.87 98 195.54 96.57 200.21 94.42 199.54"/>
      <polyline class="cls-5" points="96.57 194.87 97.28 190.87 99.43 191.54 98 195.54 96.57 194.87"/>
      <polyline class="cls-5" points="99.43 190.87 99.43 191.54 98.71 190.87 99.43 190.87"/>
      <rect class="cls-4" x="97.28" y="186.2" width="2.15" height="4.67"/>
      <polyline class="cls-5" points="97.28 186.2 98 182.2 100.15 182.2 99.43 186.2 97.28 186.2"/>
      <polyline class="cls-5" points="98 182.2 97.28 178.2 99.43 178.2 100.15 182.2 98 182.2"/>
      <polyline class="cls-5" points="99.43 178.2 98.71 173.52 99.43 178.2 98.71 178.2 99.43 178.2"/>
      <polyline class="cls-5" points="97.28 178.2 96.57 174.86 98.71 174.19 99.43 178.2 97.28 178.2"/>
      <polyline class="cls-5" points="98.71 174.19 98.71 174.86 98.71 174.19 97.28 174.86 98.71 174.19"/>
      <polyline class="cls-5" points="96.57 174.86 95.85 170.86 98 170.86 98.71 174.19 96.57 174.86"/>
      <polyline class="cls-5" points="95.85 171.52 94.42 167.52 95.85 166.86 98 170.86 95.85 171.52"/>
      <polyline class="cls-5" points="94.42 167.52 95.14 166.86 94.42 167.52"/>
      <polyline class="cls-5" points="94.42 167.52 92.99 164.19 94.42 163.52 95.85 166.86 94.42 167.52"/>
      <polyline class="cls-5" points="92.99 164.19 91.56 161.52 92.99 160.18 94.42 162.85 92.99 164.19"/>
      <polyline class="cls-5" points="91.56 161.52 88.7 157.51 90.13 156.85 92.99 160.18 91.56 161.52"/>
      <polyline class="cls-5" points="88.7 157.51 86.55 154.85 87.99 154.18 90.13 156.85 88.7 157.51"/>
      <polyline class="cls-5" points="87.99 153.51 87.99 154.18 87.27 154.18 87.99 153.51"/>
      <polyline class="cls-5" points="86.55 154.85 84.41 152.18 85.84 151.51 87.99 153.51 86.55 154.85"/>
      <polyline class="cls-5" points="85.12 150.84 85.84 151.51 85.12 151.51 85.12 150.84"/>
      <polyline class="cls-5" points="84.41 152.18 80.83 150.17 82.26 148.84 85.12 150.84 84.41 152.18"/>
      <polyline class="cls-5" points="80.83 150.17 77.97 147.51 79.4 146.17 82.26 148.84 80.83 150.17"/>
      <polyline class="cls-5" points="77.97 147.51 75.11 144.84 75.82 143.51 79.4 146.17 77.97 147.51"/>
      <polyline class="cls-5" points="75.82 143.51 75.11 144.84 75.82 143.51"/>
      <polyline class="cls-5" points="75.11 145.51 70.82 143.51 72.25 142.17 75.82 143.51 75.11 145.51"/>
      <polyline class="cls-5" points="70.82 143.51 71.53 142.84 70.82 143.51"/>
      <polyline class="cls-5" points="70.82 143.51 67.95 142.17 68.67 140.84 72.25 142.17 70.82 143.51"/>
      <polyline class="cls-5" points="67.95 142.17 63.66 141.5 64.38 139.5 68.67 140.84 67.95 142.17"/>
      <polyline class="cls-5" points="63.66 141.5 62.95 140.84 62.95 140.17 64.38 140.17 63.66 141.5"/>
      <polyline class="cls-5" points="62.95 140.17 62.95 132.83 64.38 132.83 65.1 140.17 62.95 140.17"/>
      <path class="cls-5" d="M42.2,137.5v-.67l1.43.67h-1.43M62.95,132.83h.71-.71"/>
      <polyline class="cls-5" points="43.64 136.16 45.06 138.17 43.64 138.83 42.2 137.5 43.64 136.16"/>
      <polyline class="cls-5" points="45.06 138.17 46.5 138.83 44.35 139.5 44.35 138.83 45.06 138.17"/>
      <polyline class="cls-5" points="44.35 139.5 40.06 140.17 39.34 138.17 44.35 137.5 44.35 139.5"/>
      <polyline class="cls-5" points="40.06 140.17 36.48 140.84 35.77 139.5 39.34 138.17 40.06 140.17"/>
      <polyline class="cls-5" points="35.05 139.5 35.77 139.5 35.77 140.17 35.05 139.5"/>
      <polyline class="cls-5" points="36.48 140.84 31.48 142.17 31.48 140.84 35.05 139.5 36.48 140.84"/>
      <polyline class="cls-5" points="32.19 142.17 24.32 146.17 23.6 144.84 31.48 140.84 32.19 142.17"/>
      <polyline class="cls-5" points="24.32 146.17 20.75 148.17 20.03 146.17 23.6 144.84 24.32 146.17"/>
      <polyline class="cls-5" points="21.46 148.17 17.88 150.17 16.45 148.84 20.03 146.84 21.46 148.17"/>
      <polyline class="cls-5" points="16.45 148.84 17.17 149.51 16.45 148.84"/>
      <polyline class="cls-5" points="17.88 150.17 15.02 152.85 13.59 151.51 16.45 148.84 17.88 150.17"/>
      <polyline class="cls-5" points="13.59 151.51 14.31 152.85 13.59 151.51"/>
      <polyline class="cls-5" points="15.02 152.85 12.16 156.18 10.73 154.85 13.59 151.51 15.02 152.85"/>
      <polyline class="cls-5" points="10.73 154.85 12.16 155.51 10.73 154.85"/>
      <polyline class="cls-5" points="12.88 156.18 10.02 158.85 8.58 158.18 10.73 154.85 12.88 156.18"/>
      <polyline class="cls-5" points="8.58 158.18 9.3 158.85 8.58 158.18"/>
      <polyline class="cls-5" points="10.02 158.85 7.87 162.85 6.44 161.52 8.58 158.18 10.02 158.85"/>
      <polyline class="cls-5" points="7.87 162.85 7.15 162.18 7.87 162.85"/>
      <polyline class="cls-5" points="7.87 162.85 5.72 165.52 4.29 164.85 6.44 161.52 7.87 162.85"/>
      <polyline class="cls-5" points="3.58 164.85 4.29 164.85 5.01 165.52 3.58 164.85"/>
      <polyline class="cls-5" points="5.72 165.52 4.29 169.52 2.15 169.52 3.58 164.85 5.72 165.52"/>
      <polyline class="cls-5" points="2.15 169.52 2.15 170.86 2.15 169.52 3.58 169.52 2.15 169.52"/>
      <polyline class="cls-5" points="4.29 169.52 2.86 173.52 1.43 172.86 2.15 169.52 4.29 169.52"/>
      <polyline class="cls-5" points=".71 173.52 .71 172.86 1.43 172.86 2.15 173.52 .71 173.52"/>
      <polyline class="cls-5" points="2.86 173.52 2.15 176.86 .71 176.86 .71 173.52 2.86 173.52"/>
      <polyline class="cls-5" points="2.15 176.86 2.15 180.86 0 180.86 .71 176.86 2.15 176.86"/>
      <path class="cls-5" d="M61.52,148.84h-3.58l-4.3-1.34h-7.15l-7.15,1.34-4.29,1.33-2.86,2-3.58.67-2.86,2.67-2.86,2-2.86,2.67-1.43,2.67-2.86,3.34-2.86,6.67-.72,4-1.43,6.67.71,4,.71,3.34v3.34l1.43,3.34,2.14,3.34,1.43,2.67,2.86,3.34,2.14,2,2.86,2.67,3.58,2,2.86,2,3.58,2,2.86.67,4.29,1.33,4.3.67h7.15l3.58-.67,4.3-.66,7.15-2.67,2.15-2,3.58-1.33,2.86-2.67,2.86-2.67,2.14-2.67,1.43-3.33,2.86-2.67.71-4,1.43-3.34v-14.68l-1.43-3.34-.71-3.34c-3.47-6.94-5.73-8.82-11.44-14.01l-2.86-2-2.86-2-3.58-1.34-4.29-2M0,180.86h.71-.71"/>
      <path class="cls-1" d="M60.8,152.89l-3.57-1.33h-3.58l-2.86-.67c-16.89,1.49-24.89,6.37-33.62,20.01l-.71,3.34-1.43,2.67v10.01l.71,3.34.72,3.33.71,2.67,1.43,2.67c2.91,4.69,6.35,9.13,11.45,12.01l2.86,2,3.57,1.33,2.86,1.34,3.58.67,3.57.66c13.63,1.19,27.72-5.76,34.33-16.68l2.86-6.67,1.43-3.33v-2.67l.71-3.34-.71-3.33v-3.34l-.71-2.67-1.43-3.33c-4.69-9.7-1.83-4.58-10.01-12.67l-2.15-2-3.57-1.33-2.87-2-3.57-.67Z"/>
      <polygon class="cls-1" points="55.08 168.23 48.64 168.23 45.07 168.9 42.2 169.57 39.35 171.57 36.48 173.57 35.05 176.24 33.62 178.91 32.91 182.24 32.91 184.91 33.62 188.91 35.05 191.58 36.48 194.25 39.35 196.25 42.2 197.58 45.07 199.58 48.64 200.25 52.22 200.25 55.08 199.58 57.94 198.25 61.52 196.92 62.95 194.25 65.09 192.25 67.24 188.91 67.24 179.57 65.81 176.24 63.66 174.24 61.52 171.57 58.66 169.57 55.08 168.23"/>
      <polyline class="cls-6" points="108.73 172.19 73.68 176.19 70.1 176.86 67.24 176.19 61.52 174.86 57.22 173.52 55.79 172.19 52.22 172.19 49.36 171.52 43.64 172.86 42.2 174.86 40.06 176.19 38.63 178.2 37.91 180.2 37.2 182.86 36.48 184.86 37.91 187.53 37.91 189.54 40.06 191.54 41.49 193.54 43.64 194.87 46.5 195.54 49.36 196.21 52.22 196.21 55.08 195.54 57.22 193.54 60.09 192.21 68.67 186.87 71.53 186.2 75.11 185.53 75.11 184.86 109.44 180.86 110.88 180.86 112.3 180.2 113.02 179.53 113.73 178.2 113.73 174.86 112.3 173.52 110.88 172.86 108.73 172.19"/>
      <path class="cls-3" d="M54.36,172.24h-2.15l-2.86-.67-5.72,1.34-1.43,2-2.14,1.33-1.43,2-.72,2-.71,2.66-.71,2.01,1.43,2.66c.41,6,8.34,9.23,14.31,8.68l2.86-.67,2.14-2"/>
      <line class="cls-3" x1="55.79" y1="172.24" x2="54.36" y2="172.24"/>
      <line class="cls-3" x1="110.87" y1="172.91" x2="108.73" y2="172.24"/>
      <polyline class="cls-3" points="109.44 180.91 110.87 180.91 112.3 180.25 113.73 178.92 113.73 174.91 112.3 173.57 110.87 172.91"/>
      <polyline class="cls-3" points="52.93 190.92 64.38 186.92 70.81 186.25 109.44 180.91"/>
      <polyline class="cls-3" points="50.78 176.91 55.79 176.91 62.94 177.58 70.1 176.91 108.72 172.24"/>
      <polyline class="cls-5" points="57.22 194.21 62.95 190.21 65.81 188.87 68.67 186.87 71.53 186.2 75.11 185.53 57.22 194.21"/>
      <polyline class="cls-3" points="57.22 194.25 62.94 190.25 65.81 188.91 68.67 186.91 71.53 186.24 75.1 185.58"/>
      <polyline class="cls-5" points="55.79 172.19 57.22 173.52 61.52 174.86 67.24 176.19 70.1 176.86 73.68 176.19 55.79 172.19"/>
      <polyline class="cls-3" points="55.79 172.24 57.23 173.57 61.51 174.91 67.24 176.24 70.1 176.91 73.68 176.24"/>
      <polyline class="cls-5" points="44.35 137.5 57.22 .07 44.35 137.5"/>
      <line class="cls-2" x1="44.35" y1="137.55" x2="57.22" y2=".13"/>
      <polyline class="cls-5" points="62.95 138.17 58.66 .07 62.95 138.17"/>
      <line class="cls-2" x1="62.94" y1="138.22" x2="58.65" y2=".13"/>
    </g>
  </g>
</svg>