<?xml version="1.0" encoding="UTF-8"?>
<svg id="Layer_2" data-name="Layer 2" xmlns="http://www.w3.org/2000/svg" width="205.09" height="260.41" viewBox="0 0 205.09 260.41">
  <defs>
    <style>
      .cls-1 {
        fill: #48484a;
      }

      .cls-1, .cls-2 {
        fill-rule: evenodd;
        stroke-width: 0px;
      }

      .cls-2 {
        fill: #fff;
      }

      .cls-3 {
        fill: none;
        stroke: #231f20;
        stroke-miterlimit: 10;
        stroke-width: 1.42px;
      }
    </style>
  </defs>
  <g id="Assets">
    <g id="callout_04">
      <polyline class="cls-1" points="151.26 88.56 152.73 89.93 157.14 89.93 157.14 86.5 152.73 86.5 151.26 88.56 152.73 86.5 152 86.5 151.26 87.19 151.26 89.93 152.73 89.93 151.26 88.56"/>
      <path class="cls-2" d="M136.56,89.93L.6,259.91,116.72,76.91l-5.14-6.85-3.67-6.86C91.9,19.55,141.63-15.47,182.12,8.37l4.41,2.74,2.94,2.74c31.48,29.4,9.88,78.26-34.54,79.51l-9.55-.69-8.82-2.74"/>
      <path class="cls-3" d="M136.56,89.99L.6,259.96,116.71,76.97l-5.14-6.85-3.67-6.85C91.89,19.51,141.73-15.37,182.12,8.43l4.41,2.74,2.94,2.74c31.52,29.47,9.79,78.28-34.54,79.51l-9.55-.69-8.82-2.74"/>
      <polyline class="cls-2" points="154.93 20.7 183.6 61.83 126.27 61.83 154.93 20.7"/>
      <polyline class="cls-1" points="183.6 64.57 186.54 59.77 157.14 19.33 152.73 22.08 181.39 63.2 183.6 64.57 181.39 63.2 182.12 63.2 182.12 63.89 183.6 63.89 183.6 64.57 184.33 64.57 184.33 63.89 185.8 63.89 185.8 63.2 186.54 63.2 186.54 59.77 183.6 64.57"/>
      <polyline class="cls-1" points="124.07 59.77 126.27 64.57 183.6 64.57 183.6 59.09 126.27 59.09 124.07 59.77 126.27 59.09 124.07 59.09 124.07 59.77 123.33 60.46 123.33 62.51 124.07 63.2 124.8 63.89 125.54 63.89 125.54 64.57 126.27 64.57 124.07 59.77"/>
      <path class="cls-1" d="M154.93,64.57l7.35,11.65h-5.14v12.33h-4.41v-12.33h-5.15l7.35-11.65M157.14,19.33h-4.41l-28.66,40.44,4.41,3.43,28.66-41.12v-2.74,2.74l.73-.69v-2.06l-.73-.69h-.73v-.69h-2.21l-.73.69h-.73v.69h4.41"/>
      <polyline class="cls-1" points="162.28 78.28 163.75 75.54 156.4 63.89 153.46 65.94 160.81 77.59 162.28 78.28 160.81 77.59 161.55 77.59 161.55 78.28 163.02 78.28 163.75 77.59 163.75 76.91 164.49 76.91 164.49 76.22 163.75 76.22 163.75 75.54 162.28 78.28"/>
      <polyline class="cls-1" points="154.93 76.22 157.14 78.28 162.28 78.28 162.28 74.85 157.14 74.85 154.93 76.22 157.14 74.85 155.67 74.85 154.93 75.54 154.93 77.59 156.4 77.59 156.4 78.28 157.14 78.28 154.93 76.22"/>
      <polyline class="cls-1" points="157.14 89.93 159.34 88.56 159.34 76.22 154.93 76.22 154.93 88.56 157.14 89.93 154.93 88.56 154.93 89.24 155.67 89.24 155.67 89.93 158.61 89.93 158.61 88.56 159.34 88.56 157.14 89.93"/>
      <polyline class="cls-1" points="152.73 74.85 151.26 76.22 151.26 88.56 154.93 88.56 154.93 76.22 152.73 74.85 154.93 76.22 154.93 75.54 154.2 74.85 151.26 74.85 151.26 76.22 152.73 74.85"/>
      <polyline class="cls-1" points="146.11 75.54 147.58 78.28 152.73 78.28 152.73 74.85 147.58 74.85 146.11 75.54 147.58 74.85 146.11 74.85 146.11 75.54 145.38 76.22 145.38 76.91 146.11 76.91 146.11 77.59 146.85 77.59 146.85 78.28 147.58 78.28 146.11 75.54"/>
      <path class="cls-1" d="M169.63,33.73l6.62-12.34,2.94,4.11,10.29-6.17,2.21,2.74-10.29,6.86,2.94,4.11-14.7.69M156.4,63.89h-2.94l-7.35,11.65,3.67,2.06,6.62-11.65v-2.06,2.06-1.37h.73-.73v-1.37h-2.94v.69h2.94"/>
      <polyline class="cls-1" points="177.71 20.7 174.77 20.7 168.16 33.04 171.1 34.41 177.71 22.08 177.71 20.7 177.71 22.08 177.71 20.02 174.77 20.02 174.77 20.7 177.71 20.7"/>
      <path class="cls-1" d="M179.92,27.56l.73-2.74-2.94-4.11-2.94,1.37,2.94,4.11,2.21,1.37-2.21-1.37v1.37h.73c1.95.21,2.43-.25,2.21-2.05v-.69l-.73,2.74"/>
      <polyline class="cls-1" points="190.94 18.65 188 17.96 177.71 24.13 179.92 27.56 190.94 20.7 190.94 18.65 190.94 20.7 190.94 20.02 191.68 20.02 191.68 19.33 190.94 18.65 190.94 17.96 190.21 17.96 190.21 17.28 188.74 17.28 188.74 17.96 188 17.96 190.94 18.65"/>
      <polyline class="cls-1" points="192.41 24.13 193.15 21.39 190.94 18.65 188 20.02 190.21 23.44 192.41 24.13 190.21 23.44 190.94 24.13 191.68 24.13 191.68 24.82 191.68 24.13 193.15 24.13 193.15 21.39 192.41 24.13"/>
      <polyline class="cls-1" points="179.19 30.3 182.12 30.3 192.41 24.13 190.94 20.7 180.65 27.56 179.19 30.3 180.65 27.56 179.19 27.56 179.19 30.3 180.65 30.3 180.65 30.99 181.39 30.99 182.12 30.3 179.19 30.3"/>
      <polyline class="cls-1" points="184.33 35.1 185.8 31.67 182.86 27.56 179.19 30.3 182.12 34.41 184.33 35.1 182.12 34.41 183.6 34.41 183.6 35.1 184.33 35.1 184.33 34.41 185.8 34.41 185.8 33.73 186.54 33.73 186.54 33.04 185.8 32.35 185.8 31.67 184.33 35.1"/>
      <path class="cls-1" d="M140.97,34.41l-6.62-12.34-2.94,4.11-10.29-6.17-2.94,2.74,11.02,6.17-2.94,4.11,14.7,1.37M168.16,33.04l1.47,2.74,14.7-.68-.73-3.43h-13.96l-1.47,1.37,1.47-1.37h-1.47v1.37h-.73v1.37h.73v1.37h1.47l-1.47-2.74"/>
      <polyline class="cls-1" points="132.89 20.7 132.89 22.76 138.76 35.1 142.44 33.04 135.82 20.7 132.89 20.7 135.82 20.7 135.09 20.7 135.09 20.02 132.89 20.02 132.89 20.7 132.15 21.39 132.15 22.08 132.89 22.76 132.89 20.7"/>
      <polyline class="cls-1" points="129.95 27.56 132.89 26.87 135.82 22.76 132.89 20.7 129.95 24.82 129.95 27.56 129.95 24.82 129.95 25.5 129.21 25.5 129.21 26.19 129.95 26.87 129.95 27.56 132.89 27.56 132.89 26.87 129.95 27.56"/>
      <polyline class="cls-1" points="118.92 18.65 119.66 20.7 129.95 27.56 132.15 24.82 121.86 18.65 118.92 18.65 121.86 18.65 121.13 18.65 121.13 17.96 120.39 17.96 119.66 18.65 118.92 18.65 118.92 20.7 119.66 20.7 118.92 18.65"/>
      <polyline class="cls-1" points="117.45 24.82 119.66 24.13 122.6 20.7 118.92 18.65 117.45 22.08 117.45 24.82 117.45 22.08 116.72 22.08 116.72 23.44 117.45 24.13 117.45 24.82 119.66 24.82 119.66 24.13 117.45 24.82"/>
      <polyline class="cls-1" points="130.68 30.3 129.95 27.56 119.66 21.39 117.45 24.82 127.74 30.99 130.68 30.3 127.74 30.99 129.95 30.99 131.41 29.61 131.41 28.93 130.68 28.93 130.68 28.24 129.95 27.56 130.68 30.3"/>
      <polyline class="cls-1" points="126.27 35.1 127.74 34.41 130.68 30.3 127.01 28.24 124.07 32.35 126.27 35.1 124.07 32.35 124.07 34.41 124.8 34.41 125.54 35.1 127.01 35.1 127.74 34.41 126.27 35.1"/>
      <path class="cls-1" d="M153.46,56.34l.73-.68h.73v-.69l.74-.69-.74-1.37-.73-.68-.73-.69-.73.69-.73.68h-.74v2.06l.74.69h.73l.73.68M154.93,48.81v-15.77h-2.94l.73,15.77h2.2M142.44,33.04l-1.47-.69-14.7-.68v3.43l14.7.68,1.47-2.74-1.47,2.74h1.47v-2.74h-.73v-.69h-.73l1.47.69"/>
    </g>
  </g>
</svg>