<?xml version="1.0" encoding="UTF-8"?>
<svg id="Layer_2" data-name="Layer 2" xmlns="http://www.w3.org/2000/svg" width="105.24" height="212.99" viewBox="0 0 105.24 212.99">
  <defs>
    <style>
      .cls-1 {
        fill: none;
        stroke: #231f20;
        stroke-miterlimit: 10;
        stroke-width: 2.23px;
      }

      .cls-2 {
        fill: #fff;
      }

      .cls-2, .cls-3 {
        fill-rule: evenodd;
        stroke-width: 0px;
      }

      .cls-3 {
        fill: #231f20;
      }
    </style>
  </defs>
  <g id="Assets">
    <g id="callout_02b">
      <path class="cls-2" d="M2.79,176.16l2.25,4.89,1.5,4.19,3,4.19c6.51,9.85,19.1,18.62,31.47,20.96l5.24,1.4h4.49c14.85.57,31.84-5,40.46-16.77l3.75-3.49,2.25-3.49,3-4.19,1.5-4.19c2.84-11.56,4.44-24.96-2.25-35.63l-2.25-4.19-1.5-2.79c-7.33-10.1-18.27-16.82-30.72-20.26h-4.49l-4.49-.7h-3.75L35,.09l-3.75,120.18h.75l-4.49,2.09-3.75,2.09c-6.17,4.23-11.11,9.75-15.73,15.37l-1.5,3.49-1.5,3.49c-2.39,7.66-4.57,12.82-3.75,20.96l.75,4.19.75,4.19"/>
      <path class="cls-1" d="M2.79,176.21l2.25,4.89,1.49,4.19,3,4.19c6.52,9.87,19.12,18.63,31.46,20.96l5.24,1.39h4.49c14.83.57,31.84-4.98,40.46-16.77l3.75-3.49,2.24-3.5,3-4.19,1.49-4.19c2.84-11.56,4.44-24.97-2.25-35.63l-2.25-4.19-1.49-2.8c-7.34-10.12-18.28-16.82-30.72-20.26h-4.5l-4.49-.7h-3.75l-3-7.68L35,.15l-3.74,120.17h.75l-4.5,2.09-3.74,2.1-3.74,2.8-6,5.59-5.99,6.98-1.5,3.5-1.49,3.49c-2.39,7.66-4.57,12.81-3.75,20.96l.75,4.2.75,4.19"/>
      <polyline class="cls-3" points="64.97 165.68 71.72 165.68 51.49 141.23 32.01 165.68 40.25 165.68 41 188.04 64.22 188.04 63.48 165.68 64.97 165.68"/>
    </g>
  </g>
</svg>