<?xml version="1.0" encoding="UTF-8"?>
<svg id="Layer_2" data-name="Layer 2" xmlns="http://www.w3.org/2000/svg" width="101.66" height="176.07" viewBox="0 0 101.66 176.07">
  <defs>
    <style>
      .cls-1 {
        stroke-width: 1.67px;
      }

      .cls-1, .cls-2 {
        fill: none;
        stroke: #231f20;
        stroke-miterlimit: 10;
      }

      .cls-3 {
        fill: #48484a;
      }

      .cls-3, .cls-4, .cls-5, .cls-6, .cls-7 {
        stroke-width: 0px;
      }

      .cls-4 {
        fill: #2d2b2c;
      }

      .cls-4, .cls-5, .cls-7 {
        fill-rule: evenodd;
      }

      .cls-5 {
        fill: #fff;
      }

      .cls-6, .cls-7 {
        fill: #231f20;
      }

      .cls-2 {
        stroke-width: .56px;
      }
    </style>
  </defs>
  <g id="Assets">
    <g id="callout_01">
      <path class="cls-5" d="M3.63,111.74l-1.45,4.74-.73,4.74c-5.26,34.37,30.6,61.57,66.8,49.44l3.63-1.35,4.36-2.03,3.63-2.71,3.63-3.38,4.36-2.71,2.18-3.38,2.9-4.06,2.91-4.06,1.45-4.06,1.45-4.06.73-4.06.73-3.39v-4.06c1.55-9.93-5.95-23.42-12.34-31.15l-3.63-2.71-2.91-2.03-3.63-2.71L98.75,7.45l-39.94,73.82.73.68-5.09-1.36c-22.23.59-38.64,8.56-49.38,27.09l-1.45,4.06"/>
      <path class="cls-4" d="M2.91,113.09h.73-.73M6.54,109.71l-2.18,4.06-1.45-.68,1.45-4.06,2.18.68M4.36,109.03h.73-.73M7.99,106.32l-1.45,3.39-2.18-.68,2.18-3.38,1.45.67M6.54,105.64l.73.67-.73-.67M10.89,102.94l-2.91,4.06-1.45-1.35,2.9-3.39,1.45.68M13.8,99.55l-2.91,3.39-1.45-.68,2.18-3.39,2.18.68M11.62,98.87l.73-.68v.68h-.73M15.97,97.52h.73-.73l-.73-1.35.73,1.35-2.91,2.03-.73-1.36,2.91-2.03.73,1.35M18.88,94.13l-2.91,3.38-.73-1.35,2.18-2.71,1.45.68M17.42,93.45l.73-.68.73.68h-1.45M23.24,92.1l-4.36,2.71-.73-2.03,3.63-2.03,1.45,1.35M21.78,90.75v.67-.67M26.14,90.07l-3.63,2.03-.73-1.35,2.9-2.03,1.45,1.36M24.69,88.71h.73-.73M29.77,88.04l-3.63,2.03-1.45-1.36,4.36-2.71.73,2.03M29.05,86v1.36-1.36M33.4,86.68l-3.63,1.36-.73-2.03,4.36-1.35v2.03M33.4,84.65v1.35-1.35M37.76,86l-4.36.68v-2.03l3.63-.68.73,2.03M37.03,83.97v.68-.68M45.75,83.97l-7.99,2.03-.73-2.03,8.71-2.03v2.03M45.75,81.94v1.35-1.35M50.1,83.29l-4.36.68v-2.03h4.36v1.35M50.1,81.94v.67-.67M54.46,83.29h-4.36v-1.35h4.36v1.35M54.46,81.94v.67-.67M58.81,84.65l-4.36-1.36v-1.35l5.09.67-.73,2.03M59.54,82.62l-.73,2.03-.73-.68,1.45-1.36,3.63,2.71-4.36-.68.73-1.36v-.68M58.09,83.97l-.73-.68.73-.68.73.68-.73.68M99.48,7.45l-39.93,74.49-1.45-1.36L97.3,7.45h2.18M97.3,7.45l4.36-7.45-2.18,7.45h-2.18M78.42,81.26L97.3,7.45h2.18l-18.88,74.49-2.18-.68M76.97,90.07l2.18-8.8,1.45.68-2.18,8.8-1.45-.68M76.97,91.42h-.73l.73-1.35.73.68-.73.67M80.6,93.45l-3.63-2.03,1.45-1.35,3.63,2.03-1.45,1.36M82.05,92.1l-.73.68.73-.68M83.5,96.16l.73-1.36-.73,1.36-2.91-2.71,1.45-1.36,2.91,2.71-1.45,1.36M87.13,98.87l-3.63-2.71,1.45-1.36,2.91,2.03-.73,2.03M87.86,96.84v.67h.73-.73v-.67M89.31,101.58l-2.9-3.39,2.18-.68,1.45,2.71-.73,1.36M91.49,104.29l-2.18-2.71.73-1.36,2.9,3.39-1.45.68M92.94,103.61l2.18,2.71-2.18-2.71-.73.68.73-.68M93.67,107.68l-2.18-3.39,1.45-.68,2.18,3.39-1.45.68M95.12,107h-.73.73M95.12,110.38l-1.45-2.71,1.45-.68,2.18,2.71-2.18.68M97.3,109.71v.68h-1.45l1.45-.68M96.57,114.45l-1.45-4.06h2.18l1.45,3.39-2.18.68M98.75,113.77h-1.45,1.45M98.03,118.51h-.73.73l.73-.68-.73.68-1.45-4.06,2.18-.68.73,4.06-1.45.68M98.75,121.22l-.73-2.71,1.45-.68.73,3.39h-1.45M100.2,121.22h.73-.73M98.75,125.28h1.45-1.45v-4.06h2.18v4.06h-2.18M99.48,129.34l-.73-4.06h2.18l.73,3.39-2.18.67M101.66,128.67v.67l-1.45-.67h1.45M98.75,132.73l.73-4.06,2.18.67-.73,3.39h-2.18M100.93,132.73h-.73.73M98.75,136.8v-4.06h2.18l-.73,4.06h-1.45M98.03,140.86l.73-4.06h1.45v4.06h-2.18M100.2,140.86h-1.45,1.45M95.85,144.24h1.45-1.45l2.18-3.38h2.18l-2.18,3.38h-2.18M94.4,148.31l1.45-4.06h2.18l-1.45,4.74-2.18-.68M96.57,148.99v.67l-.73-.67h.73M92.22,152.37l2.18-4.06,2.18,1.35-2.91,4.06-1.45-1.35M93.67,153.72l-.73-.68.73.68M89.31,156.43l2.91-4.06,1.45,1.35-2.18,4.06-2.18-1.36M91.49,157.79h-.73l-.73-.68,1.45.68M86.41,159.82l2.9-3.39,1.45,1.36-2.91,3.39-1.45-1.36M87.86,161.18v-1.36,1.36M83.5,162.53l2.91-2.71,1.45,1.36-2.91,2.71-1.45-1.36M84.95,163.88l-1.45-.68,1.45.68M79.15,165.24l4.36-2.71,1.45,1.36-4.36,3.38-1.45-2.03M80.6,167.27l-.73-.67.73.67M75.52,167.95l3.63-2.71,1.45,2.03-3.63,2.03-1.45-1.36M76.97,169.3l-.73.68v-.68h.73M71.16,170.65l5.08-2.71v2.03l-3.63,2.03-1.45-1.36M72.61,172.01l-.73-1.36.73,1.36M67.53,172.01l4.36-2.03.73,2.03-4.36,1.35-.73-1.35M68.26,173.36v-.67.67M62.44,173.36l5.09-1.35.73,1.35-5.09,1.36-.73-1.36M63.17,174.72l-.73-.68.73.68M58.09,174.04l4.36-.68.73,1.36-5.08,1.35v-2.03M53.73,174.72l4.36-.68v2.03h-4.36v-1.35M53.73,176.07v-.67.67M48.65,174.72h5.08v1.35h-5.08v-1.35M48.65,176.07v-.67.67M43.57,174.04l5.09.68v1.35h-5.09v-2.03M43.57,176.07v-1.35,1.35M39.21,173.36l4.36.68v2.03l-5.08-1.35.73-1.36M38.48,174.72v-.68.68M34.85,172.01l4.36,1.35-.73,1.36-4.36-1.36.73-1.35M34.13,173.36h-.73l.73-.67v.67M29.77,169.98l-.73.67.73-.67,5.08,2.03-1.45,1.35-4.36-1.35.73-2.03M25.42,167.95l4.36,2.03-.73,2.03-4.36-2.03.73-2.03M24.69,169.98v-.68.68M21.78,165.24l3.63,2.71-.73,1.36-4.36-2.03,1.45-2.03M20.33,167.27v-.67.67M17.42,162.53l4.36,3.39-1.45,1.35-3.63-3.38.73-1.36M16.7,163.88h.73-.73M14.52,159.82l2.9,2.71-.73,1.36-3.63-2.71,1.45-1.36M13.07,161.18l.73-1.36-.73,1.36M11.62,156.43l2.91,3.39-1.45,1.36-2.9-3.39,1.45-1.36M10.17,157.79l-.73-.68,1.45-.68-.73,1.36M9.44,152.37l2.18,4.06-2.18.68-2.18-3.39,2.18-1.35M6.54,148.31l2.9,4.06-2.18,1.35-2.18-4.06,1.45-1.35M5.08,149.66l.73-.67-.73.67M5.08,144.24l1.45,4.74-1.45.67-2.18-4.74,2.18-.68M2.91,144.92l.73-.68-.73.68M3.63,140.86l1.45,3.38-2.18.68-1.45-4.06h2.18M1.45,140.86h.73-.73M2.18,136.12l1.45,4.74H1.45l-.73-4.06,1.45-.68M.73,136.8v-.68h.73l-.73.68M2.18,132.06v4.06H.73l-.73-4.06h2.18M0,132.06h.73-.73M2.18,127.31v4.74H0v-4.74h2.18M0,127.31h.73-.73M2.18,122.57v4.74H0l.73-4.74h1.45M.73,122.57h.73-.73M3.63,118.51l-1.45,4.06H.73l.73-4.06h2.18M1.45,118.51h.73-.73M4.36,113.77l-1.45,4.74h-1.45l1.45-5.42,1.45.68"/>
      <path class="cls-5" d="M19.6,130.7h7.26v6.1h-7.26v-6.1M16.7,116.48h13.07v3.39h-13.07v-3.39M78.42,92.78l-11.62,12.19v36.57l27.6,6.1,1.45-.68v-2.71c3.11-4.52,3.07-13.45,2.91-18.96v-2.03l-.73-2.03-.73-2.03v-2.03l-.73-2.03-.73-2.03-1.45-2.03-.73-2.03-.73-1.35c-4.04-6.54-4.51-5.19-7.99-9.48l-2.18-2.03-2.18-1.36-2.18-2.03"/>
      <path class="cls-5" d="M76.24,130.02h7.26v6.1h-7.26v-6.1M73.34,115.8h13.07v4.06h-13.07v-4.06"/>
      <rect class="cls-3" x="87.86" y="123.25" width="1.45" height="5.42"/>
      <polyline class="cls-5" points="89.31 122.57 69.71 122.57 69.71 128.67 90.04 128.67 90.04 122.57 89.31 122.57"/>
      <line class="cls-1" x1="79.15" y1="110.43" x2="91.49" y2="110.43"/>
      <line class="cls-2" x1="74.78" y1="121.26" x2="90.76" y2="121.26"/>
      <polyline class="cls-2" points="74.78 121.26 66.8 121.26 63.9 121.94"/>
      <polyline class="cls-1" points="79.15 110.43 71.88 111.11 66.8 111.79 64.62 112.46 63.17 113.14"/>
      <line class="cls-1" x1="92.94" y1="107.72" x2="56.64" y2="104.33"/>
      <line class="cls-2" x1="56.64" y1="104.34" x2="55.91" y2="126.69"/>
      <polyline class="cls-1" points="62.44 121.94 63.17 110.43 73.33 111.11"/>
      <polyline class="cls-1" points="86.41 129.4 51.55 127.36 51.55 121.26"/>
      <polyline class="cls-1" points="52.28 111.11 52.28 107.72 56.64 104.34"/>
      <line class="cls-2" x1="55.91" y1="126.69" x2="51.55" y2="127.36"/>
      <polyline class="cls-1" points="53.73 121.26 54.45 121.26 55.18 119.91 55.18 113.14 54.45 111.79 54.45 111.11"/>
      <line class="cls-1" x1="11.62" y1="119.23" x2="53.73" y2="121.26"/>
      <line class="cls-1" x1="7.99" y1="109.08" x2="54.45" y2="111.11"/>
      <polyline class="cls-2" points="48.65 121.26 48.65 119.91 49.37 115.85 49.37 112.46 48.65 111.79 48.65 111.11"/>
      <polyline class="cls-2" points="21.78 119.91 25.41 122.62 29.04 124.65 32.67 126.01 35.57 126.69"/>
      <line class="cls-1" x1="35.58" y1="126.69" x2="51.55" y2="127.36"/>
      <polyline class="cls-1" points="22.51 119.91 26.14 122.62 29.05 124.65 33.4 126.01 36.3 126.69"/>
      <polyline class="cls-2" points="60.27 128.04 58.81 144.97 60.99 148.36 81.32 148.36"/>
      <line class="cls-1" x1="81.32" y1="148.35" x2="82.05" y2="134.81"/>
      <polyline class="cls-1" points="59.54 128.04 58.08 145.65 60.26 148.36"/>
      <line class="cls-2" x1="80.6" y1="148.35" x2="81.32" y2="148.35"/>
      <line class="cls-2" x1="58.09" y1="145.65" x2="58.81" y2="144.97"/>
      <line class="cls-2" x1="60.27" y1="148.35" x2="60.99" y2="148.35"/>
      <line class="cls-1" x1="60.27" y1="148.35" x2="80.6" y2="148.35"/>
      <line class="cls-2" x1="60.27" y1="148.35" x2="60.99" y2="148.35"/>
      <line class="cls-2" x1="80.6" y1="148.35" x2="81.32" y2="148.35"/>
      <path class="cls-1" d="M7.99,107.72l1.45,4.06c2.41,10.47,8.26,20.46,16.7,27.76l5.08,3.39,2.18,1.35,1.45,1.36v4.06l.72,1.35h1.46l.72.68"/>
      <polyline class="cls-2" points="37.76 151.74 36.3 152.42 29.05 152.42 26.14 153.09 25.42 153.09 26.14 153.09"/>
      <polyline class="cls-2" points="34.85 149.71 29.05 149.71 24.69 150.38 21.79 151.06 18.88 153.09"/>
      <polyline class="cls-1" points="24.68 162.58 41.39 163.25 48.65 163.25 55.18 162.58 72.61 159.19 84.23 156.48 84.95 156.48 84.95 149.71 83.5 149.71 83.5 149.03 82.77 149.03 82.77 148.36 81.32 148.36"/>
      <polyline class="cls-2" points="45.74 153.77 54.45 153.77 63.9 152.42"/>
      <line class="cls-2" x1="84.96" y1="149.71" x2="63.9" y2="152.42"/>
      <line class="cls-2" x1="26.14" y1="153.1" x2="45.75" y2="153.78"/>
      <path class="cls-6" d="M45.02,146.28v-1.36,1.36h-2.18v-2.71h2.18v2.71M50.1,145.6l-5.08.68v-2.71h4.36l.73,2.03M49.38,143.57h.73v.67l-.73-.67M55.18,146.28l-5.81-.68.73-2.03h5.08v2.71M55.18,143.57v1.35-1.35M56.64,146.28h-2.18l.73-2.03h2.18l-.73,2.03"/>
      <polyline class="cls-2" points="42.84 144.97 45.02 145.65 56.64 145.65"/>
      <path class="cls-6" d="M54.46,150.34l2.18-.68.73,2.03-2.18.68-.73-2.03M55.18,152.37v-1.36,1.36M50.1,150.34h5.08v2.03h-5.08v-2.03M50.1,152.37h-.73l.73-1.36v1.36M44.29,149.66l5.81.68-.73,2.03-5.08-.68v-2.03M44.29,151.69v-.68.68M42.84,148.99l2.18.67-.73,2.03h-2.18l.73-2.71"/>
      <line class="cls-2" x1="56.64" y1="151.06" x2="56.64" y2="145.65"/>
      <line class="cls-2" x1="42.84" y1="150.38" x2="42.84" y2="144.97"/>
      <line class="cls-2" x1="43.56" y1="151.06" x2="55.91" y2="151.06"/>
      <path class="cls-6" d="M41.39,150.34v-5.42h2.18v5.42h-2.18M55.91,151.02v-5.42h2.18v5.42h-2.18"/>
      <path class="cls-6" d="M42.11,151.69v-.68h2.91v.68h-2.91M54.46,151.69v-.68h2.91v.68h-2.91"/>
      <path class="cls-6" d="M53.73,151.02l2.18-.68v2.71h-1.45l-.73-2.03M54.46,153.05h-.73v-.67l.73.67M50.1,151.02h3.63v2.03h-3.63v-2.03M45.75,151.02h4.36v2.03h-4.36v-2.03M45.75,153.05h-.73l.73-.67v.67M43.57,150.34l2.18.68-.73,2.03h-1.45v-2.71"/>
      <line class="cls-2" x1="55.18" y1="128.04" x2="55.18" y2="144.97"/>
      <polyline class="cls-1" points="74.78 132.78 76.24 133.46 80.59 134.13 84.95 133.46 86.41 133.46 86.41 132.78"/>
      <line class="cls-1" x1="87.13" y1="129.4" x2="86.41" y2="132.78"/>
      <line class="cls-1" x1="74.78" y1="128.72" x2="74.78" y2="132.78"/>
      <polyline class="cls-1" points="74.78 133.46 75.51 134.13 86.41 134.13 86.41 133.46"/>
      <line class="cls-1" x1="74.78" y1="133.46" x2="74.78" y2="132.78"/>
      <polyline class="cls-1" points="87.86 103.66 87.86 102.98 76.24 102.98"/>
      <line class="cls-1" x1="87.86" y1="107.72" x2="87.86" y2="103.66"/>
      <line class="cls-1" x1="76.24" y1="106.37" x2="76.24" y2="102.98"/>
      <polyline class="cls-2" points="66.8 139.55 66.07 139.55 65.35 140.23 66.07 140.91 66.8 140.91 66.8 139.55"/>
      <polyline class="cls-1" points="65.35 140.91 66.8 141.58 67.53 140.91 68.25 140.23 67.53 139.55 66.8 138.87 65.35 139.55 65.35 140.91"/>
      <polyline class="cls-2" points="65.35 140.91 67.53 140.91 67.53 139.55 66.8 138.87 65.35 139.55 65.35 140.91"/>
      <polyline class="cls-2" points="66.8 139.55 66.08 139.55 66.08 140.91 66.8 140.91 66.8 139.55"/>
      <polyline class="cls-5" points="48.65 142.21 47.2 142.21 36.3 136.12 39.93 134.09 32.67 122.57 38.48 119.19 45.75 131.38 48.65 130.02 48.65 142.21"/>
      <polyline class="cls-7" points="38.48 119.87 45.75 132.06 48.65 130.7 48.65 142.21 37.76 136.12 40.66 134.76 33.4 122.57 38.48 119.87"/>
      <line class="cls-2" x1="82.78" y1="149.03" x2="56.64" y2="149.03"/>
      <line class="cls-2" x1="42.84" y1="149.03" x2="34.85" y2="149.03"/>
    </g>
  </g>
</svg>