<?xml version="1.0" encoding="UTF-8"?>
<svg id="Layer_2" data-name="Layer 2" xmlns="http://www.w3.org/2000/svg" width="104.14" height="154.41" viewBox="0 0 104.14 154.41">
  <defs>
    <style>
      .cls-1 {
        fill: #2d2b2c;
      }

      .cls-1, .cls-2 {
        fill-rule: evenodd;
        stroke-width: 0px;
      }

      .cls-2 {
        fill: #fff;
      }
    </style>
  </defs>
  <g id="Assets">
    <g id="callout_02a">
      <path class="cls-1" d="M1.5,118.08l.75-.7-.75.7M2.25,113.19l.75,4.19-1.5.7-.75-4.19,1.5-.7M.75,113.89l.75-.7-.75.7M2.25,109v4.19l-1.5.7-.75-4.19,2.25-.7M0,109.7v-.7h.75l-.75.7M2.25,104.81v4.19H0v-4.19h2.25M2.25,100.62v4.19H0v-4.19h2.25M0,100.62h.75-.75M3,97.12l-.75-.7.75.7-.75,3.49H0l.75-4.19,2.25.7M3.75,92.93l-.75,4.19-2.25-.7,1.5-4.19,1.5.7M2.25,92.23h.75-.75M5.25,88.74l-1.5,4.19-1.5-.7.75-4.19,2.25.7M3,88.04h1.5-1.5M6.74,85.24l-1.5,3.49-2.25-.7,1.5-3.49,2.25.7M4.49,84.54v-.7l1.5.7h-1.5M8.99,81.75l-2.25,3.49-2.25-1.4,2.25-3.49,2.25,1.4M6.74,80.35l.75.7-.75-.7M10.49,78.25l-2.25,3.49-1.5-1.4,2.25-2.79,1.5.7M8.99,77.56h1.5-1.5M13.49,75.46l-3,3.49-1.5-1.4,2.99-3.49,1.5,1.4M11.99,74.07l1.5.7-1.5-.7M19.48,69.17l-5.99,6.29-1.5-1.4,6-6.29,1.5,1.4M17.98,67.78h.75l.75.7-1.5-.7M23.22,66.38l-3.75,2.79-.75-1.4,3.75-2.1.75.7M22.48,65.68h.75-.75M26.97,64.28l-3.75,2.09-.75-.7,3.75-2.79.75,1.4M26.22,62.88v.7-.7M31.47,62.88l-4.49,1.4-.75-1.4,4.49-2.09.75,2.09M30.72,60.79v2.09-2.09h4.49l-3.75,2.09-.75-1.4v-.7M30.72,62.88h-1.5v-1.4h1.5v1.4M26.22,4.89l5.24,56.59h-2.25L23.97,5.59l2.25-.7M23.97,5.59l-.75-5.59,3,4.89h-1.5l-.75.7M47.2,51.01L23.97,5.59l2.25-.7,23.22,45.42-2.25.7M49.45,50.31h-1.5,1.5M50.2,57.99l-3-7.68h2.25l2.99,6.98-2.25.7M50.94,58.69h-.75v-.7l.75-.7v1.4M55.44,58.69h-4.49v-2.1h4.49v2.1M55.44,56.59v.7-.7M59.18,58.69v-.7.7h-3.75v-2.1l3.75.7v1.4M63.68,59.39l-4.49-.7v-1.4h4.49v2.1M63.68,57.29v1.4-1.4M67.42,60.79l-3.75-1.4v-2.1l4.5,2.1-.75,1.4M71.17,62.19l-3.75-1.4.75-1.4,3.74.7-.75,2.1M75.67,63.58l-4.49-1.4.75-2.1,3.75,1.4v2.09M75.67,61.49h.75v.7l-.75.7v-1.4M78.66,65.68l-3-2.09.75-1.4,2.99,2.09-.75,1.4M82.41,67.78l-3.75-2.1.75-1.4,3.75,2.09-.75,1.4M83.16,66.38h-.75.75M85.41,70.57l.75-1.4-.75,1.4-3.75-2.79,1.5-1.4,3.75,2.79-1.5,1.4M88.4,72.67l-3-2.09,1.5-1.4,3,2.1-1.5,1.4M89.9,71.27l-.75.7.75-.7M90.65,75.46l-2.25-3.49,1.5-.7,2.25,3.49-1.5.7M90.65,76.16v-.7l.75-.7-.75,1.4M93.65,78.95l-3-2.79,1.5-1.4,2.99,2.8-1.5,1.4M95.14,77.56l-.75.7.75-.7M95.9,81.75l-2.25-2.79,1.5-1.4,2.25,3.49-1.5.7M97.39,81.05l-.75.7.75-.7M97.39,85.24l-1.5-3.49,1.5-.7,2.25,3.49-2.25.7M99.64,89.44l-2.25-4.19,2.25-.7,1.5,3.49-1.5,1.4M101.14,88.04v.7h-.75l.75-.7M100.39,93.63l.75-.7-.75.7-.75-4.19,1.5-.7,1.5,4.19-2.25.7M101.89,97.82l-1.5-4.19,2.25-.7,1.5,4.89h-2.25M104.14,97.82h-1.5,1.5M102.64,102.71l-.75-4.89h2.25v4.89h-1.5M104.14,102.71h-.75.75M102.64,106.9v-4.19h1.5v4.19h-1.5M104.14,106.9v.7l-.75-.7h.75M101.89,111.79l.75-4.89,1.5.7v4.19h-2.25M104.14,111.79v.7l-1.5-.7h1.5M101.14,116.69l.75-4.89,2.25.7-1.5,4.19h-1.5M102.64,116.69h-.75.75M99.64,120.88l1.5-4.19h1.5l-1.5,4.89-1.5-.7M101.14,121.58l-.75-.7.75.7M98.14,125.07l1.5-4.19,1.5.7-1.5,4.19-1.5-.7M99.64,125.77l-.75-.7.75.7M95.9,128.56l2.25-4.19,1.5,1.4-2.25,4.19-1.5-1.4M97.39,129.96l-.75-.7.75.7M92.9,132.75l3-4.19,1.5,1.4-3,3.49-1.5-.7M94.4,133.45v.7-1.4.7M89.9,136.25l3-3.49,1.5,1.4-3,3.49-1.5-1.4M91.4,137.65l-.75-1.4.75,1.4M86.15,139.04l3.75-2.79,1.5,1.4-3.74,2.79-1.5-1.4M82.41,142.54l3.75-3.49,1.5,1.4-3.75,3.49-1.5-1.4M83.91,143.93v-.7.7M78.66,145.33l4.49-2.79.75,1.4-4.49,2.8-.75-1.4M79.41,146.73v-.7.7M74.17,147.43l4.49-2.09.75,1.4-3.75,2.09-1.5-1.4M75.67,148.83l-.75-.7.75.7M69.67,148.83l4.49-1.4,1.5,1.4-4.49,2.09-1.5-2.09M71.17,150.92h-.75v-.7l.75.7M65.18,150.22l4.49-1.4.75,2.09-5.24,1.4v-2.1M65.18,152.32v-.7.7M59.18,151.62l.75.7-.75-.7,6-1.4v2.1l-5.25.7-.75-1.4M54.69,152.32l4.49-.7.75,1.4-4.49,1.4-.75-2.09M55.44,154.41v-1.4,1.4M50.2,152.32h5.24v2.09h-5.24v-2.09M50.2,154.41v-1.4,1.4M44.95,151.62l5.24.7v2.09l-5.24-.7v-2.09M44.95,153.72v-.7.7M40.45,150.92l4.5.7v2.09l-5.25-.7.75-2.09M39.71,153.02l.75-1.4-.75,1.4M35.21,149.53l5.24,1.4-.75,2.09-4.49-1.4v-2.09M35.21,151.62v-1.4,1.4M31.47,147.43l4.49,2.1-.75,2.09-4.49-2.09.75-2.1M26.97,146.03l4.49,1.4-.75,2.1-4.49-2.1.75-1.4M26.22,147.43v-.7.7M22.48,143.24l4.49,2.79-.75,1.4-4.49-2.79.75-1.4M21.73,144.63h-.75l.75-.7v.7M19.48,140.44l3,2.79-1.5,1.4-3-2.79,1.5-1.4M17.98,141.84l.75-.7-.75.7M14.98,137.65l4.49,2.79-1.5,1.4-4.49-2.79,1.5-1.4M13.49,139.04l1.5-1.4-1.5,1.4M11.99,134.15l3,3.49-1.5,1.4-3-3.49,1.5-1.4M10.49,135.55l1.5-.7-1.5.7M8.99,129.96l2.99,4.19-1.5,1.4-3-4.19,1.5-1.4M7.49,131.36l1.5-.7-1.5.7M7.49,125.77l2.25,4.19-2.25,1.4-2.25-4.19,2.25-1.4M5.25,127.17l.75-.7-.75.7M5.25,122.28l2.25,3.49-2.25,1.4-2.25-4.19,2.25-.7M3,122.97l1.5-.7-1.5.7M3,117.38l2.25,4.89-2.25.7-1.5-4.89,1.5-.7"/>
      <path class="cls-2" d="M2.25,117.38l2.25,4.89,1.5,4.19,3,4.19c7.45,10.45,17.82,18.69,31.47,20.96l4.49,1.4h5.24c15.38.49,31.19-5.03,40.45-16.77l3.75-3.49,2.25-3.49,2.25-4.19c13.35-29.06-5.32-62.89-39.71-67.08l-3.75-.7h-4.5L24.72,4.89l5.99,56.59-4.49,2.09-3,2.09c-5.44,3.4-11.19,10.59-15.73,15.37l-1.5,3.49-1.5,3.49c-2.21,6.86-4.59,13.7-3.75,20.96l.75,4.19.75,4.19"/>
      <polyline class="cls-1" points="38.2 105.5 31.46 105.5 51.69 129.96 71.17 105.5 62.18 105.5 62.18 83.15 38.95 83.15 39.7 105.5 38.2 105.5"/>
    </g>
  </g>
</svg>