<?xml version="1.0" encoding="UTF-8"?>
<svg id="Layer_2" data-name="Layer 2" xmlns="http://www.w3.org/2000/svg" width="102.38" height="182.17" viewBox="0 0 102.38 182.17">
  <defs>
    <style>
      .cls-1 {
        fill: #48484a;
      }

      .cls-1, .cls-2, .cls-3 {
        fill-rule: evenodd;
      }

      .cls-1, .cls-2, .cls-3, .cls-4 {
        stroke-width: 0px;
      }

      .cls-5 {
        stroke: #48484a;
      }

      .cls-5, .cls-6 {
        fill: none;
        stroke-miterlimit: 10;
        stroke-width: 1.11px;
      }

      .cls-2 {
        fill: #2d2b2c;
      }

      .cls-3 {
        fill: #fff;
      }

      .cls-4 {
        fill: #231f20;
      }

      .cls-6 {
        stroke: #231f20;
      }
    </style>
  </defs>
  <g id="Assets">
    <g id="callout_03">
      <path class="cls-3" d="M100.93,44.02l-.73-4.74-.73-4.06C88.3-.09,46.96-10.18,16.7,12.87l-2.9,2.71-2.91,4.06-2.18,3.38C1.85,31.56-.91,47.57,2.91,57.57l1.45,3.38.73,3.39,2.18,3.39,1.45,4.06,2.91,2.71,2.18,3.39,2.9,2.71,2.91,2.03,3.63,2.03,3.63,2.71,2.91,1.36,4.36,1.35,3.63,1.36,4.36.68,13.8,82.62,6.53-82.62h-.73l5.09-.68c19.04-7.61,33.09-23.28,34.12-42.66v-4.74"/>
      <path class="cls-2" d="M102.38,44.02h-1.45,1.45M100.2,48.76v-4.74h2.18v4.74h-2.18M102.38,48.76h-1.45,1.45M99.48,52.14l.73-4.06,2.18.68-.73,4.06-2.18-.68M101.66,52.82h-.73.73M98.75,56.21l.73-4.06,2.18.68-.73,4.06-2.18-.68M98.03,60.95l.73-4.74,2.18.68-1.45,4.06h-1.45M99.48,60.95h-.73.73M96.57,63.66v.67-.67l1.45-3.39,1.45.67-1.45,3.39-1.45-.67M94.4,67.72l2.18-4.06,1.45.67-2.18,4.06-1.45-.68M95.85,68.4l-.73-.68.73.68M92.22,71.11l2.18-3.39,1.45.68-2.18,3.39-1.45-.68M93.67,71.79h-.73.73M90.04,74.49l2.18-3.39,1.45.68-2.18,3.39-1.45-.68M91.49,75.17l-.73-.68.73.68M87.13,77.2l2.91-2.71,1.45.68-2.91,3.38-1.45-1.35M88.59,78.56l-.73-.67.73.67M84.23,79.91l2.91-2.71,1.45,1.35-2.91,2.71-1.45-1.35M85.68,81.26l-.73-.67.73.67M81.32,81.94l2.91-2.03,1.45,1.35-3.63,2.03-.73-1.36M82.05,83.3h-.73.73M74.06,86.69l7.26-4.74.73,1.36-6.54,5.42-1.45-2.03M75.52,88.72l-.73-1.36.73,1.36M69.71,88.72l4.36-2.03,1.45,2.03-5.09,1.35-.73-1.35M70.43,90.07v-.67.67M66.08,90.07l3.63-1.35.73,1.35-2.9,2.03-1.45-2.03M67.53,92.1h-.73v-.68l.73.68M61.72,91.42l4.36-1.36.73,2.03-4.36.68-.73-1.36M61.72,92.78l-4.36-.68,4.36-.68v1.36M62.44,92.78h-.73l.73-1.36v1.36M62.44,91.42h.73v.68h-.73v-.68M55.18,174.72l6.54-82.62h1.45l-5.81,82.62h-2.18M57.36,174.72l-.73,7.45-1.45-7.45h2.18M44.29,99.55l13.07,75.17h-2.18l-13.07-75.17h2.18M42.84,92.1l1.45,7.45h-2.18l-1.45-6.77,2.18-.68M42.11,91.42h.73v.68h-.73v-.68M37.76,90.75l4.36.68v1.36h-4.36v-2.03M37.76,92.78v-1.36,1.36M34.13,89.39v.67-.67l3.63,1.35v1.36l-4.36-.68.73-2.03M30.5,88.04l3.63,1.36-.73,2.03-3.63-1.36.73-2.03M29.77,90.07v-1.35,1.35M26.87,86.01l3.63,2.03-.73,2.03-3.63-2.71.73-1.35M23.96,83.98l2.91,2.03-.73,1.35-3.63-1.35,1.45-2.03M20.33,81.94l3.63,2.03-1.45,2.03-3.63-2.71,1.45-1.36M18.88,83.3l.73-.68-.73.68M17.43,79.91l2.9,2.03-1.45,1.36-2.91-2.03,1.45-1.35M15.97,81.26v-.67h.73l-.73.67M14.52,76.53l2.91,3.39-1.45.68-2.91-2.71,1.45-1.36M13.07,77.88h.73-.73M12.34,73.82v.68-.68l-.73.68.73-.68,2.18,2.71-1.45,1.36-2.9-2.71,2.18-1.36M10.17,71.11l2.18,2.71-2.18,1.36-1.45-2.71,1.45-1.35M8.71,72.46l-.73-.67h.73v.67M8.71,67.72l1.45,3.39-2.18.68-1.45-3.39,2.18-.68M7.99,67.72h.73-1.45.73M5.81,63.66l2.18,4.06-1.45.68-2.18-3.39,1.45-1.35M4.36,65.01l.73-.68-.73.68M5.08,60.95l.73,3.39-1.45.68-1.45-4.06h2.18M2.91,60.95h1.45-1.45M3.63,57.57l1.45,3.38h-2.18l-.73-3.38h1.45M2.91,53.5l.73,4.06h-1.45l-1.45-4.06h2.18M.73,53.5h.73-.73M2.91,49.44h-1.45,1.45v4.06H.73v-4.06h2.18M2.18,44.7l.73,4.74H.73l-.73-4.74h2.18M0,44.7h1.45H0M2.91,39.96l-.73,4.74H0l.73-4.74h2.18M.73,39.96v-.68l.73.68h-.73M3.63,35.22l-.73,4.74-2.18-.68.73-4.06h2.18M1.45,35.22h1.45-1.45M5.08,31.15l-1.45,4.74-1.45-.68,1.45-4.06h1.45M3.63,31.15h.73-.73M7.26,27.09l-2.18,4.06h-1.45l2.18-4.74,1.45.68M5.81,26.41v.68-.68M9.44,23.02l-2.18,4.06-1.45-.68,2.18-4.06,1.45.67M7.99,22.35l.73.67-.73-.67M11.62,19.64l-2.18,3.38-1.45-.67,2.18-3.39,1.45.68M10.17,18.96v-.68l.73,1.36-.73-.68M14.52,16.26l-2.91,3.39-1.45-1.36,2.9-2.71,1.45.68M13.07,15.58h.73-.73M18.15,12.87l-3.63,3.39-.73-.68,2.9-3.39,1.45.68M16.7,12.19v.68-.68M21.78,10.16l-3.63,3.39-1.45-1.36,4.36-3.39.73,1.36M21.06,8.8v1.36-1.36M25.42,8.13l-3.63,2.03-.73-1.36,3.63-2.03.73,1.36M29.77,6.1l-4.36,2.03-.73-1.36,3.63-2.71,1.45,2.03M28.32,4.06h.73l.73,1.36-1.45-1.36M34.13,4.06l-4.36,2.03-.73-2.03,4.36-1.36.73,1.36M33.4,2.71l.73.68-.73-.68M39.21,2.71l-5.08,1.36-.73-1.36,5.08-1.35.73,1.35M38.48,1.36v.68-.68M43.57,2.03l-4.36.67-.73-1.35,5.08-1.36v2.03M43.57,0v1.36V0M48.65,1.36l-5.09.68V0h4.36l.73,1.36M47.93,0v.68-.68M53.01,1.36h-5.08V0h5.81l-.73,1.36M53.73,1.36h-.73l.73-.68v.68M58.81,1.36h-5.08V0h5.08v1.36M58.81,0v.68-.68M63.17,2.71l-5.09-1.35.73-1.36,4.36.68v2.03M63.17.68v.68-.68M67.53,4.06l-4.36-1.36V.68l5.08,1.36-.73,2.03M68.26,2.03l-.73.67.73-.67M71.89,5.42l-4.36-1.36.73-2.03,4.36,2.03-.73,1.36M72.61,4.06v.68-.68M76.24,7.45l-4.36-2.03.73-1.36,4.36,2.03-.73,1.36M76.97,6.1v.68-.68M79.87,10.16l-3.63-2.71.73-.68,4.36,2.03-1.45,1.36M83.5,12.87l-3.63-2.71,1.45-1.36,3.63,2.71-1.45,1.36M84.95,11.51l-.73.68.73-.68M87.13,16.26l-3.63-3.39,1.45-1.36,3.63,3.39-1.45,1.36M88.59,14.9l-.73.68.73-.68M89.31,19.64l-2.18-3.39,1.45-1.36,2.18,3.39-1.45,1.36M90.77,18.29v.68-.68M92.94,23.02l-3.63-3.38,1.45-1.36,3.63,4.06-1.45.67M94.4,22.35h-.73.73M95.12,26.41l-2.18-3.39,1.45-.67,2.18,3.39-1.45.67M96.57,25.74h-.73.73M96.57,31.15l-1.45-4.74,1.45-.67,2.18,4.74-2.18.68M98.75,30.48h-.73.73M98.03,35.22l-1.45-4.06,2.18-.68,1.45,4.06-2.18.67M100.2,34.54v.67h-.73l.73-.67M99.48,39.28l-1.45-4.06h2.18l.73,4.06h-1.45M100.93,39.28h-.73.73M100.2,44.7l-.73-5.42h1.45l1.45,4.74-2.18.68"/>
      <path class="cls-1" d="M77.69,46.73l7.26-4.74v-.68l-4.36-15.57h-.73l-7.26,4.06v1.36l4.36,15.57h.73M25.42,75.85l29.77-18.28v1.35h.73v1.36h.73l.73.67h4.36l.73-.67h.73l1.45-.68,18.88-12.19.73-.68h.73l.73-.67.73-.68,1.45-1.36v-1.35l1.45-1.36v-4.06l-3.63-14.22v-.67h-.73l-.73-.68v-.68h-5.81v.68l-1.45.68h-.73l-18.88,11.51v.68h-.73l-1.45,1.35-.73.68h-.73l-.73.68v.67l-.73.68-.73.68v1.35l-.73.68c-1.66,4.45-1.47.81-1.45,5.42v.68l.73,3.39h-1.45v.68h-.73l-.73,2.03-4.36,1.36-1.45,2.03-3.63.68-1.45,3.38-4.36.68-2.18,3.39-3.63.68-.73.68-1.45.67-.73.68h-.73v1.36h-1.45v2.03h-.73v2.03l.73.68v2.03l.73.68h2.9l.73-.68"/>
      <path class="cls-3" d="M79.87,48.76l7.26-4.74h.73l-4.36-16.25h-.73l-7.26,4.74v.68l4.36,15.58M27.59,78.56l29.77-18.96.73,1.35v.68h.73v.68l.73.68h.73v.68h4.36v-.68l1.45-.68h.73l.73-.68,18.88-11.51.73-.68.73-.67v-.68h1.45v-1.36h.73l.73-1.35.73-1.36.73-.68v-4.06l-4.36-13.54v-1.36l-.73-.68v-.68h-5.81l-1.45,1.36h-.73l-18.88,12.19h-.73l-.73,1.35h-.73l-2.18,2.03v.67l-.73,1.36h-.73v2.03l-.73.68v1.36h.73l-.73.67h.73v2.03l-2.9,2.03-2.18,1.35-1.45,2.71-4.36.67-1.45,2.71-3.63.68-1.45,2.03-3.63,1.36-2.91,4.06-5.81,1.35h-.73l-1.45,1.36-.73.67-.73.68v.68l-.73.68v.67l-.73.68v2.03l.73.67v.68l.73.68v.68h.73l.73.67,1.45.68h2.18l.73-.68h.73"/>
      <polyline class="cls-1" points="57.36 58.24 26.87 77.2 28.32 79.23 58.81 60.95 57.36 58.24 58.81 60.95 58.81 58.24 57.36 58.24"/>
      <polyline class="cls-1" points="58.81 59.6 56.64 58.24 57.36 58.24 56.64 58.24 57.36 58.24 58.09 60.95 58.81 60.95 56.64 59.6 58.81 60.95 58.81 58.24 56.64 58.24 58.81 59.6"/>
      <polyline class="cls-1" points="59.54 60.95 58.81 59.6 56.64 59.6 56.64 60.95 59.54 60.95 56.64 60.95 56.64 61.63 57.36 61.63 57.36 62.3 58.81 62.3 58.81 61.63 59.54 60.95"/>
      <polyline class="cls-1" points="66.8 60.95 66.08 60.95 65.35 61.63 64.62 61.63 63.9 62.3 60.27 62.3 60.27 60.95 56.64 60.95 56.64 61.63 57.36 62.3 57.36 63.66 58.81 63.66 58.81 64.33 59.54 64.33 60.27 65.01 63.9 65.01 64.62 64.33 65.35 64.33 66.08 63.66 67.53 63.66 68.26 62.98 68.26 62.3 68.98 62.3 68.98 60.95 66.8 60.95"/>
      <polyline class="cls-1" points="87.13 50.79 85.68 49.44 66.8 60.95 68.26 62.98 87.13 50.79 87.86 50.79 87.86 49.44 87.13 49.44 87.13 48.76 85.68 48.76 85.68 49.44 87.13 50.79"/>
      <path class="cls-1" d="M90.77,39.96v.67c.42,2.85-1.49,4.98-3.63,6.77v.68h-.73l-.73,1.35,1.45,1.36h.73l1.45-1.36.73-.67.73-.68.73-1.36h.73v-1.35c2.24-2.89,1.25-2.35,1.45-6.1v-.68h-1.45v-.68.68h-1.45v1.36"/>
      <polyline class="cls-1" points="89.31 25.06 87.13 25.74 90.77 39.96 93.67 39.28 89.31 25.06 89.31 24.38 87.13 24.38 87.13 25.74 89.31 25.06"/>
      <polyline class="cls-1" points="79.87 25.74 81.32 24.38 86.41 24.38 87.13 25.06 87.13 25.74 89.31 25.06 89.31 23.7 88.59 23.02 87.86 23.02 87.86 22.35 86.41 22.35 85.68 21.67 82.78 21.67 81.32 22.35 79.87 22.35 79.15 23.02 78.42 23.02 78.42 23.7 77.69 23.7 77.69 25.06 78.42 25.74 79.87 25.74"/>
      <polyline class="cls-1" points="59.54 35.21 60.99 37.25 79.87 25.74 78.42 23.02 59.54 35.21 58.81 35.21 58.81 37.25 59.54 37.92 60.27 37.92 60.99 37.25 59.54 35.21"/>
      <polyline class="cls-1" points="55.91 46.73 55.18 46.05 55.18 45.37 55.91 44.02 55.91 42.67 56.64 41.99 56.64 41.31 57.36 40.63 58.09 39.28 58.81 39.28 59.54 38.6 60.27 37.92 60.99 37.25 59.54 35.22 58.81 35.89 57.36 36.57 57.36 37.25 55.91 37.92 55.91 38.6 55.18 39.28 54.46 39.96 54.46 40.63 53.73 41.99 53.01 42.67 53.01 45.37 52.28 46.05 53.01 46.73 53.01 48.08 55.18 48.08 55.18 46.73 55.91 46.73"/>
      <polyline class="cls-1" points="55.18 50.11 55.91 48.08 55.91 46.73 53.01 46.73 53.01 49.44 55.18 50.11 53.01 49.44 53.73 49.44 53.73 50.11 55.18 50.11 55.91 49.44 55.91 48.08 55.18 50.11"/>
      <polyline class="cls-1" points="55.18 49.44 55.91 50.11 55.18 50.11 54.46 47.41 53.73 48.08 53.73 47.41 54.46 47.41 53.73 47.41 53.73 48.08 53.01 48.08 53.01 49.44 53.73 49.44 53.73 50.11 55.18 50.11 55.18 49.44"/>
      <polyline class="cls-1" points="51.56 49.44 53.01 51.47 55.18 49.44 53.73 48.08 51.56 49.44 50.83 49.44 50.1 50.11 50.1 50.79 50.83 50.79 50.83 51.47 51.56 51.47 51.56 52.14 52.28 52.14 53.01 51.47 51.56 49.44"/>
      <polyline class="cls-1" points="47.93 51.47 50.1 53.5 53.01 51.47 51.56 49.44 48.65 50.79 47.93 51.47 48.65 50.79 47.93 51.47 47.93 52.82 48.65 53.5 50.1 53.5 47.93 51.47"/>
      <polyline class="cls-1" points="47.93 56.21 48.65 54.86 50.1 52.82 47.93 51.47 46.47 53.5 47.93 56.21 46.47 53.5 46.47 55.53 47.2 56.21 47.93 56.21 48.65 55.53 48.65 54.86 47.93 56.21"/>
      <polyline class="cls-1" points="42.84 54.86 44.29 56.89 47.93 56.21 47.2 53.5 43.57 54.18 42.84 54.86 43.57 54.18 43.57 54.86 42.11 54.86 42.11 56.21 42.84 56.21 43.57 56.89 44.29 56.89 42.84 54.86"/>
      <polyline class="cls-1" points="42.84 59.6 43.57 58.24 45.02 56.21 42.84 54.86 41.39 57.57 42.84 59.6 41.39 57.57 40.66 58.24 41.39 58.24 41.39 58.92 42.11 58.92 42.11 59.6 42.84 59.6 43.57 58.92 43.57 58.24 42.84 59.6"/>
      <polyline class="cls-1" points="37.03 58.24 39.21 60.27 42.84 59.6 42.11 56.89 37.76 57.57 37.03 58.24 37.76 57.57 37.76 58.24 37.03 58.24 37.03 59.6 37.76 59.6 37.76 60.27 39.21 60.27 37.03 58.24"/>
      <polyline class="cls-1" points="37.76 62.3 38.48 62.3 39.93 59.6 37.03 58.24 36.31 60.95 37.76 62.3 36.31 60.95 35.58 60.95 35.58 62.3 38.48 62.3 37.76 62.3"/>
      <polyline class="cls-1" points="31.95 61.63 33.4 63.66 37.76 62.3 36.31 60.27 32.68 60.95 31.95 61.63 32.68 60.95 31.95 60.95 31.95 63.66 33.4 63.66 31.95 61.63"/>
      <polyline class="cls-1" points="31.22 67.04 31.22 66.37 34.13 62.98 31.95 61.63 29.77 65.01 31.22 67.04 29.77 65.01 29.05 65.69 29.05 66.37 29.77 66.37 29.77 67.04 30.5 67.72 30.5 67.04 31.22 67.04 31.22 66.37 31.22 67.04"/>
      <polyline class="cls-1" points="23.96 66.37 25.42 69.08 31.22 67.04 29.77 65.01 23.96 66.37 23.96 67.04 23.24 67.04 23.24 68.4 23.96 68.4 23.96 69.08 25.42 69.08 23.96 66.37"/>
      <path class="cls-1" d="M87.13,43.34l-7.26,4.74,1.45,2.03,6.54-4.74-.73-2.03M26.87,77.2v.68h-3.63v-.68h-.73v-.68h-.73v-.68l-.73-.67v-2.71l.73-.67.73-.68v-.68h.73l.73-.68v-.67h1.45l-1.45-2.71-.73.67h-.73l-1.45,1.36v.68h-.73l-.73,1.35-.73.68v.68l-.73.67v2.71l.73,1.35.73.68v.68l1.45,1.35h.73l.73.68h.73l.73.68h2.91v-.68h1.45v-.68.68-.68h.73v-1.35h-.73v-.68h-1.45"/>
      <polyline class="cls-1" points="86.41 44.02 86.41 43.34 87.13 43.34 87.86 45.37 88.59 45.37 88.59 44.7 89.31 44.02 89.31 43.34 86.41 44.02"/>
      <polyline class="cls-1" points="84.23 27.77 82.05 28.45 86.41 44.02 89.31 43.34 84.23 27.77"/>
      <polyline class="cls-1" points="83.5 29.12 82.78 29.12 82.78 28.45 82.05 28.45 84.23 27.77 84.23 26.41 82.78 26.41 82.05 27.09 83.5 29.12"/>
      <polyline class="cls-1" points="74.79 31.15 76.24 33.86 83.5 29.12 82.05 27.09 74.79 31.15"/>
      <polyline class="cls-1" points="76.97 32.51 76.97 33.18 76.24 33.18 76.24 33.86 74.79 31.15 74.06 31.15 74.06 33.18 76.97 32.51"/>
      <polyline class="cls-1" points="81.32 48.08 76.97 32.51 74.06 33.18 78.42 49.44 81.32 48.08"/>
      <path class="cls-1" d="M52.28,60.27h.73v-2.03h-2.18l1.45,2.03M79.87,48.08h1.45l-2.9,1.35v.68h2.9l-1.45-2.03"/>
      <polyline class="cls-1" points="23.96 78.56 52.28 60.27 50.83 58.24 21.78 76.53 23.96 78.56"/>
      <polyline class="cls-1" points="21.78 76.53 21.06 76.53 21.06 77.88 21.78 77.88 21.78 78.56 23.96 78.56 21.78 76.53"/>
      <path class="cls-3" d="M57.36,34.54h-1.45l-1.45-.68h-.73l-1.45-1.36h-.73l-1.45-.68-.73-.67-1.45-1.36h-.73l-.73-1.35h-.73c-4.49-3.87-.15-1.09-3.63-4.06l-.73-1.36h-.73v-1.35l-.73-.68v-1.35h-.73v-2.71l.73-.68v-.68h.73v-1.36l.73-.67c.99-1.05,2.25-1.84,3.63-2.03l.73-.67h.73l.73-.68h4.36l1.45-.68.73.68h7.99l.73.68h.73l1.45.67h1.45l1.45.68.73.68h.73l1.45.68.73.67h1.45l1.45,1.36h1.45l1.45,1.36,1.45,1.35,1.45.68v.68l.73.67.73.68h.73l.73,1.36.73.67.73.68v1.36l.73.68v.67l.73.68v2.03l-.73.68v1.36h-.73v1.35h-.73l-.73,1.36h-.73l-1.45,1.35h-.73l-.73.68h-.73l-.73.68h-.73.73v-.68h.73v-.68h1.45v-1.35h.73l.73-.68v-6.1l-.73-.68-.73-.67v-1.36l-1.45-1.36-.73-.67h-.73v-1.36h-1.45v-1.35h-1.45l-2.18-2.03-.73-.67h-1.45l-.73-.68-1.45-.68h-.73l-.73-.68-1.45-.68h-1.45l-.73-.67-1.45-.68h-2.18l-1.45-.68h-.73l-1.45-.68h-8.71l-1.45.68h-1.45l-.73.68h-1.45l-.73.68-.73.67h-.73v.68l-1.45.68v.68l-.73.68h-.73v6.09l.73.68v.68l.73.68v.68l.73.67.73.68.73,1.36h.73l.73,1.35h.73l1.45,1.36.73.67.73.68h1.45v1.36h1.45l.73.68.73.67h.73l1.45.68.73.68h1.45l.73.68v-.68h.73l.73-.68v-.68h.73l.73-.67"/>
      <path class="cls-1" d="M57.36,33.86l1.45.68-1.45.67v-1.35M55.91,34.54l1.45.67v.68l-1.45-1.35.73.67-.73-.67v-.68l1.45,1.35v.68l-1.45-1.35M57.36,35.89l-1.45-.68,1.45.68M55.18,35.21l1.45,1.36-1.45-1.36h.73-.73l.73-.67,1.45,1.35-.73.68-1.45-1.36M54.46,35.21l.73,1.36-.73-1.36h.73l1.45,1.36h-.73l-1.45-1.36M54.46,35.89v-.68l1.45,1.36-1.45-.68M55.91,36.57v.68l-.73-.68h.73M54.46,36.57h0v-.68l1.45,1.36-1.45-.68M53.73,36.57h.73l1.45.68v.67l-2.18-1.35M55.91,37.92h-1.45v-.67l1.45.67M53.73,35.89l1.45.68-.73,1.35h-1.45l.73-2.03M53.01,35.21l.73.68-.73,2.03-.73-.67.73-2.03M52.28,37.25v-.68.68M51.56,35.21h1.45l-.73,2.03-1.45-.68.73-1.36M50.83,36.57h.73-.73l.73-.68-.73.68M50.83,34.54l.73.67-.73,1.36h-.73l.73-2.03M50.1,36.57v-1.36,1.36M50.1,33.86l.73.68-.73,2.03-1.45-.68,1.45-2.03M48.65,35.89l.73-.68-.73.68M48.65,33.86h1.45l-1.45,2.03-.73-.68.73-1.35M47.93,35.21l.73-.67-.73.67M47.93,33.18l.73.68-.73,1.35-.73-.67.73-1.36M47.2,34.54l.73-.68-.73.68M47.93,32.51v.68l-.73,1.36-.73-.68,1.45-1.36M46.47,32.51h1.45l-1.45,1.36h-1.45l1.45-1.36M45.02,33.86h.73-.73l1.45-1.36-1.45,1.36M45.75,31.83l.73.68-1.45,1.36v-.68l.73-1.36M45.02,33.18v-.68.68M45.02,31.15l.73.67-.73,1.36-1.45-.68,1.45-1.35M43.57,32.51l.73-.68-.73.68M44.29,30.48l.73.68-1.45,1.35-.73-.68,1.45-1.35M42.84,31.83l.73-.67-.73.67M43.57,29.8l.73.68-1.45,1.35-.73-.67,1.45-1.36M42.11,31.15l.73-.68-.73.68M42.84,29.12l.73.68-1.45,1.36-.73-.68,1.45-1.36M42.11,28.45l.73.67-1.45,1.36-.73-.68,1.45-1.35M40.66,29.8h.73-.73M41.39,28.45h.73l-1.45,1.35h-.73l1.45-1.35M39.93,29.8l.73-1.35-.73,1.35M40.66,27.09l.73,1.36-1.45,1.35-.73-1.35,1.45-1.36M39.21,28.45h.73-.73M40.66,27.09l4.36,4.74-4.36-4.74h-1.45,1.45v.68l-1.45.68,1.45-1.36M39.21,26.41l1.45.68-1.45,1.36-1.45-1.36,1.45-.68M37.76,27.09h1.45-1.45M39.21,25.74v.67l-1.45.68,1.45-1.35M37.76,27.09l.73-.68-.73.68M38.48,25.06l.73.68-1.45,1.35-.73-1.35,1.45-.68M37.03,25.74h.73-.73M38.48,24.38l.73.68-2.18.68h-.73l2.18-1.36M36.31,25.74l1.45-.68-1.45.68M37.76,23.7l.73.68-2.18,1.36v-1.36l1.45-.68M36.31,24.38h.73-.73M37.76,23.02v.68l-1.45.68,1.45-1.36M36.31,24.38l.73-.68-.73.68M37.76,23.02l-1.45,1.36-.73-1.36h2.18M35.58,23.02h.73-.73M37.03,22.35l.73,2.71-.73-2.71h-.73.73l.73.67h-2.18l1.45-.67M37.03,21.67v.68l-1.45.67-.73-.67,2.18-.68M34.85,22.35h1.45-1.45M37.03,20.99v.68l-2.18.68v-.68l2.18-.68M34.85,21.67v-.68h1.45l-1.45.68M37.03,20.99v-.68.68h-.73.73-2.18,2.18M37.03,19.64v1.35h-2.18v-1.35h2.18M34.85,19.64h1.45-1.45M37.03,19.64v.67l-2.18-.67h2.18M34.85,19.64v-.68.68h1.45-1.45M37.03,18.96v.68h-2.18v-1.36l2.18.68M34.85,18.29l1.45.68-1.45-.68M37.03,18.29v.68l-2.18-.68h2.18M34.85,18.29h1.45-1.45M37.03,18.29h-2.18l.73-1.35,1.45,1.35M35.58,16.93l.73.67-.73-.67M37.76,17.61l1.45-2.71-1.45,2.71-1.45-.67,1.45.67-.73.68-1.45-1.35,2.18.67M37.76,16.93v.67l-2.18-.67.73-.68,1.45.68M36.31,16.26l.73.68-.73-.68M37.76,16.93l-1.45-.68v-.68l1.45,1.36M36.31,15.58l1.45.68-1.45-.68M38.48,16.26l-.73.68-1.45-1.36.73-.68,1.45,1.36M39.21,15.58l-.73.68-1.45-1.36.73-.68,1.45,1.36M37.76,14.22v1.36-1.36M39.21,15.58l-1.45-1.36,1.45,1.36M37.76,14.22l1.45.68-1.45-.68M39.93,14.9l-.73-.68.73.68-.73.68-1.45-1.36,1.45-.67.73,1.35M40.66,14.22l-.73.68-.73-1.35v-.68l1.45,1.35M39.21,12.87l.73,1.35-.73-1.35M40.66,14.22l-1.45-1.35h.73l.73,1.35M42.11,14.22h-1.45l-.73-1.35.73-.68,1.45,2.03M40.66,12.19l.73.68-.73-.68M42.11,14.22v-.67.67-1.35,1.35h-.73l-.73-2.03h1.45v2.03M43.57,13.55l-1.45.67v-2.71l1.45,2.03M42.11,11.51l.73,1.36-.73-1.36M43.57,12.87l-3.63,1.35,3.63-1.35v-.68.68l-.73.68-.73-2.03h1.45v1.36M45.02,12.87h-1.45v-1.36h.73l.73,1.36M44.29,11.51v.68-.68M45.75,12.87h-.73l-.73-1.36h.73l.73,1.36M45.02,11.51v.68-.68M46.47,12.87h-.73l-.73-1.36,1.45-.67v2.03M46.47,10.84v.67-.67M47.2,12.87h-.73v-2.03h.73v2.03M47.2,10.84h-.73.73v.67-.67M47.93,12.87h-.73v-2.03h.73v2.03M47.93,10.84v.67-.67M48.65,12.87h-.73v-2.03h.73v2.03M50.1,12.87h-1.45v-2.03h1.45v2.03M50.1,10.84v.67-.67M50.83,12.87h-.73v-2.03h.73v2.03M50.83,10.84v.67-.67M51.56,12.87h-.73v-2.03h1.45l-.73,2.03M52.28,10.84v.67-.67M53.01,12.87h-1.45l.73-2.03h.73v2.03M53.01,10.84v.67-.67M54.46,12.87h-1.45v-2.03h1.45v2.03M54.46,10.84v.67-.67M55.18,12.87v-1.36,1.36h-.73v-2.03h1.45l-.73,2.03M56.64,12.87h-1.45l.73-2.03.73.67v1.36M56.64,11.51v.68-.68M57.36,12.87h-1.45l.73-1.36h1.45l-.73,1.36M58.09,11.51l-.73.68.73-.68M58.81,13.55l-1.45-.68.73-1.36h.73v2.03M59.54,13.55h-.73v-2.03h1.45l-.73,2.03M60.27,11.51v1.36-1.36M60.99,14.22l-1.45-.67.73-1.36h1.45l-.73,2.03M61.72,14.22h-.73l.73-2.03.73.68-.73,1.35M62.44,12.87h.73l-.73.68v-.68M63.17,14.9l-1.45-.68,1.45-1.35h.73l-.73,2.03M63.9,12.87l-2.91-.68,2.91.68-.73,1.35.73-1.35M64.62,14.9h-1.45l.73-2.03.73.68v1.35M64.62,13.55h.73-.73v.67-.67M65.35,15.58l-.73-.68v-1.35l1.45.67-.73,1.36M66.08,14.22v.68-.68M66.08,15.58h-.73l.73-1.36h1.45l-1.45,1.36M67.53,14.22l-.73,1.36.73-1.36M67.53,16.26l-1.45-.68,1.45-1.36.73.68-.73,1.36M68.26,14.9l-.73.68.73-.68M68.98,16.93l-1.45-.68.73-1.36.73.68v1.36M68.98,15.58h.73-.73v.68-.68M69.71,17.61l-.73-.67v-1.36h.73v2.03M69.71,15.58h.73l-.73,1.36v-1.36M70.43,18.29l-.73-.68.73-2.03.73.68-.73,2.03M71.16,16.26v.68-.68M71.16,18.29h-1.45l1.45-2.03,1.45.68-1.45,1.35M72.61,16.93l-.73.67.73-.67M71.89,18.96l-.73-.68,1.45-1.35v.67l-.73,1.36M72.61,17.61h.73l-.73.68v-.68M72.61,19.64l-.73-.68,1.45-1.36.73.68-1.45,1.36M74.06,18.29l-.73.68.73-.68M74.06,20.32l-1.45-.67,1.45-1.36h.73l-.73,2.03M74.79,18.29v.68l-.73.68.73-1.36M74.06,20.99v-.68l.73-1.35.73.68-1.45,1.35M75.52,20.99h-1.45l1.45-1.35h.73l-.73,1.35M75.52,22.35v-1.36l.73-1.35.73,1.35-1.45,1.36M76.97,22.35h-1.45l1.45-1.36h.73l-.73,1.36M77.69,20.99h.73l-1.45,1.36.73-1.36M76.97,23.02l-.73-.67,2.18-1.36v1.36l-1.45.67M77.69,23.7l-.73-.68,1.45-.67h.73l-1.45,1.35M79.15,22.35l-.73.67.73-.67M78.42,24.38l-.73-.68,1.45-1.35.73.67-1.45,1.36M79.87,23.02l-.73.68.73-.68M78.42,25.06v-.68l1.45-1.36v.68l-1.45,1.36M79.87,23.7v.68-.68M79.15,25.74l-.73-.68,1.45-1.36.73.68-1.45,1.36M80.6,24.38l-.73.68.73-.68M79.87,25.74h-.73l1.45-1.36.73.68-1.45.68M81.32,25.06l-1.45.68,1.45-.68M79.87,27.09v-1.35l1.45-.68v.68l-1.45,1.35M81.32,25.74l-.73.67.73-.67M79.87,27.09l1.45-1.35.73.67-2.18.68M82.05,26.41v.68h-.73l.73-.68M80.6,27.77l-.73-.68h2.18l-1.45.68M82.05,27.09l-.73.68.73-.68M80.6,28.45l-.73-.68,2.18-.68.73,1.36h-2.18M80.6,29.12v-.67h2.18l-2.18.67M82.78,28.45l-1.45.67,1.45-.67M80.6,29.8v-.68l2.18-.67v1.35h-2.18M82.78,29.8h-1.45,1.45M80.6,30.48v-.68h2.18v.68h-2.18M82.78,30.48h-1.45,1.45M80.6,31.15v-1.36l2.18.68v.68h-2.18M82.78,31.15h-1.45,1.45M80.6,31.15h2.18v.67l-2.18-.67M82.78,31.83l-1.45-.67,1.45.67M80.6,31.83v-.67l2.18.67v.68l-2.18-.68M82.78,32.51l-1.45-.68,1.45.68M80.6,32.51v-.68l2.18.68h-2.18M82.05,32.51h-.73.73M79.87,32.51l2.18.68v.68l-2.18-1.36v1.36-1.36h1.45-1.45l.73-.68,1.45.68v.68l-2.18-.68M82.05,33.86l-.73-.68.73.68M79.87,33.18v-.68l2.18,1.36h-.73l-1.45-.68M81.32,33.86h-.73.73M79.87,33.18l.73.68-.73-.68,1.45.68v.68l-1.45-1.36M79.87,33.86v-.68l1.45.68v.68l-1.45-.68M81.32,34.54l-1.45-.68,1.45.68M79.15,33.86h.73l1.45.68-.73.67-1.45-1.35M80.6,35.21l-.73-.67.73.67M79.15,33.86l.73.68-.73-.68,1.45,1.35-1.45-1.35M78.42,34.54l.73-.68,1.45,1.35-.73.68-1.45-1.35M79.87,35.89v-.68.68M78.42,34.54l1.45,1.35-1.45-1.35M79.87,35.89l-.73-.68.73.68M78.42,35.21h-.73.73v-.67l1.45,1.35-.73.68-.73-1.36M77.69,35.21h.73l.73,1.36h-.73l-.73-1.36M78.42,36.57v-.68.68M76.97,35.21h.73l.73,1.36-1.45-1.36M78.42,36.57l-.73-.68.73.68M76.97,35.21l1.45,1.36v.68l-1.45-2.03M78.42,37.25h-.73v-.68l.73.68M76.97,35.89v-.68l.73,2.03-.73-1.36M76.97,37.25l-14.52,4.74,14.52-6.1v1.36M78.42,37.25l-.73-.68.73.68h-1.45v-2.03h.73l.73,2.03M79.15,36.57l-.73-.68.73.68-.73.68-.73-2.03h.73l.73,1.36M79.87,36.57h-.73l-.73-1.36h.73l.73,1.36M80.6,36.57l-.73-1.36.73,1.36h-.73l-.73-1.36.73-.67.73,2.03M81.32,35.89l-.73-.68.73.68-.73.68-.73-2.03v-.68l1.45,2.03M82.05,35.21l-.73-.67.73.67-.73.68-1.45-2.03h.73l1.45,1.35M82.78,35.21l-.73-1.35.73,1.35h-.73l-1.45-1.35h.73l1.45,1.35M82.78,34.54v-.68,1.35l-1.45-1.35.73-.68.73,1.36M83.5,33.86h-.73.73l-.73.68-1.45-1.36,1.45-.68.73,1.36M84.23,33.86h-.73l-1.45-1.36h.73l1.45,1.36M84.23,33.18v-.68,1.36l-1.45-1.36v-.68l1.45,1.36M84.95,32.51l-.73-.68.73.68-.73.68-1.45-1.36.73-.67,1.45,1.35M85.68,31.83l-1.45-.67,1.45.67-.73.68-1.45-1.35h.73l1.45.67M85.68,31.15h-.73.73v.67l-2.18-.67.73-.68,1.45.68M85.68,30.48h-.73.73v.68l-1.45-.68v-.68l1.45.68M85.68,29.8h-.73.73v.68l-1.45-.68h1.45M86.41,29.12h-.73.73l-.73.68h-1.45v-.68h2.18M86.41,28.45h-.73.73v.67h-2.18v-.67h2.18M86.41,27.77v.68h-2.18v-.68h2.18M86.41,27.09h-.73.73v.68h-2.18v-.68h2.18M85.68,26.41h-.73.73l.73.68h-2.18l1.45-.68M85.68,25.74h-.73.73v.67l-1.45.68v-1.35h1.45M85.68,25.06h-1.45,1.45v.68h-2.18l2.18-.68M85.68,24.38v.68l-2.18.68v-1.36h2.18M84.95,24.38h.73-1.45.73M84.95,23.02l-.73.68.73-.68v1.36l-1.45.68-.73-.68,2.18-1.36M84.23,23.02h-.73,1.45l-2.18,1.36v-.68l1.45-.68M84.23,22.35h-1.45,1.45v.67l-1.45.68v-.68l1.45-.67M83.5,21.67l-.73.68.73-.68.73.68-1.45.67-.73-.67,1.45-.68M82.78,20.99h-.73.73l.73.68-1.45.68h-.73l1.45-1.36M82.05,20.32l-.73.68.73-.68.73.68-1.45,1.36-.73-1.36,1.45-.68M81.32,19.64l-.73.67.73-.67.73.67-1.45.68h-.73l1.45-1.35M80.6,18.96l.73.68-1.45,1.35v-.68l.73-1.35M79.87,20.32l-2.18-1.35,2.18,1.35v-.67.67M79.87,18.29v.68-.68l.73.68-.73,1.35-1.45-.67,1.45-1.36M79.15,17.61l-.73.68.73-.68.73.68-1.45,1.36v-.68l.73-1.36M78.42,16.93l-.73.67.73-.67.73.67-.73,1.36-1.45-.68,1.45-1.35M77.69,16.26l.73.68-1.45,1.35-.73-.68,1.45-1.35M76.24,17.61l.73-.67-.73.67M76.97,15.58l-.73.68.73-.68.73.68-1.45,1.35-.73-.67,1.45-1.36M75.52,15.58h1.45l-1.45,1.36h-.73l.73-1.36M74.79,16.93l.73-1.36-.73,1.36M74.79,14.22l-.73,1.36.73-1.36.73,1.36-.73,1.36-.73-.68.73-2.03M74.06,14.22h.73l-.73,2.03-1.45-.68,1.45-1.36M72.61,15.58l.73-.68-.73.68M72.61,13.55v.67-.67l1.45.67-1.45,1.36-.73-.68.73-1.35M71.89,12.87l.73.68-.73,1.35-.73-.68.73-1.35M70.43,12.87v.68-.68h1.45l-.73,1.35h-1.45l.73-1.35M69.71,12.19l-.73.68.73-.68.73.68-.73,1.35-.73-.67.73-1.36M68.98,11.51l-.73,1.36.73-1.36.73.68-.73,1.36h-1.45l1.45-2.03M67.53,11.51h1.45l-1.45,2.03-.73-.68.73-1.36M66.08,10.84v.67-.67l1.45.67-.73,1.36h-.73v-2.03M64.62,10.16l1.45.68v2.03l-1.45-.68v-2.03M64.62,12.19v-.68.68M63.9,10.16l-.73.68.73-.68h.73v2.03l-1.45-.68.73-1.35M63.17,10.16h.73l-.73,1.35h-.73l.73-1.35M62.44,10.16h.73l-.73.68v-.68M61.72,9.48l.73.68v1.35h-1.45l.73-2.03M60.27,9.48v.68-.68h1.45l-.73,2.03h-.73v-2.03M58.81,8.8v1.36-1.36l1.45.68v2.03l-1.45-.67v-2.03M58.09,8.8v1.36-1.36h.73v2.03h-1.45l.73-2.03M56.64,8.8h.73-.73v1.36-1.36h1.45l-.73,2.03h-.73v-2.03M55.91,8.8v1.36-1.36h.73v2.03h-.73v-2.03M54.46,8.8v1.36-1.36h1.45v2.03h-1.45v-2.03M53.73,8.8h.73v2.03h-.73v-2.03M53.01,8.8h.73v2.03l-1.45-.68.73-1.36M52.28,8.8h.73v.68l-.73-.68M51.56,8.8h.73l.73,1.36-1.45.68v-2.03M50.1,8.8v1.36-1.36h1.45v2.03h-.73l-.73-2.03M49.38,8.8v1.36-1.36h.73l.73,2.03h-.73l-.73-2.03M48.65,8.8v1.36-1.36h.73l.73,2.03h-1.45v-2.03M47.93,9.48l.73-.68v2.03l-.73.67v-2.03M47.2,9.48h.73v2.03h-.73v-2.03M46.47,9.48h.73v.68l-.73-.68M46.47,10.16v.68-1.36l1.45,2.03h-1.45v-1.35M45.02,10.16l.73.68-.73-.68h1.45v1.35h-.73l-.73-1.35M44.29,10.16h.73l1.45,1.35-1.45.68-.73-2.03M43.57,10.84l.73.67-.73-.67.73-.68.73,2.03v.68l-1.45-2.03M42.84,11.51l.73-.67,1.45,1.35-.73.68-1.45-1.36M42.11,11.51l.73.68-.73-.68h.73l1.45,1.36h-.73l-1.45-1.36M42.11,12.19v.68-1.36l1.45,1.36-.73.68-.73-1.36M41.39,12.87h.73-.73l.73-.68.73,1.36-.73.67-.73-1.35M40.66,12.87l.73.68-.73-.68h.73l.73,1.35-1.45-1.35M39.93,13.55l.73.67-.73-.67.73-.68,1.45,1.35v.68l-2.18-1.35M39.93,14.22h.73-.73v-.67l2.18.67-.73,1.36-1.45-1.36M39.21,14.9l1.45.68-1.45-.68.73-.68,1.45.68-.73.68-1.45-.68M39.21,15.58l1.45.68v.68l-1.45-1.36h.73-.73v-.68l1.45.68v.68l-1.45-.68M39.21,16.26v-.68l.73.68h-.73M38.48,16.93h.73-.73l.73-.68,1.45.68h-2.18M38.48,17.61h.73-.73v-.67h2.18v.67h-2.18M38.48,18.29h.73-.73v-.68h2.18v.68h-2.18M38.48,18.96v-.68.68l.73-.68-.73.68v-.68h2.18l-2.18.68M38.48,19.64h.73-.73v-.68l2.18-.68v1.36h-2.18M39.21,19.64h-.73l2.18-.68v.68h-1.45M40.66,19.64h-.73.73M39.21,20.99l1.45-.68v.68h-1.45l.73-.68-.73.68v-1.35h1.45v.67l-1.45.68M39.21,21.67v-.68h.73l-.73.68M39.21,22.35l2.18,4.06-2.18-4.06,1.45-.68-1.45.68v-.68l1.45-.68h.73l-2.18,1.36M39.93,22.35h.73-1.45l2.18-1.36v1.36h-1.45M39.93,23.02h.73-.73v-.67h2.18l-2.18.67M40.66,23.7l.73-.68-.73.68-.73-.68,2.18-.67v.67l-1.45.68M40.66,24.38h1.45-1.45v-.68l1.45-.68v.68l-1.45.68M41.39,25.06l.73-.68-.73.68-.73-.68,1.45-.68.73.68-1.45.68M42.11,25.74l.73-.68-.73.68-.73-.68,1.45-.68h.73l-1.45,1.36M42.11,26.41l1.45-.67-1.45.67v-.67l1.45-1.36v1.36l-1.45.67M43.57,27.09v-.68.68l-1.45-.68,1.45-.67h1.45l-1.45,1.35M43.57,27.77v-.68l.73-1.35.73.67-1.45,1.36M44.29,28.45l.73-.68-.73.68-.73-.68,1.45-1.36.73.68-1.45,1.36M45.02,29.12l.73-.67-.73.67-.73-.67,1.45-1.36.73.68-1.45,1.35M45.75,29.8l.73-1.35-.73,1.35-.73-.68,1.45-1.35.73.68-1.45,1.35M46.47,29.8h-.73l1.45-1.35h.73l-1.45,1.35M47.2,31.15l-.73-1.36,1.45-1.35.73,1.35-1.45,1.36M47.93,31.15l.73-2.03.73.68-1.45,1.36h-.73l.73-1.36v1.36M49.38,29.8h-.73.73l-.73.68.73-.68M48.65,31.83l.73-.67-.73.67-.73-.67,1.45-1.36.73.68-1.45,1.35M50.1,32.51l.73.68-.73-.68v-.68.68l-1.45-.68,1.45-1.35.73.68-.73,1.35M50.83,32.51h.73-1.45l.73-1.35h.73l-.73,1.35M51.56,33.18l-.73-.68.73-1.35,1.45.67-1.45,1.36M51.56,33.86v-.68l.73-.68-.73,1.36M53.01,33.86h-1.45l.73-2.03.73.68v1.36M53.73,34.54v-.68.68l-.73-.68v-1.36h1.45l-.73,2.03M54.46,35.21v-1.35,1.35l-.73-.67.73-2.03.73.68-.73,2.03M55.91,35.21h-1.45l.73-2.03.73.68v1.35M56.64,35.21h-.73v-1.35h1.45l-.73,1.35"/>
      <polyline class="cls-1" points="55.91 49.44 55.91 48.76 55.18 48.08 53.01 48.08 53.01 49.44 55.91 49.44"/>
      <polyline class="cls-1" points="58.81 58.92 55.91 49.44 53.01 49.44 55.91 59.6 58.81 58.92"/>
      <polyline class="cls-1" points="55.91 59.6 56.64 60.27 56.64 60.95 58.09 60.95 58.09 60.27 58.81 60.27 58.81 58.92 55.91 59.6"/>
      <line class="cls-5" x1="69.7" y1="34.6" x2="74.79" y2="52.88"/>
      <line class="cls-5" x1="66.07" y1="37.31" x2="71.16" y2="55.59"/>
      <line class="cls-5" x1="63.17" y1="39.34" x2="67.53" y2="57.63"/>
      <line class="cls-5" x1="58.81" y1="42.05" x2="63.9" y2="59.66"/>
      <polyline class="cls-3" points="34.13 53.5 10.89 52.14 11.62 29.12 34.85 29.8 34.13 53.5"/>
      <polygon class="cls-6" points="34.12 53.56 10.89 52.21 11.61 29.19 34.85 29.86 34.12 53.56"/>
      <path class="cls-4" d="M18.15,34.54l3.63.67h2.18l.73,1.36.73,1.35v1.36l-.73,1.35-1.45.68h-5.81l.73-6.77M17.43,50.11v-6.77h4.36l2.18-.67,2.18-.68.73-2.03.73-2.03v-1.35l-.73-1.36-.73-1.35-1.45-.68h-2.9l-5.81-.68-.73,17.61h2.18"/>
    </g>
  </g>
</svg>