<?xml version="1.0" encoding="UTF-8"?>
<svg id="Layer_2" data-name="Layer 2" xmlns="http://www.w3.org/2000/svg" width="454.85" height="472.7" xmlns:xlink="http://www.w3.org/1999/xlink" viewBox="0 0 454.85 472.7">
  <defs>
    <style>
      .cls-1, .cls-2, .cls-3, .cls-4 {
        fill: none;
      }

      .cls-1, .cls-2, .cls-4 {
        stroke: #231f20;
        stroke-miterlimit: 10;
      }

      .cls-5 {
        letter-spacing: -.16em;
      }

      .cls-6 {
        letter-spacing: -.21em;
      }

      .cls-7 {
        letter-spacing: -.06em;
      }

      .cls-8 {
        font-size: 17.46px;
      }

      .cls-8, .cls-9, .cls-10, .cls-11, .cls-12 {
        fill: #231f20;
      }

      .cls-8, .cls-10 {
        font-family: ArialMT, Arial;
      }

      .cls-9 {
        font-family: Arial-BoldMT, Arial;
        font-size: 23.28px;
        font-weight: 700;
      }

      .cls-13 {
        fill: #e6e7e8;
      }

      .cls-13, .cls-3 {
        stroke-width: 0px;
      }

      .cls-10, .cls-12 {
        font-size: 13.99px;
      }

      .cls-14 {
        letter-spacing: 1.29em;
      }

      .cls-2 {
        stroke-width: .4px;
      }

      .cls-15 {
        letter-spacing: 1.94em;
      }

      .cls-16 {
        letter-spacing: -.11em;
      }

      .cls-17 {
        letter-spacing: -.06em;
      }

      .cls-4 {
        stroke-width: 2px;
      }

      .cls-18 {
        letter-spacing: 1.79em;
      }

      .cls-19 {
        clip-path: url(#clippath);
      }

      .cls-20 {
        letter-spacing: 0em;
      }

      .cls-21 {
        letter-spacing: -.16em;
      }

      .cls-22 {
        letter-spacing: 1.89em;
      }

      .cls-23 {
        letter-spacing: -.21em;
      }

      .cls-11 {
        font-size: 14.55px;
      }

      .cls-11, .cls-12 {
        font-family: ArialUnicodeMS, 'Arial Unicode MS';
      }

      .cls-24 {
        letter-spacing: 1.44em;
      }

      .cls-25 {
        letter-spacing: 1.69em;
      }

      .cls-26 {
        letter-spacing: -.1em;
      }

      .cls-27 {
        letter-spacing: 1.54em;
      }

      .cls-28 {
        letter-spacing: -.11em;
      }
    </style>
    <clipPath id="clippath">
      <rect class="cls-3" y=".97" width="453.12" height="471.73"/>
    </clipPath>
  </defs>
  <g id="Assets">
    <g id="graph_02" data-name="graph 02">
      <g class="cls-19">
        <g>
          <rect class="cls-13" x="143.02" y="51.53" width="163.31" height="372.01"/>
          <rect class="cls-2" x="143.02" y="51.59" width="163.31" height="371.99"/>
          <line class="cls-1" x1="88.08" y1="51.59" x2="88.08" y2="423.59"/>
          <line class="cls-1" x1="143.02" y1="51.59" x2="143.02" y2="423.59"/>
          <line class="cls-1" x1="197.2" y1="51.59" x2="197.2" y2="423.59"/>
          <line class="cls-1" x1="252.14" y1="51.59" x2="252.14" y2="423.59"/>
          <line class="cls-1" x1="306.33" y1="51.59" x2="306.33" y2="423.59"/>
          <line class="cls-1" x1="361.27" y1="51.59" x2="361.27" y2="423.59"/>
          <line class="cls-1" x1="416.21" y1="423.59" x2="416.21" y2="51.59"/>
          <line class="cls-1" x1="28.62" y1="377.26" x2="420.72" y2="377.26"/>
          <line class="cls-1" x1="28.62" y1="330.23" x2="420.72" y2="330.23"/>
          <line class="cls-1" x1="28.62" y1="283.91" x2="420.72" y2="283.91"/>
          <line class="cls-1" x1="28.62" y1="237.59" x2="420.72" y2="237.59"/>
          <line class="cls-1" x1="28.62" y1="191.26" x2="420.72" y2="191.26"/>
          <line class="cls-1" x1="28.62" y1="144.24" x2="420.72" y2="144.24"/>
          <line class="cls-1" x1="28.62" y1="97.91" x2="420.72" y2="97.91"/>
          <line class="cls-1" x1="28.62" y1="50.89" x2="420.72" y2="50.89"/>
          <line class="cls-1" x1="28.62" y1="423.58" x2="421.48" y2="423.58"/>
          <line class="cls-1" x1="33.89" y1="51.58" x2="33.89" y2="423.58"/>
          <text class="cls-10" transform="translate(425.24 437.58) scale(1.08 1)"><tspan x="0" y="0">rpm</tspan></text>
          <text class="cls-8" transform="translate(397.39 15.04) scale(1.08 1)"><tspan class="cls-28" x="0" y="0">T</tspan><tspan x="8.75" y="0">orque</tspan></text>
          <text class="cls-8" transform="translate(424.48 35.39) scale(1.08 1)"><tspan x="0" y="0">Nm</tspan></text>
          <text class="cls-8" transform="translate(.01 15.74) scale(1.08 1)"><tspan x="0" y="0">Power</tspan></text>
          <text class="cls-8" transform="translate(.78 36.09) scale(1.08 1)"><tspan x="0" y="0">kW</tspan></text>
          <text class="cls-12" transform="translate(21.1 436.88) scale(1.08 1)"><tspan class="cls-17" x="0" y="0">8</tspan><tspan class="cls-16" x="7" y="0">0</tspan><tspan class="cls-22" x="13.3" y="0">0</tspan><tspan x="47.57" y="0">1</tspan><tspan class="cls-21" x="55.35" y="0">0</tspan><tspan class="cls-17" x="60.86" y="0">0</tspan><tspan class="cls-25" x="67.86" y="0">0</tspan><tspan x="99.33" y="0">1</tspan><tspan class="cls-23" x="107.11" y="0">2</tspan><tspan class="cls-17" x="111.93" y="0">0</tspan><tspan class="cls-27" x="118.93" y="0">0</tspan><tspan x="148.3" y="0">1</tspan><tspan class="cls-21" x="156.08" y="0">4</tspan><tspan class="cls-17" x="161.59" y="0">0</tspan><tspan class="cls-15" x="168.59" y="0">0</tspan><tspan x="203.56" y="0">1</tspan><tspan class="cls-5" x="211.34" y="0">6</tspan><tspan class="cls-16" x="216.86" y="0">0</tspan><tspan class="cls-24" x="223.16" y="0">0</tspan><tspan x="251.13" y="0">1</tspan><tspan class="cls-23" x="258.91" y="0">8</tspan><tspan class="cls-7" x="263.73" y="0">0</tspan><tspan class="cls-18" x="270.72" y="0">0</tspan><tspan x="303.59" y="0">2</tspan><tspan class="cls-21" x="311.38" y="0">0</tspan><tspan class="cls-16" x="316.89" y="0">0</tspan><tspan class="cls-14" x="323.19" y="0">0</tspan><tspan x="349.06" y="0">2</tspan><tspan class="cls-6" x="356.85" y="0">2</tspan><tspan class="cls-17" x="361.66" y="0">0</tspan><tspan x="368.66" y="0">0</tspan></text>
          <polyline class="cls-4" points="33.14 423.59 60.23 382.88 88.08 349.19 115.17 316.9 169.36 259.35 197.2 235.49 210.75 217.24 224.3 212.32 251.39 196.88 279.24 180.04 306.33 163.19 333.42 158.98 360.52 159.68 388.36 160.38 415.46 158.28"/>
          <g>
            <line class="cls-4" x1="33.89" y1="405.34" x2="33.89" y2="402.53"/>
            <line class="cls-4" x1="34.64" y1="399.72" x2="35.39" y2="396.91"/>
            <line class="cls-4" x1="36.15" y1="394.11" x2="36.9" y2="391.3"/>
            <line class="cls-4" x1="36.9" y1="388.49" x2="37.65" y2="385.68"/>
            <line class="cls-4" x1="38.4" y1="382.88" x2="39.15" y2="380.07"/>
            <line class="cls-4" x1="39.15" y1="377.26" x2="39.9" y2="374.45"/>
            <line class="cls-4" x1="40.66" y1="371.64" x2="41.41" y2="369.54"/>
            <line class="cls-4" x1="42.16" y1="366.73" x2="42.16" y2="363.92"/>
            <line class="cls-4" x1="42.92" y1="361.11" x2="43.67" y2="358.31"/>
            <line class="cls-4" x1="44.42" y1="355.5" x2="45.17" y2="352.69"/>
            <line class="cls-4" x1="45.17" y1="349.88" x2="45.92" y2="347.07"/>
            <line class="cls-4" x1="46.68" y1="344.26" x2="47.43" y2="341.45"/>
            <line class="cls-4" x1="48.18" y1="338.65" x2="48.18" y2="336.54"/>
            <line class="cls-4" x1="48.93" y1="333.74" x2="49.68" y2="330.93"/>
            <line class="cls-4" x1="50.44" y1="328.12" x2="51.19" y2="325.31"/>
            <line class="cls-4" x1="51.19" y1="322.5" x2="51.94" y2="319.7"/>
            <line class="cls-4" x1="52.69" y1="316.89" x2="53.44" y2="314.08"/>
            <line class="cls-4" x1="54.2" y1="311.27" x2="54.2" y2="308.46"/>
            <line class="cls-4" x1="54.95" y1="305.65" x2="55.7" y2="302.85"/>
            <line class="cls-4" x1="56.45" y1="300.74" x2="56.45" y2="297.93"/>
            <line class="cls-4" x1="57.21" y1="295.13" x2="57.96" y2="292.32"/>
            <line class="cls-4" x1="58.71" y1="289.51" x2="59.46" y2="286.7"/>
            <line class="cls-4" x1="59.46" y1="283.89" x2="60.21" y2="281.08"/>
            <line class="cls-4" x1="60.97" y1="278.27" x2="62.47" y2="276.17"/>
            <line class="cls-4" x1="63.22" y1="273.36" x2="64.73" y2="270.56"/>
            <line class="cls-4" x1="65.48" y1="267.75" x2="66.98" y2="265.64"/>
            <line class="cls-4" x1="67.73" y1="262.83" x2="68.49" y2="260.02"/>
            <line class="cls-4" x1="69.99" y1="257.22" x2="70.74" y2="255.11"/>
            <line class="cls-4" x1="72.25" y1="252.3" x2="73" y2="249.5"/>
            <line class="cls-4" x1="74.5" y1="247.39" x2="75.25" y2="244.58"/>
            <line class="cls-4" x1="76.76" y1="241.77" x2="77.51" y2="238.97"/>
            <line class="cls-4" x1="79.01" y1="236.86" x2="79.76" y2="234.05"/>
            <line class="cls-4" x1="81.27" y1="231.25" x2="82.02" y2="229.14"/>
            <line class="cls-4" x1="82.78" y1="226.33" x2="84.28" y2="223.52"/>
            <line class="cls-4" x1="85.03" y1="220.71" x2="86.54" y2="218.61"/>
            <polyline class="cls-4" points="87.29 215.8 88.04 214.4 88.79 213"/>
            <line class="cls-4" x1="90.3" y1="210.89" x2="91.8" y2="208.08"/>
            <line class="cls-4" x1="93.31" y1="205.98" x2="94.81" y2="203.17"/>
            <line class="cls-4" x1="96.32" y1="201.06" x2="97.07" y2="198.26"/>
            <line class="cls-4" x1="98.58" y1="196.15" x2="100.08" y2="193.34"/>
            <line class="cls-4" x1="101.59" y1="191.24" x2="103.09" y2="188.43"/>
            <line class="cls-4" x1="104.6" y1="186.32" x2="106.1" y2="183.52"/>
            <line class="cls-4" x1="107.61" y1="181.41" x2="109.11" y2="178.6"/>
            <line class="cls-4" x1="110.62" y1="176.5" x2="112.12" y2="173.69"/>
            <line class="cls-4" x1="112.87" y1="171.59" x2="114.38" y2="168.78"/>
            <line class="cls-4" x1="116.64" y1="166.67" x2="118.89" y2="164.57"/>
            <line class="cls-4" x1="121.15" y1="163.16" x2="123.41" y2="161.05"/>
            <line class="cls-4" x1="125.67" y1="158.95" x2="127.92" y2="156.85"/>
            <line class="cls-4" x1="130.18" y1="155.44" x2="131.69" y2="153.33"/>
            <line class="cls-4" x1="133.94" y1="151.23" x2="136.2" y2="149.83"/>
            <line class="cls-4" x1="138.46" y1="147.72" x2="140.72" y2="145.61"/>
            <line class="cls-4" x1="142.98" y1="143.51" x2="145.23" y2="142.1"/>
            <line class="cls-4" x1="147.49" y1="140" x2="149.75" y2="137.89"/>
            <line class="cls-4" x1="152.01" y1="136.48" x2="154.27" y2="134.38"/>
            <line class="cls-4" x1="156.53" y1="132.28" x2="158.78" y2="130.87"/>
            <line class="cls-4" x1="161.04" y1="128.76" x2="163.3" y2="126.66"/>
            <line class="cls-4" x1="165.56" y1="125.25" x2="167.81" y2="123.15"/>
            <line class="cls-4" x1="170.07" y1="121.04" x2="173.08" y2="121.04"/>
            <line class="cls-4" x1="176.1" y1="121.04" x2="179.11" y2="121.04"/>
            <line class="cls-4" x1="182.12" y1="121.04" x2="185.13" y2="121.04"/>
            <line class="cls-4" x1="188.14" y1="121.04" x2="191.15" y2="121.04"/>
            <line class="cls-4" x1="194.16" y1="121.04" x2="197.17" y2="121.04"/>
            <line class="cls-4" x1="198.68" y1="118.94" x2="200.18" y2="116.13"/>
            <line class="cls-4" x1="201.69" y1="114.03" x2="202.44" y2="111.22"/>
            <line class="cls-4" x1="203.94" y1="109.11" x2="205.45" y2="106.3"/>
            <line class="cls-4" x1="206.95" y1="104.2" x2="208.46" y2="101.39"/>
            <polyline class="cls-4" points="209.96 99.29 210.71 97.88 211.47 98.58"/>
            <line class="cls-4" x1="212.97" y1="101.39" x2="214.48" y2="103.49"/>
            <line class="cls-4" x1="215.99" y1="106.3" x2="217.49" y2="108.41"/>
            <line class="cls-4" x1="218.24" y1="111.22" x2="219.75" y2="113.32"/>
            <line class="cls-4" x1="221.25" y1="116.13" x2="222.76" y2="118.23"/>
            <line class="cls-4" x1="224.26" y1="121.04" x2="226.52" y2="123.15"/>
            <line class="cls-4" x1="228.78" y1="124.55" x2="231.03" y2="126.66"/>
            <line class="cls-4" x1="233.29" y1="128.76" x2="235.55" y2="130.16"/>
            <line class="cls-4" x1="237.81" y1="132.28" x2="240.07" y2="134.38"/>
            <line class="cls-4" x1="242.33" y1="135.79" x2="244.58" y2="137.89"/>
            <line class="cls-4" x1="246.84" y1="140" x2="248.35" y2="142.1"/>
            <polyline class="cls-4" points="250.6 143.51 251.35 144.21 253.62 145.61"/>
            <line class="cls-4" x1="255.87" y1="147.02" x2="258.13" y2="148.42"/>
            <line class="cls-4" x1="261.14" y1="149.83" x2="263.4" y2="151.23"/>
            <line class="cls-4" x1="266.41" y1="152.63" x2="268.67" y2="154.74"/>
            <line class="cls-4" x1="270.92" y1="156.15" x2="273.94" y2="157.55"/>
            <line class="cls-4" x1="276.2" y1="158.95" x2="278.45" y2="160.35"/>
            <line class="cls-4" x1="281.46" y1="161.76" x2="283.72" y2="163.16"/>
            <line class="cls-4" x1="285.98" y1="165.27" x2="288.99" y2="166.67"/>
            <line class="cls-4" x1="291.24" y1="168.08" x2="294.26" y2="169.48"/>
            <line class="cls-4" x1="296.52" y1="170.89" x2="298.77" y2="172.29"/>
            <line class="cls-4" x1="301.78" y1="174.4" x2="304.04" y2="175.8"/>
            <line class="cls-4" x1="306.3" y1="177.21" x2="307.81" y2="180.02"/>
            <line class="cls-4" x1="309.31" y1="182.12" x2="310.81" y2="184.23"/>
            <line class="cls-4" x1="312.32" y1="187.04" x2="313.83" y2="189.14"/>
            <line class="cls-4" x1="315.33" y1="191.95" x2="316.84" y2="194.05"/>
            <line class="cls-4" x1="318.34" y1="196.86" x2="319.85" y2="198.97"/>
            <line class="cls-4" x1="321.35" y1="201.78" x2="322.85" y2="203.88"/>
            <line class="cls-4" x1="324.36" y1="206.69" x2="325.86" y2="208.79"/>
            <line class="cls-4" x1="327.37" y1="211.6" x2="328.87" y2="213.71"/>
            <line class="cls-4" x1="330.38" y1="216.51" x2="331.89" y2="218.62"/>
            <line class="cls-4" x1="333.39" y1="221.43" x2="334.89" y2="223.53"/>
            <line class="cls-4" x1="335.65" y1="226.34" x2="337.15" y2="228.45"/>
            <line class="cls-4" x1="338.65" y1="231.25" x2="340.16" y2="234.06"/>
            <line class="cls-4" x1="340.91" y1="236.17" x2="342.42" y2="238.97"/>
            <line class="cls-4" x1="343.92" y1="241.08" x2="344.67" y2="243.89"/>
            <line class="cls-4" x1="346.18" y1="246.7" x2="347.69" y2="248.8"/>
            <line class="cls-4" x1="349.19" y1="251.61" x2="349.94" y2="253.71"/>
            <line class="cls-4" x1="351.45" y1="256.52" x2="352.96" y2="259.33"/>
            <line class="cls-4" x1="353.71" y1="261.44" x2="355.22" y2="264.24"/>
            <line class="cls-4" x1="356.72" y1="267.05" x2="358.22" y2="269.16"/>
            <line class="cls-4" x1="358.97" y1="271.96" x2="360.48" y2="274.07"/>
            <line class="cls-4" x1="361.98" y1="276.88" x2="363.49" y2="278.98"/>
            <line class="cls-4" x1="364.99" y1="281.79" x2="366.5" y2="283.89"/>
            <line class="cls-4" x1="368.01" y1="286.71" x2="369.51" y2="288.81"/>
            <line class="cls-4" x1="370.26" y1="291.62" x2="371.77" y2="293.72"/>
            <line class="cls-4" x1="373.27" y1="296.53" x2="374.78" y2="298.64"/>
            <line class="cls-4" x1="376.28" y1="301.45" x2="377.79" y2="304.25"/>
            <line class="cls-4" x1="379.29" y1="306.36" x2="380.8" y2="309.16"/>
            <line class="cls-4" x1="382.3" y1="311.27" x2="383.81" y2="314.08"/>
            <line class="cls-4" x1="385.31" y1="316.18" x2="386.82" y2="318.99"/>
            <line class="cls-4" x1="388.32" y1="321.1" x2="389.83" y2="323.2"/>
            <line class="cls-4" x1="391.33" y1="326.01" x2="392.84" y2="328.12"/>
            <line class="cls-4" x1="395.09" y1="330.22" x2="396.6" y2="333.03"/>
            <line class="cls-4" x1="398.1" y1="335.13" x2="399.61" y2="337.24"/>
            <line class="cls-4" x1="401.86" y1="339.34" x2="403.37" y2="342.15"/>
            <line class="cls-4" x1="404.87" y1="344.25" x2="406.38" y2="346.36"/>
            <line class="cls-4" x1="408.63" y1="349.17" x2="410.14" y2="351.27"/>
            <line class="cls-4" x1="411.64" y1="353.38" x2="413.15" y2="356.19"/>
          </g>
          <text class="cls-11" transform="translate(368.04 174.37) scale(1.08 1)"><tspan x="0" y="0">P</tspan></text>
          <text class="cls-11" transform="translate(368.79 323.17) scale(1.08 1)"><tspan x="0" y="0">T</tspan></text>
          <text class="cls-12" transform="translate(9.81 427.05) scale(1.08 1)"><tspan x="0" y="0">30</tspan></text>
          <text class="cls-12" transform="translate(9.81 380.02) scale(1.08 1)"><tspan x="0" y="0">40</tspan></text>
          <text class="cls-12" transform="translate(9.81 335.1) scale(1.08 1)"><tspan x="0" y="0">50</tspan></text>
          <text class="cls-12" transform="translate(9.81 287.37) scale(1.08 1)"><tspan x="0" y="0">60</tspan></text>
          <text class="cls-12" transform="translate(9.81 241.04) scale(1.08 1)"><tspan x="0" y="0">70</tspan></text>
          <text class="cls-12" transform="translate(9.81 195.42) scale(1.08 1)"><tspan x="0" y="0">80</tspan></text>
          <text class="cls-12" transform="translate(9.81 147.69) scale(1.08 1)"><tspan x="0" y="0">90</tspan></text>
          <text class="cls-12" transform="translate(3.04 99.96) scale(1.08 1)"><tspan x="0" y="0">100</tspan></text>
          <text class="cls-12" transform="translate(3.04 54.34) scale(1.08 1)"><tspan x="0" y="0">110</tspan></text>
          <text class="cls-12" transform="translate(429.01 426.35) scale(1.08 1)"><tspan class="cls-16" x="0" y="0">3</tspan><tspan x="6.3" y="0">50</tspan></text>
          <text class="cls-12" transform="translate(429.01 381.43) scale(1.08 1)"><tspan class="cls-16" x="0" y="0">3</tspan><tspan x="6.3" y="0">70</tspan></text>
          <text class="cls-12" transform="translate(429.01 333) scale(1.08 1)"><tspan class="cls-16" x="0" y="0">3</tspan><tspan x="6.3" y="0">90</tspan></text>
          <text class="cls-12" transform="translate(429.01 288.78) scale(1.08 1)"><tspan x="0" y="0">410</tspan></text>
          <text class="cls-12" transform="translate(429.01 239.65) scale(1.08 1)"><tspan class="cls-16" x="0" y="0">4</tspan><tspan x="6.3" y="0">30</tspan></text>
          <text class="cls-12" transform="translate(429.01 194.72) scale(1.08 1)"><tspan class="cls-16" x="0" y="0">4</tspan><tspan x="6.3" y="0">50</tspan></text>
          <text class="cls-12" transform="translate(429.01 149.1) scale(1.08 1)"><tspan class="cls-16" x="0" y="0">4</tspan><tspan x="6.3" y="0">70</tspan></text>
          <text class="cls-12" transform="translate(429.01 55.74) scale(1.08 1)"><tspan x="0" y="0">510</tspan></text>
          <text class="cls-12" transform="translate(429.01 99.96) scale(1.08 1)"><tspan class="cls-16" x="0" y="0">4</tspan><tspan x="6.3" y="0">90</tspan></text>
          <text class="cls-8" transform="translate(365.04 465.65) scale(1.08 1)"><tspan x="0" y="0">V</tspan><tspan class="cls-26" x="11.65" y="0">1</tspan><tspan class="cls-20" x="19.65" y="0">156371</tspan></text>
          <text class="cls-9" transform="translate(1.52 463.55) scale(1.08 1)"><tspan x="0" y="0">L50H</tspan></text>
        </g>
      </g>
    </g>
  </g>
</svg>