<?xml version="1.0" encoding="UTF-8"?>
<svg id="Layer_2" data-name="Layer 2" xmlns="http://www.w3.org/2000/svg" width="460.61" height="477.4" viewBox="0 0 460.61 477.4">
  <defs>
    <style>
      .cls-1, .cls-2, .cls-3 {
        fill: none;
        stroke: #231f20;
        stroke-miterlimit: 10;
      }

      .cls-4, .cls-5 {
        font-family: ArialMT, Arial;
      }

      .cls-4, .cls-5, .cls-6, .cls-7, .cls-8 {
        fill: #231f20;
      }

      .cls-4, .cls-7 {
        font-size: 14.15px;
      }

      .cls-9 {
        letter-spacing: -.11em;
      }

      .cls-5 {
        font-size: 17.46px;
      }

      .cls-10 {
        letter-spacing: 0em;
      }

      .cls-6 {
        font-family: Arial-BoldMT, Arial;
        font-size: 23.28px;
        font-weight: 700;
      }

      .cls-11 {
        letter-spacing: -.06em;
      }

      .cls-12 {
        fill: #e6e7e8;
        stroke-width: 0px;
      }

      .cls-2 {
        stroke-width: 2px;
      }

      .cls-3 {
        stroke-width: .4px;
      }

      .cls-13 {
        letter-spacing: 1.94em;
      }

      .cls-14 {
        letter-spacing: 1.44em;
      }

      .cls-15 {
        letter-spacing: -.11em;
      }

      .cls-16 {
        letter-spacing: -.06em;
      }

      .cls-17 {
        letter-spacing: 1.69em;
      }

      .cls-18 {
        letter-spacing: -.21em;
      }

      .cls-7, .cls-8 {
        font-family: ArialUnicodeMS, 'Arial Unicode MS';
      }

      .cls-8 {
        font-size: 14.55px;
      }

      .cls-19 {
        letter-spacing: 1.54em;
      }

      .cls-20 {
        letter-spacing: 1.29em;
      }

      .cls-21 {
        letter-spacing: -.16em;
      }

      .cls-22 {
        letter-spacing: 1.89em;
      }

      .cls-23 {
        letter-spacing: -.1em;
      }

      .cls-24 {
        letter-spacing: -.21em;
      }

      .cls-25 {
        letter-spacing: 1.79em;
      }
    </style>
  </defs>
  <g id="Assets">
    <g id="graph_01" data-name="graph 01">
      <rect class="cls-12" x="144.62" y="51.95" width="165.15" height="376.2"/>
      <rect class="cls-3" x="144.62" y="52.02" width="165.15" height="376.19"/>
      <line class="cls-1" x1="28.94" y1="365.04" x2="424.7" y2="365.04"/>
      <line class="cls-1" x1="28.94" y1="302.58" x2="424.7" y2="302.58"/>
      <line class="cls-1" x1="28.94" y1="240.11" x2="424.7" y2="240.11"/>
      <line class="cls-1" x1="28.94" y1="176.95" x2="424.7" y2="176.95"/>
      <line class="cls-1" x1="28.94" y1="114.49" x2="424.7" y2="114.49"/>
      <line class="cls-1" x1="28.94" y1="52.02" x2="424.7" y2="52.02"/>
      <line class="cls-1" x1="89.06" y1="52.03" x2="89.06" y2="428.22"/>
      <line class="cls-1" x1="144.62" y1="52.03" x2="144.62" y2="428.22"/>
      <line class="cls-1" x1="199.41" y1="52.03" x2="199.41" y2="428.22"/>
      <line class="cls-1" x1="254.97" y1="52.03" x2="254.97" y2="428.22"/>
      <line class="cls-1" x1="309.77" y1="52.03" x2="309.77" y2="428.22"/>
      <line class="cls-1" x1="365.33" y1="52.03" x2="365.33" y2="428.22"/>
      <line class="cls-1" x1="420.89" y1="428.21" x2="420.89" y2="52.02"/>
      <line class="cls-1" x1="28.93" y1="428.21" x2="425.45" y2="428.21"/>
      <line class="cls-1" x1="34.26" y1="52.02" x2="34.26" y2="428.21"/>
      <text class="cls-4" transform="translate(434.39 442.34) scale(1.08 1)"><tspan x="0" y="0">rpm</tspan></text>
      <text class="cls-5" transform="translate(401.86 15.04) scale(1.08 1)"><tspan class="cls-9" x="0" y="0">T</tspan><tspan x="8.75" y="0">orque</tspan></text>
      <text class="cls-5" transform="translate(429.26 35.62) scale(1.08 1)"><tspan x="0" y="0">Nm</tspan></text>
      <text class="cls-5" transform="translate(0 15.74) scale(1.08 1)"><tspan x="0" y="0">Power</tspan></text>
      <text class="cls-5" transform="translate(.77 36.33) scale(1.08 1)"><tspan x="0" y="0">kW</tspan></text>
      <polyline class="cls-2" points="34.26 401.24 61.66 367.88 89.06 331.68 116.46 289.09 144.62 254.32 199.42 198.95 213.12 180.5 226.82 174.11 254.98 162.75 282.38 139.33 309.77 114.49 337.94 115.2 420.13 115.2"/>
      <g>
        <line class="cls-2" x1="34.26" y1="333.81" x2="35.02" y2="331.68"/>
        <line class="cls-2" x1="36.55" y1="328.84" x2="38.07" y2="326"/>
        <line class="cls-2" x1="39.59" y1="323.87" x2="40.35" y2="321.03"/>
        <line class="cls-2" x1="41.87" y1="318.91" x2="43.39" y2="316.06"/>
        <line class="cls-2" x1="44.92" y1="313.22" x2="45.68" y2="311.09"/>
        <line class="cls-2" x1="47.2" y1="308.26" x2="48.72" y2="306.13"/>
        <line class="cls-2" x1="50.24" y1="303.29" x2="51" y2="300.45"/>
        <line class="cls-2" x1="52.52" y1="298.32" x2="54.05" y2="295.48"/>
        <line class="cls-2" x1="54.81" y1="293.35" x2="56.33" y2="290.51"/>
        <line class="cls-2" x1="57.85" y1="287.67" x2="59.37" y2="285.54"/>
        <line class="cls-2" x1="60.13" y1="282.7" x2="61.65" y2="280.57"/>
        <line class="cls-2" x1="63.18" y1="277.73" x2="63.93" y2="274.89"/>
        <line class="cls-2" x1="65.46" y1="272.77" x2="66.98" y2="269.93"/>
        <line class="cls-2" x1="67.74" y1="267.08" x2="69.26" y2="264.24"/>
        <line class="cls-2" x1="70.02" y1="262.12" x2="71.54" y2="259.28"/>
        <line class="cls-2" x1="72.3" y1="256.44" x2="73.82" y2="254.31"/>
        <line class="cls-2" x1="75.35" y1="251.47" x2="76.1" y2="248.63"/>
        <line class="cls-2" x1="77.63" y1="246.5" x2="78.39" y2="243.66"/>
        <line class="cls-2" x1="79.91" y1="240.82" x2="80.67" y2="238.69"/>
        <line class="cls-2" x1="82.19" y1="235.85" x2="83.71" y2="233.01"/>
        <line class="cls-2" x1="84.47" y1="230.88" x2="85.99" y2="228.04"/>
        <line class="cls-2" x1="86.75" y1="225.2" x2="88.28" y2="223.07"/>
        <line class="cls-2" x1="89.03" y1="220.24" x2="90.56" y2="217.4"/>
        <line class="cls-2" x1="91.32" y1="214.56" x2="92.84" y2="212.42"/>
        <line class="cls-2" x1="93.6" y1="209.58" x2="94.36" y2="206.75"/>
        <line class="cls-2" x1="95.88" y1="203.91" x2="96.64" y2="201.78"/>
        <line class="cls-2" x1="97.4" y1="198.94" x2="98.92" y2="196.1"/>
        <line class="cls-2" x1="99.68" y1="193.26" x2="100.44" y2="191.13"/>
        <line class="cls-2" x1="101.96" y1="188.29" x2="102.72" y2="185.45"/>
        <line class="cls-2" x1="103.49" y1="182.61" x2="105.01" y2="180.48"/>
        <line class="cls-2" x1="105.77" y1="177.64" x2="106.53" y2="174.8"/>
        <line class="cls-2" x1="108.05" y1="171.96" x2="108.81" y2="169.12"/>
        <line class="cls-2" x1="109.57" y1="166.99" x2="111.09" y2="164.15"/>
        <line class="cls-2" x1="111.85" y1="161.31" x2="113.37" y2="158.47"/>
        <line class="cls-2" x1="114.13" y1="156.35" x2="114.89" y2="153.51"/>
        <polyline class="cls-2" points="116.41 150.67 116.41 149.25 117.17 148.54"/>
        <line class="cls-2" x1="119.46" y1="145.7" x2="120.98" y2="143.57"/>
        <line class="cls-2" x1="122.5" y1="141.44" x2="124.79" y2="139.31"/>
        <line class="cls-2" x1="126.31" y1="136.47" x2="128.59" y2="134.34"/>
        <line class="cls-2" x1="130.11" y1="132.21" x2="131.63" y2="130.08"/>
        <line class="cls-2" x1="133.92" y1="127.96" x2="135.44" y2="125.12"/>
        <line class="cls-2" x1="137.72" y1="122.99" x2="139.24" y2="120.86"/>
        <line class="cls-2" x1="140.76" y1="118.73" x2="143.04" y2="116.6"/>
        <line class="cls-2" x1="144.57" y1="114.47" x2="147.61" y2="114.47"/>
        <line class="cls-2" x1="150.66" y1="114.47" x2="153.7" y2="114.47"/>
        <line class="cls-2" x1="156.75" y1="114.47" x2="159.79" y2="114.47"/>
        <line class="cls-2" x1="162.84" y1="114.47" x2="165.88" y2="114.47"/>
        <line class="cls-2" x1="168.92" y1="114.47" x2="171.97" y2="114.47"/>
        <line class="cls-2" x1="175.01" y1="114.47" x2="178.06" y2="114.47"/>
        <line class="cls-2" x1="181.1" y1="114.47" x2="184.15" y2="114.47"/>
        <line class="cls-2" x1="187.19" y1="114.47" x2="190.24" y2="114.47"/>
        <line class="cls-2" x1="193.28" y1="114.47" x2="196.33" y2="114.47"/>
        <line class="cls-2" x1="199.37" y1="114.47" x2="201.65" y2="112.34"/>
        <line class="cls-2" x1="203.18" y1="110.21" x2="205.46" y2="108.08"/>
        <line class="cls-2" x1="206.98" y1="105.24" x2="209.26" y2="103.12"/>
        <line class="cls-2" x1="210.78" y1="100.98" x2="213.06" y2="98.86"/>
        <line class="cls-2" x1="214.59" y1="100.98" x2="216.11" y2="103.82"/>
        <line class="cls-2" x1="217.63" y1="105.95" x2="218.39" y2="108.79"/>
        <line class="cls-2" x1="219.91" y1="110.92" x2="221.43" y2="113.76"/>
        <line class="cls-2" x1="222.96" y1="116.6" x2="224.48" y2="118.73"/>
        <line class="cls-2" x1="225.24" y1="121.56" x2="226.76" y2="123.7"/>
        <line class="cls-2" x1="228.28" y1="126.53" x2="229.81" y2="128.66"/>
        <line class="cls-2" x1="231.33" y1="131.5" x2="232.85" y2="133.63"/>
        <line class="cls-2" x1="234.37" y1="136.47" x2="235.89" y2="138.6"/>
        <line class="cls-2" x1="237.42" y1="141.44" x2="238.94" y2="143.56"/>
        <line class="cls-2" x1="240.46" y1="146.4" x2="241.98" y2="148.53"/>
        <line class="cls-2" x1="243.51" y1="151.37" x2="244.27" y2="153.5"/>
        <line class="cls-2" x1="245.79" y1="156.34" x2="247.31" y2="158.47"/>
        <line class="cls-2" x1="248.83" y1="161.31" x2="250.35" y2="163.44"/>
        <line class="cls-2" x1="251.88" y1="166.28" x2="253.4" y2="168.41"/>
        <line class="cls-2" x1="254.92" y1="171.25" x2="257.97" y2="171.96"/>
        <line class="cls-2" x1="261.01" y1="172.66" x2="263.3" y2="174.08"/>
        <line class="cls-2" x1="266.34" y1="174.8" x2="269.38" y2="175.5"/>
        <line class="cls-2" x1="272.43" y1="176.92" x2="274.71" y2="177.63"/>
        <line class="cls-2" x1="277.75" y1="179.05" x2="280.8" y2="179.76"/>
        <line class="cls-2" x1="283.84" y1="180.47" x2="286.88" y2="180.47"/>
        <line class="cls-2" x1="289.93" y1="181.18" x2="292.97" y2="181.18"/>
        <line class="cls-2" x1="296.02" y1="181.89" x2="299.06" y2="181.89"/>
        <line class="cls-2" x1="302.1" y1="182.6" x2="305.15" y2="182.6"/>
        <polyline class="cls-2" points="308.19 183.31 309.71 183.31 310.47 184.03"/>
        <line class="cls-2" x1="311.24" y1="186.86" x2="312.76" y2="189.7"/>
        <line class="cls-2" x1="313.52" y1="192.54" x2="314.28" y2="194.67"/>
        <line class="cls-2" x1="315.8" y1="197.51" x2="316.56" y2="200.35"/>
        <line class="cls-2" x1="318.08" y1="203.19" x2="318.84" y2="205.32"/>
        <line class="cls-2" x1="320.37" y1="208.16" x2="321.13" y2="211"/>
        <line class="cls-2" x1="322.65" y1="213.13" x2="323.41" y2="215.97"/>
        <line class="cls-2" x1="324.94" y1="218.81" x2="325.7" y2="221.65"/>
        <line class="cls-2" x1="326.46" y1="223.78" x2="327.99" y2="226.62"/>
        <line class="cls-2" x1="328.74" y1="229.46" x2="330.27" y2="232.3"/>
        <line class="cls-2" x1="331.03" y1="234.42" x2="332.55" y2="237.26"/>
        <line class="cls-2" x1="333.31" y1="240.1" x2="334.83" y2="242.23"/>
        <line class="cls-2" x1="335.6" y1="245.07" x2="337.12" y2="247.91"/>
        <line class="cls-2" x1="337.88" y1="250.75" x2="339.41" y2="252.88"/>
        <line class="cls-2" x1="340.16" y1="255.72" x2="341.69" y2="258.56"/>
        <line class="cls-2" x1="342.45" y1="260.69" x2="343.97" y2="263.53"/>
        <line class="cls-2" x1="345.49" y1="266.37" x2="346.25" y2="268.5"/>
        <line class="cls-2" x1="347.78" y1="271.34" x2="348.54" y2="274.18"/>
        <line class="cls-2" x1="350.06" y1="276.3" x2="350.82" y2="279.15"/>
        <line class="cls-2" x1="352.34" y1="281.99" x2="353.87" y2="284.12"/>
        <line class="cls-2" x1="354.62" y1="286.95" x2="356.15" y2="289.79"/>
        <line class="cls-2" x1="356.91" y1="291.92" x2="358.43" y2="294.76"/>
        <line class="cls-2" x1="359.95" y1="297.6" x2="360.71" y2="299.73"/>
        <line class="cls-2" x1="362.24" y1="302.57" x2="363" y2="305.41"/>
        <polyline class="cls-2" points="364.52 307.54 365.28 308.96 366.04 310.38"/>
        <line class="cls-2" x1="366.8" y1="313.22" x2="368.33" y2="315.35"/>
        <line class="cls-2" x1="369.85" y1="318.19" x2="371.37" y2="320.32"/>
        <line class="cls-2" x1="372.13" y1="323.16" x2="373.66" y2="326"/>
        <line class="cls-2" x1="375.18" y1="328.12" x2="376.7" y2="330.97"/>
        <line class="cls-2" x1="377.46" y1="333.09" x2="378.98" y2="335.93"/>
        <line class="cls-2" x1="380.5" y1="338.77" x2="382.03" y2="340.9"/>
        <line class="cls-2" x1="382.79" y1="343.74" x2="384.31" y2="345.87"/>
        <line class="cls-2" x1="385.83" y1="348.71" x2="387.36" y2="351.55"/>
        <line class="cls-2" x1="388.12" y1="353.68" x2="389.64" y2="356.52"/>
        <line class="cls-2" x1="391.16" y1="358.65" x2="391.92" y2="361.49"/>
        <line class="cls-2" x1="393.44" y1="364.33" x2="394.96" y2="366.46"/>
        <line class="cls-2" x1="396.49" y1="369.3" x2="398.01" y2="371.42"/>
        <line class="cls-2" x1="399.53" y1="374.26" x2="401.05" y2="376.39"/>
        <line class="cls-2" x1="402.57" y1="379.23" x2="403.34" y2="381.36"/>
        <line class="cls-2" x1="404.86" y1="384.2" x2="406.38" y2="386.33"/>
        <line class="cls-2" x1="407.9" y1="389.17" x2="409.42" y2="391.3"/>
        <line class="cls-2" x1="410.94" y1="394.14" x2="412.47" y2="396.98"/>
        <line class="cls-2" x1="413.23" y1="399.11" x2="414.75" y2="401.95"/>
        <line class="cls-2" x1="416.27" y1="404.08" x2="417.8" y2="406.92"/>
        <line class="cls-2" x1="419.32" y1="409.04" x2="420.08" y2="410.46"/>
      </g>
      <text class="cls-7" transform="translate(21.32 441.63) scale(1.08 1)"><tspan class="cls-11" x="0" y="0">8</tspan><tspan class="cls-15" x="7.08" y="0">0</tspan><tspan class="cls-22" x="13.45" y="0">0</tspan><tspan x="48.1" y="0">1</tspan><tspan class="cls-21" x="55.97" y="0">0</tspan><tspan class="cls-11" x="61.55" y="0">0</tspan><tspan class="cls-17" x="68.63" y="0">0</tspan><tspan x="100.45" y="0">1</tspan><tspan class="cls-24" x="108.32" y="0">2</tspan><tspan class="cls-11" x="113.19" y="0">0</tspan><tspan class="cls-19" x="120.27" y="0">0</tspan><tspan x="149.97" y="0">1</tspan><tspan class="cls-21" x="157.84" y="0">4</tspan><tspan class="cls-11" x="163.42" y="0">0</tspan><tspan class="cls-13" x="170.49" y="0">0</tspan><tspan x="205.86" y="0">1</tspan><tspan class="cls-21" x="213.73" y="0">6</tspan><tspan class="cls-15" x="219.3" y="0">0</tspan><tspan class="cls-14" x="225.67" y="0">0</tspan><tspan class="cls-10" x="253.96" y="0">1</tspan><tspan class="cls-18" x="261.83" y="0">8</tspan><tspan class="cls-11" x="266.7" y="0">0</tspan><tspan class="cls-25" x="273.78" y="0">0</tspan><tspan class="cls-10" x="307.02" y="0">2</tspan><tspan class="cls-21" x="314.89" y="0">0</tspan><tspan class="cls-15" x="320.47" y="0">0</tspan><tspan class="cls-20" x="326.83" y="0">0</tspan><tspan class="cls-10" x="353" y="0">2</tspan><tspan class="cls-18" x="360.87" y="0">2 </tspan><tspan class="cls-16" x="366.67" y="0">0</tspan><tspan class="cls-10" x="373.75" y="0">0</tspan></text>
      <text class="cls-8" transform="translate(324.99 130.02) scale(1.08 1)"><tspan x="0" y="0">P</tspan></text>
      <text class="cls-8" transform="translate(324.99 264.18) scale(1.08 1)"><tspan x="0" y="0">T</tspan></text>
      <text class="cls-7" transform="translate(9.91 431.69) scale(1.08 1)"><tspan class="cls-15" x="0" y="0">2</tspan><tspan x="6.37" y="0">5</tspan></text>
      <text class="cls-7" transform="translate(9.91 369.23) scale(1.08 1)"><tspan class="cls-15" x="0" y="0">3</tspan><tspan x="6.37" y="0">5</tspan></text>
      <text class="cls-7" transform="translate(9.91 306.76) scale(1.08 1)"><tspan class="cls-15" x="0" y="0">4</tspan><tspan x="6.37" y="0">5</tspan></text>
      <text class="cls-7" transform="translate(9.91 243.59) scale(1.08 1)"><tspan class="cls-15" x="0" y="0">5</tspan><tspan x="6.37" y="0">5</tspan></text>
      <text class="cls-7" transform="translate(9.91 181.13) scale(1.08 1)"><tspan class="cls-15" x="0" y="0">6</tspan><tspan x="6.37" y="0">5</tspan></text>
      <text class="cls-7" transform="translate(9.91 118.66) scale(1.08 1)"><tspan class="cls-15" x="0" y="0">7</tspan><tspan x="6.37" y="0">5</tspan></text>
      <text class="cls-7" transform="translate(9.91 56.2) scale(1.08 1)"><tspan x="0" y="0">85</tspan></text>
      <text class="cls-7" transform="translate(433.82 430.99) scale(1.08 1)"><tspan class="cls-15" x="0" y="0">3</tspan><tspan x="6.37" y="0">20</tspan></text>
      <text class="cls-7" transform="translate(433.82 369.94) scale(1.08 1)"><tspan class="cls-15" x="0" y="0">3</tspan><tspan x="6.37" y="0">40</tspan></text>
      <text class="cls-7" transform="translate(433.82 306.76) scale(1.08 1)"><tspan class="cls-15" x="0" y="0">3</tspan><tspan x="6.37" y="0">60</tspan></text>
      <text class="cls-7" transform="translate(433.82 244.3) scale(1.08 1)"><tspan class="cls-15" x="0" y="0">3</tspan><tspan x="6.37" y="0">80</tspan></text>
      <text class="cls-7" transform="translate(433.82 181.84) scale(1.08 1)"><tspan class="cls-15" x="0" y="0">4</tspan><tspan x="6.37" y="0">00</tspan></text>
      <text class="cls-7" transform="translate(433.82 118.66) scale(1.08 1)"><tspan class="cls-15" x="0" y="0">4</tspan><tspan x="6.37" y="0">20</tspan></text>
      <text class="cls-7" transform="translate(433.82 56.2) scale(1.08 1)"><tspan class="cls-15" x="0" y="0">4</tspan><tspan x="6.37" y="0">40</tspan></text>
      <text class="cls-5" transform="translate(369.14 470.74) scale(1.08 1)"><tspan x="0" y="0">V</tspan><tspan class="cls-23" x="11.65" y="0">1</tspan><tspan x="19.65" y="0">156370</tspan></text>
      <text class="cls-6" transform="translate(1.53 468.61) scale(1.08 1)"><tspan x="0" y="0">L45H</tspan></text>
    </g>
  </g>
</svg>