<?xml version="1.0" encoding="UTF-8"?>
<svg id="Layer_2" data-name="Layer 2" xmlns="http://www.w3.org/2000/svg" width="377.35" height="483.98" viewBox="0 0 377.35 483.98">
  <defs>
    <style>
      .cls-1, .cls-2, .cls-3, .cls-4, .cls-5, .cls-6, .cls-7, .cls-8, .cls-9, .cls-10, .cls-11, .cls-12, .cls-13, .cls-14, .cls-15, .cls-16, .cls-17, .cls-18, .cls-19, .cls-20, .cls-21, .cls-22, .cls-23, .cls-24, .cls-25, .cls-26, .cls-27, .cls-28 {
        stroke: #000;
      }

      .cls-1, .cls-3, .cls-4, .cls-5, .cls-6, .cls-8, .cls-9, .cls-10, .cls-11, .cls-12, .cls-13, .cls-14, .cls-15, .cls-16, .cls-17, .cls-18, .cls-19, .cls-20, .cls-21, .cls-22, .cls-24, .cls-25, .cls-26, .cls-27, .cls-28 {
        stroke-miterlimit: 10;
      }

      .cls-1, .cls-14, .cls-19, .cls-21 {
        stroke-width: .45px;
      }

      .cls-1, .cls-18, .cls-21, .cls-25, .cls-29 {
        fill: #d8d7d5;
      }

      .cls-2, .cls-7, .cls-14, .cls-26, .cls-27 {
        fill: #8b9091;
      }

      .cls-2, .cls-7, .cls-23 {
        stroke-linecap: round;
        stroke-linejoin: round;
      }

      .cls-2, .cls-8, .cls-18, .cls-25 {
        stroke-width: .89px;
      }

      .cls-3 {
        stroke-width: .38px;
      }

      .cls-3, .cls-4, .cls-5, .cls-6, .cls-8, .cls-9, .cls-10, .cls-11, .cls-12, .cls-13, .cls-15, .cls-16, .cls-17, .cls-19, .cls-20, .cls-22, .cls-23, .cls-24, .cls-28 {
        fill: none;
      }

      .cls-4 {
        stroke-dasharray: 0 0 17.84 3.57;
      }

      .cls-4, .cls-17, .cls-20, .cls-22 {
        stroke-width: 2.23px;
      }

      .cls-5 {
        stroke-width: .42px;
      }

      .cls-6 {
        stroke-width: .65px;
      }

      .cls-7, .cls-23 {
        stroke-width: .45px;
      }

      .cls-30, .cls-29 {
        stroke-width: 0px;
      }

      .cls-9 {
        stroke-width: .32px;
      }

      .cls-10 {
        stroke-width: 17.85px;
      }

      .cls-11 {
        stroke-width: .44px;
      }

      .cls-12, .cls-26 {
        stroke-width: .58px;
      }

      .cls-13 {
        stroke-width: .5px;
      }

      .cls-15 {
        stroke-width: .18px;
      }

      .cls-16, .cls-27 {
        stroke-width: .91px;
      }

      .cls-20 {
        stroke-dasharray: 0 0 17.85 3.57;
      }

      .cls-21, .cls-25 {
        opacity: .64;
      }

      .cls-31 {
        font-family: ArialMT, Arial;
        font-size: 21.33px;
      }

      .cls-22 {
        stroke-dasharray: 0 0 18.26 3.65;
      }

      .cls-24 {
        stroke-width: .41px;
      }

      .cls-28 {
        stroke-width: .35px;
      }
    </style>
  </defs>
  <g id="Assets">
    <g id="Version_1B" data-name="Version 1B">
      <g>
        <path class="cls-18" d="M108.03,314.93l-49.9,107.66s22.64,46.03,79.52,54.46c59.42-1.44,152.89-26.72,148.6-36.48-5.5-12.5-52.25-107.56-64.39-137.01-1.93-4.69-.82-20.43-.82-20.43,0,0-.12,15.45-4.11,20.43-8.22,10.26-18.62,13.77-30.96,19.57-15.37,7.23-34.47,12.37-41.71,11.3-14.28-2.11-36.23-19.5-36.23-19.5Z"/>
        <line class="cls-18" x1="212.89" y1="307.7" x2="280.07" y2="446.99"/>
        <line class="cls-16" x1="139.56" y1="333.31" x2="125.64" y2="474.61"/>
        <line class="cls-16" x1="153.87" y1="333.78" x2="139.4" y2="477"/>
        <path class="cls-27" d="M97.26,338.18s29.61,28.26,47.35,30.32c34.65,4.01,98.27-18.75,98.27-18.75l-4.42-9.17s-59.26,19.75-92.75,18.31c-17.09-.73-44.43-29.36-44.43-29.36l-4.01,8.65Z"/>
        <path class="cls-27" d="M266.92,399.73s-95.44,31.92-130.09,27.91c-17.74-2.05-62.46-40.08-62.46-40.08l5.3-11.43s36.23,38.66,59.18,42.12c34.49,5.19,124.53-25.88,124.53-25.88l3.54,7.37Z"/>
        <path class="cls-18" d="M116.94,274.01c-10.05,4.92-16.46,17.18-14.32,28.62,2.6,14.82,18.38,22.41,31.46,26.45,25.22,5.64,50.86-9.16,71.76-21.42,6.77-3.71,12.48-8.58,14-16.7,2.24-10.2-.14-21.28-8.93-26.84-10.82-6.61-24.53-12.54-37.03-8.18-15.58,4.91-40.63,11.15-56.64,17.91l-.3.16Z"/>
        <path class="cls-18" d="M126.5,278.33c13.6,1.62,48.41,3.14,56.25-22.18-1.17-12.47-56.37-113.43-53.08-139.32,3.29-25.89.82-38.84-1.23-43.97-2.47-6.16-26.43-39.45-26.43-39.45,0,0,.6-6.83-1.24-9.45-4.5-6.4-19.91-16.17-26.98-19.52C62.16-1.06,53.09-3.24,22,13.88,14.9,17.79,2.83,23.61,1.24,39.15-.43,55.51-.33,88.47,10.35,106.96c10.69,18.49,14.23,23.5,18.63,27.95,13.19,13.31,41.13,32.88,41.13,32.88l48.71,104.94c1.43,3.07,4.33,5.21,7.69,5.61Z"/>
        <path class="cls-7" d="M60.36,61.85l44.24-19.73s25.72,32.75,24.93,47.59c-.86,16.03-3.5,31.65-11.51,46.58-5.3,9.87,5.98,31.45,5.98,31.45l46.45,104.23,28.13,44.92-10.3,5.14-27.75-45.67-46.44-103.63s-5.31-20.56-16.34-22.47c-16.69-2.88-48.22-7.64-62.37-16.16-14.15-4.52-28.67-44.35-28.67-44.35l53.65-27.88Z"/>
        <g>
          <circle class="cls-6" cx="29.29" cy="39.53" r="16.69"/>
          <circle class="cls-12" cx="29.29" cy="39.53" r="14.73"/>
          <circle class="cls-13" cx="29.29" cy="39.53" r="12.76"/>
          <circle class="cls-1" cx="29.29" cy="39.53" r="11.4"/>
        </g>
        <g>
          <circle class="cls-6" cx="61.89" cy="24.81" r="16.69"/>
          <circle class="cls-12" cx="61.89" cy="24.81" r="14.73"/>
          <circle class="cls-13" cx="61.89" cy="24.81" r="12.76"/>
          <circle class="cls-1" cx="61.89" cy="24.81" r="11.4"/>
        </g>
        <g>
          <circle class="cls-26" cx="95.27" cy="127.89" r="14.73"/>
          <circle class="cls-13" cx="95.27" cy="127.89" r="12.76"/>
          <circle class="cls-1" cx="95.27" cy="127.89" r="11.4"/>
        </g>
        <g>
          <path class="cls-19" d="M80.32,106.79c-2.65,4.21-11.46,6.96-16.73,10.04-6.13,2.29-13.46,9.44-18.56,3.74-5.41-7.13-13.23-20.52-18.72-28.89-1.22-2.14-2.95-4.49-2.69-6.86,1.76-4.69,11.03-6.81,16.25-9.77,6.21-2.23,11.68-7.07,17.77-5.74,1.67.76,2.74,2.18,3.93,3.82,4.11,6.22,12.39,19.77,16.7,26.76,1.12,2.06,2.71,4.33,2.15,6.59l-.11.3Z"/>
          <path class="cls-5" d="M78.37,106.04c-2.47,3.92-10.67,6.48-15.57,9.35-5.71,2.13-12.53,8.79-17.28,3.48-5.04-6.64-12.31-19.1-17.43-26.9-1.14-1.99-2.74-4.18-2.51-6.39,1.63-4.37,10.27-6.34,15.13-9.09,5.78-2.08,10.88-6.58,16.54-5.35,1.55.71,2.56,2.03,3.65,3.56,3.83,5.79,11.53,18.41,15.55,24.92,1.05,1.92,2.52,4.03,2.01,6.14l-.1.28Z"/>
          <path class="cls-3" d="M76.42,105.29c-2.28,3.63-9.88,6-14.42,8.66-5.29,1.97-11.6,8.14-16,3.23-4.67-6.15-11.4-17.69-16.14-24.91-1.05-1.85-2.54-3.87-2.32-5.91,1.51-4.04,9.5-5.87,14.01-8.42,5.35-1.93,10.07-6.09,15.32-4.95,1.44.66,2.37,1.88,3.38,3.29,3.54,5.36,10.68,17.04,14.4,23.07.97,1.78,2.34,3.73,1.86,5.68l-.09.26Z"/>
          <path class="cls-28" d="M74.48,104.54c-2.1,3.34-9.09,5.52-13.27,7.97-4.86,1.81-10.68,7.49-14.72,2.97-4.29-5.65-10.49-16.27-14.85-22.91-.97-1.7-2.34-3.56-2.14-5.44,1.39-3.72,8.74-5.4,12.89-7.75,4.92-1.77,9.26-5.6,14.09-4.55,1.32.61,2.18,1.73,3.11,3.03,3.26,4.93,9.83,15.68,13.25,21.23.89,1.63,2.15,3.43,1.71,5.23l-.08.24Z"/>
          <path class="cls-14" d="M72.53,103.79c-1.92,3.05-8.3,5.04-12.11,7.27-4.44,1.66-9.75,6.83-13.44,2.71-3.92-5.16-9.58-14.86-13.56-20.92-.88-1.55-2.13-3.25-1.95-4.97,1.27-3.4,7.98-4.93,11.77-7.07,4.5-1.62,8.46-5.12,12.87-4.16,1.21.55,1.99,1.58,2.84,2.77,2.98,4.5,8.97,14.32,12.09,19.38.81,1.49,1.96,3.13,1.56,4.77l-.08.22Z"/>
          <path class="cls-21" d="M68.63,100.93c-1.55,2.47-6.72,4.08-9.81,5.89-3.6,1.34-7.89,5.53-10.88,2.19-3.17-4.18-7.75-12.03-10.97-16.94-.72-1.26-1.73-2.63-1.58-4.02,1.03-2.75,6.46-3.99,9.53-5.73,3.64-1.31,6.85-4.14,10.42-3.37.98.45,1.61,1.28,2.3,2.24,2.41,3.65,7.26,11.59,9.79,15.69.66,1.21,1.59,2.54,1.26,3.86l-.06.18Z"/>
        </g>
        <g>
          <path class="cls-19" d="M121.73,88.21c-2.65,4.21-11.46,6.96-16.73,10.04-6.13,2.29-13.46,9.44-18.56,3.74-5.41-7.13-13.23-20.52-18.72-28.89-1.22-2.14-2.95-4.49-2.69-6.86,1.76-4.69,11.03-6.81,16.25-9.77,6.21-2.23,11.68-7.07,17.77-5.74,1.67.76,2.74,2.18,3.93,3.82,4.11,6.22,12.39,19.77,16.7,26.76,1.12,2.06,2.71,4.33,2.15,6.59l-.11.3Z"/>
          <path class="cls-5" d="M119.78,87.46c-2.47,3.92-10.67,6.48-15.57,9.35-5.71,2.13-12.53,8.79-17.28,3.48-5.04-6.64-12.31-19.1-17.43-26.9-1.14-1.99-2.74-4.18-2.51-6.39,1.63-4.37,10.27-6.34,15.13-9.09,5.78-2.08,10.88-6.58,16.54-5.35,1.55.71,2.56,2.03,3.65,3.56,3.83,5.79,11.53,18.41,15.55,24.92,1.05,1.92,2.52,4.03,2.01,6.14l-.1.28Z"/>
          <path class="cls-14" d="M117.83,86.71c-2.28,3.63-9.88,6-14.42,8.66-5.29,1.97-11.6,8.14-16,3.23-4.67-6.15-11.4-17.69-16.14-24.91-1.05-1.85-2.54-3.87-2.32-5.91,1.51-4.04,9.5-5.87,14.01-8.42,5.35-1.93,10.07-6.09,15.32-4.95,1.44.66,2.37,1.88,3.38,3.29,3.54,5.36,10.68,17.04,14.4,23.07.97,1.78,2.34,3.73,1.86,5.68l-.09.26Z"/>
          <path class="cls-28" d="M115.88,85.96c-2.1,3.34-9.09,5.52-13.27,7.97-4.86,1.81-10.68,7.49-14.72,2.97-4.29-5.65-10.49-16.27-14.85-22.91-.97-1.7-2.34-3.56-2.14-5.44,1.39-3.72,8.74-5.4,12.89-7.75,4.92-1.77,9.26-5.6,14.09-4.55,1.32.61,2.18,1.73,3.11,3.03,3.26,4.93,9.83,15.68,13.25,21.23.89,1.63,2.15,3.43,1.71,5.23l-.08.24Z"/>
          <path class="cls-9" d="M113.94,85.21c-1.92,3.05-8.3,5.04-12.11,7.27-4.44,1.66-9.75,6.83-13.44,2.71-3.92-5.16-9.58-14.86-13.56-20.92-.88-1.55-2.13-3.25-1.95-4.97,1.27-3.4,7.98-4.93,11.77-7.07,4.5-1.62,8.46-5.12,12.87-4.16,1.21.55,1.99,1.58,2.84,2.77,2.98,4.5,8.97,14.32,12.09,19.38.81,1.49,1.96,3.13,1.56,4.77l-.08.22Z"/>
          <path class="cls-25" d="M110.04,82.35c-1.55,2.47-6.72,4.08-9.81,5.89-3.6,1.34-7.89,5.53-10.88,2.19-3.17-4.18-7.75-12.03-10.97-16.94-.72-1.26-1.73-2.63-1.58-4.02,1.03-2.75,6.46-3.99,9.53-5.73,3.64-1.31,6.85-4.14,10.42-3.37.98.45,1.61,1.28,2.3,2.24,2.41,3.65,7.26,11.59,9.79,15.69.66,1.21,1.59,2.54,1.26,3.86l-.06.18Z"/>
        </g>
        <polygon class="cls-24" points="81.18 76.89 83.55 68.54 93.61 63.81 101.31 66.36 97.63 70.35 86.92 76.23 81.18 76.89"/>
        <polygon class="cls-24" points="106.67 74.58 99.13 71.46 89.49 77.12 86.61 85.25 91.78 84.57 102.66 79.06 106.67 74.58"/>
        <polygon class="cls-24" points="1.46 71.13 101.31 24.84 102.09 31.83 1.85 77.54 1.46 71.13"/>
        <path class="cls-11" d="M19.19,85.16c-.01,1.67,2.2,4.8,5.55,10.06,3.74,5.8,8.79,13.63,12.88,19.97,2.79,4.29,4.96,7.79,6.51,9.86,1.13,1.48,2,2.28,2.99,2.48,1.45.26,3.06-.58,4.58-1.28,13.37-6.6,59.88-29.47,71.24-35.18,3.84-2.06,3.28-3.26.09-8.74-5.64-9.25-13.03-21.46-18.96-31.07-3.16-5.11-4.27-6.68-10.36-3.34-18.11,8.67-37.66,18.04-55.72,26.69-7.58,3.67-13.7,6.49-16.69,8.07-.98.57-2.04,1.18-2.12,2.36v.13Z"/>
        <path class="cls-23" d="M6.71,68.7s-2.04-24.08,0-30.23c3.64-10.96,11.45-16.91,16.89-20.82,7.28-5.25,25.48-12.88,33.74-13.29,11.74-.58,35.56,12.51,40.94,21.89"/>
        <line class="cls-23" x1="53.66" y1="46.93" x2="55.15" y2="53.24"/>
        <line class="cls-23" x1="55.15" y1="53.24" x2="57.07" y2="63.56"/>
        <path class="cls-23" d="M38.43,129.98c-3.7-.82-29.49-41.41-29.49-41.41"/>
        <path class="cls-23" d="M10.26,67.05s-2.63-18.82-.46-24.93c6.18-17.4,10.49-16.78,15.92-20.7,7.28-5.25,25.48-12.88,33.74-13.29,11.74-.58,29.38,10.61,34.76,19.99l8.42,14.86s20.41,29.23,22.99,40.69c.75,3.34,0,13.07,0,13.07,0,0-5.65,31.14-17.6,45.87-.32.39-.77.71-1.36.96-10.92,4.73-65.98-13.6-65.98-13.6l-26.13-44.33-4.3-18.6Z"/>
        <polyline class="cls-23" points="108.03 145.6 165.03 274.75 193.64 318.75"/>
        <path class="cls-23" d="M70.11,167.79s53.04,18.09,65.55-22.19"/>
        <path class="cls-23" d="M117.75,273.44s-4.08,11.56-4.11,15.59c-.07,10.64,17.88,17.1,40.33,13.56,35.42-5.58,41.87-20.96,41.87-20.96,0,0,7.22-13.38,0-19.73-6.65-5.84-13.08-5.75-13.08-5.75"/>
        <path class="cls-23" d="M111.2,277.52c-2.25,7.04-5.59,16.05.49,21.87,13.88,12.07,45.59,10.64,63.65,3.42,7.37-2.74,14.8-6.31,21.16-10.89,3.98-3.06,5.13-3.89,6.67-8.19,3.98-11.56-1.13-22.41-11.74-27.81"/>
        <path class="cls-23" d="M120.43,275.16s-2.47,6.78-3.31,8.42c-2.24,4.37-14.47,11.06-14.47,11.06"/>
        <path class="cls-23" d="M122.58,277.52c2.29,7.38-.51,15.14-3.29,17.26-13.48,10.32-8.1,13.36-10.73,19.87"/>
        <path class="cls-23" d="M135.15,279.11c1.15,4.71,7.73,14.85,3.77,20.19-8.63,11.64-6.4,20.6-6.4,20.6"/>
        <path class="cls-23" d="M142.62,279.06s10.34,16.98,8.22,24.5c-2.13,7.52-1.58,23.87,1.44,25.97"/>
        <path class="cls-23" d="M179.28,263.51c0,5.12,13.37,15.81,20.15,16.88,11,1.74,20.82,10.24,19.61,13.6"/>
        <path class="cls-23" d="M181.63,259.2s-.04,10.24,10.65,12.15c10.69,1.92,26.9,5.83,28.37,9.11"/>
        <path class="cls-23" d="M182.41,257.19s-.19,6.57,11.49,3.75c6.52-1.57,11.5.05,11.5.05"/>
        <path class="cls-23" d="M127.55,326.29c1.19,2.88,12.27,3.24,12.27,3.24,0,0-.42-9-6.6-9.58-4.46-.42-6.49,4.37-5.68,6.34Z"/>
        <path class="cls-19" d="M88.87,148.74s17.79,2.71,28.3-10.28"/>
        <g>
          <rect class="cls-29" x="188.76" y="34.68" width="174.87" height="214.12"/>
          <g>
            <polyline class="cls-17" points="363.63 239.88 363.63 248.8 354.7 248.8"/>
            <line class="cls-22" x1="351.05" y1="248.8" x2="199.51" y2="248.8"/>
            <polyline class="cls-17" points="197.68 248.8 188.76 248.8 188.76 239.88"/>
            <line class="cls-4" x1="188.76" y1="236.31" x2="188.76" y2="45.39"/>
            <polyline class="cls-17" points="188.76 43.61 188.76 34.68 197.68 34.68"/>
            <line class="cls-22" x1="201.34" y1="34.68" x2="352.87" y2="34.68"/>
            <polyline class="cls-17" points="354.7 34.68 363.63 34.68 363.63 43.61"/>
            <line class="cls-4" x1="363.63" y1="47.18" x2="363.63" y2="238.09"/>
          </g>
        </g>
        <line class="cls-20" x1="135.65" y1="107.31" x2="188.44" y2="107.31"/>
        <path class="cls-8" d="M201.13,228.2l22.24-56.37s-9.91-39.95-6.36-51.39c4.8-15.48,23.49-35.67,23.49-35.67,0,0-2.09-11.74,0-14.8,10.41-15.21,34.04-22.51,42.88-23.83,27.12-4.03,67.4,11.09,64.52,39.72-4.83,48.02-10.5,61.04-20.27,78.91-4.86,8.88-17.63,25.19-25.75,31.23-3.46,2.58-16.29,9.15-16.29,9.15l-19.26,37.22"/>
        <path class="cls-2" d="M340.95,131.53s10.65-42.07-31.96-53.34c-44.19-11.68-91.55,63.37-91.55,63.37,0,0,2.78,21.15,6.62,30.19,3.84,9.04,24.66,32.19,24.66,39.04v6.85s2.69-6.99,4.85-8.85c1.67-1.44,7.6-.98,8.14,3.13s-3.68,8.47-3.68,8.47c0,0,20.1-12.7,27.55-15.23,26.56-9.01,47.12-43.41,55.37-73.63Z"/>
        <path class="cls-1" d="M301.41,187.63c-19.27,19.24-35.65,27.95-49.6,17.09-13.95-10.87-18.35-27.81-3.57-46.79,14.78-18.98,50.67-29.11,64.62-18.24,13.95,10.87,5.46,31.07-11.45,47.95Z"/>
        <g>
          <path class="cls-19" d="M283.59,200.76c-.64,4.72-8.85,7.82-17.47,8.21-10.89.49-18.29-5.66-18.29-10.42s9.66-10.42,18.29-10.42,18.29,6.54,17.47,12.63Z"/>
          <path class="cls-14" d="M281.74,201.71c0,4.01-6.99,7.26-15.62,7.26s-15.62-3.25-15.62-7.26,6.99-10.29,15.62-10.29,15.62,6.28,15.62,10.29Z"/>
        </g>
        <g>
          <path class="cls-19" d="M297.46,176.85c-.64,4.72-8.85,7.82-17.47,8.21-10.89.49-18.29-5.66-18.29-10.42s9.66-10.42,18.29-10.42,18.29,6.54,17.47,12.63Z"/>
          <path class="cls-14" d="M295.61,177.8c0,4.01-6.99,7.26-15.62,7.26s-15.62-3.25-15.62-7.26,6.99-10.29,15.62-10.29,15.62,6.28,15.62,10.29Z"/>
        </g>
        <g>
          <path class="cls-19" d="M310.34,155.98c-.64,4.72-8.85,7.82-17.47,8.21-10.89.49-18.29-5.66-18.29-10.42s9.66-10.42,18.29-10.42,18.29,6.54,17.47,12.63Z"/>
          <path class="cls-14" d="M308.49,156.93c0,4.01-6.99,7.26-15.62,7.26s-15.62-3.25-15.62-7.26,6.99-10.29,15.62-10.29,15.62,6.28,15.62,10.29Z"/>
        </g>
        <path class="cls-1" d="M340.77,110.7c-1.99-2.66-11.49,1.6-11.43,6.11.14,10.32,12.92,8.75,12.92,8.75,0,0,.88-11.69-1.49-14.86Z"/>
        <path class="cls-15" d="M308.99,78.2s-7.12,35.34-5.07,38.22"/>
        <path class="cls-15" d="M223.37,139.78s13.56,10.24,13.56,15.63"/>
        <path class="cls-19" d="M298.27,191.41c-15.24,14.99-31.82,22.6-44.08,15.18-13.44-8.14-10.57-27.29,2.57-44.16,13.14-16.86,38.05-27.32,50.45-17.66,12.4,9.66,4.77,33.15-8.94,46.64Z"/>
        <g>
          <line class="cls-10" x1="357.76" y1="179.38" x2="305.82" y2="179.82"/>
          <polygon class="cls-30" points="310.11 164.66 284.04 180.01 310.37 194.92 310.11 164.66"/>
        </g>
        <text class="cls-31" transform="translate(280.07 477.05)"><tspan x="0" y="0">V1083803</tspan></text>
      </g>
    </g>
  </g>
</svg>