<?xml version="1.0" encoding="UTF-8"?>
<svg id="Layer_2" data-name="Layer 2" xmlns="http://www.w3.org/2000/svg" width="371.87" height="494.75" viewBox="0 0 371.87 494.75">
  <defs>
    <style>
      .cls-1 {
        stroke-width: 16.72px;
      }

      .cls-1, .cls-2, .cls-3, .cls-4, .cls-5, .cls-6, .cls-7, .cls-8, .cls-9, .cls-10, .cls-11, .cls-12, .cls-13, .cls-14, .cls-15 {
        stroke: #000;
      }

      .cls-1, .cls-2, .cls-3, .cls-4, .cls-5, .cls-7, .cls-9, .cls-10, .cls-12, .cls-14 {
        stroke-miterlimit: 10;
      }

      .cls-1, .cls-4, .cls-8, .cls-9, .cls-12, .cls-14 {
        fill: none;
      }

      .cls-16, .cls-17 {
        stroke-width: 0px;
      }

      .cls-16, .cls-3, .cls-6, .cls-7, .cls-10, .cls-13, .cls-15 {
        fill: #8b9091;
      }

      .cls-2, .cls-3, .cls-4 {
        stroke-width: .84px;
      }

      .cls-2, .cls-5, .cls-11 {
        fill: #d8d7d5;
      }

      .cls-18 {
        font-family: Arial-BoldMT, Arial;
        font-weight: 700;
      }

      .cls-18, .cls-19 {
        font-size: 21.33px;
      }

      .cls-5, .cls-6, .cls-7, .cls-8, .cls-14 {
        stroke-width: .42px;
      }

      .cls-6, .cls-8, .cls-9, .cls-11, .cls-13, .cls-15 {
        stroke-linecap: round;
      }

      .cls-6, .cls-8, .cls-11, .cls-13, .cls-15 {
        stroke-linejoin: round;
      }

      .cls-9, .cls-11, .cls-12, .cls-15 {
        stroke-width: 1.67px;
      }

      .cls-10 {
        stroke-width: .48px;
      }

      .cls-19 {
        font-family: ArialMT, Arial;
      }

      .cls-13 {
        stroke-width: 1.25px;
      }
    </style>
  </defs>
  <g id="Assets">
    <g id="Version_1A" data-name="Version 1A">
      <g>
        <path class="cls-11" d="M1.57,415.06c37.91,23.5,162.35,73.11,190.83,72.84,32.33-3.59,105.14-33.37,107.45-37.39.68-1.35-.2-13.74-.2-13.74l.91-10.26s.15-8.92-7.26-9.49c-4.21-.33-6.84-5.88-6.35-10.01.2-1.73,5.22-7.18,5.2-8.47-.19-10.78-5.97-15.01-5.97-15.01,0,0,2.84-11.41.19-15.2-1.12-1.6-5.2-4.43-5.2-4.43,0,0,3.01-14.68.1-17.58-2-2-12.42-2.94-12.42-2.94,0,0,2.97-10.46,1.15-12.77-5.52-6.99-12.2-8.61-21.36-9.04-6.06-.29-9.54,1.02-13.86.96-8.47-.12-18.28-5.24-18.28-5.24v-12.36l20.53-37.49,1.03-23.8s.86-28.4,8.47-48.3c1.25-3.27,7.3-11.44,7.95-15.14,10.52-59.01-48.75-51.57-49.52-13.09-.96,6,.37,18.57,6.03,25.66,5.75,6.81,4.13,19.64,5.52,29.76.7,5.13,4.62,13.6,4.62,13.6l-.51,29.51-23.09,40.6.52,13.02-6.93,1.8-10.52-13.6s1.15-35.79-17.83-39.64c-1.92-.38,14.11-15.78-2.82-20.53-31.71-1.85-27.01-54.66-17.32-103.02,12.88-12.44,40.15-52.13,34.25-80.95-.91-4.46-3.64-3.51-5.52-9.88C152.89-9.18,115.68,1.34,107.21,1.73c-8.3,4.4-21.44,17.86-23.09,29.64-.61,4.36,4.36,10.42,4.23,15.01-.13,4.9-7.05,16.21-8.34,21.94-.7,3.1-1.8,12.57-1.8,12.57,0,0-4.16,9.18-4.18,12.74-.11,15.87,8.17,26.64,8.17,26.64,0,0,1.15,104.69-.77,128.93-.35,4.41-13.09,11.93-13.09,11.93,0,0-11.32,9.26-10.2,17.21.29,2.06,4.43,7.03,4.43,7.03,0,0-10.26,12.96-8.47,17.7.68,1.79,5.77,5,5.77,5l-12.23,6.34s-9.02,10.31-9.32,15.98c-.1,1.83,2.69,6.8,2.69,6.8,0,0-6.01,3.53-8.3,6.02s-7.85,12.34-7.79,15.73c.02,1.43,2.24,3.91,2.24,3.91,0,0-9.08,5.28-11.16,7.95-6.8,8.72-15.04,32.31-15.04,32.31,0,0-.53,10.06.61,11.92Z"/>
        <path class="cls-4" d="M204.7,174.54s23.04,20.19,50.49,2.48c4.26-31.65-15.95-40.53-22.64-40.21-30.33,1.47-28.03,33.89-27.86,37.72Z"/>
        <path class="cls-7" d="M87.39,51.89l-6.06,13.73-2.35,14.6-2.85,8.48,58,3.59s6.01-6.32,10.43-14.93c3.86-7.51,6.8-22.29,6.13-22.64-.85-.46-63.31-2.82-63.31-2.82Z"/>
        <path class="cls-13" d="M204.7,174.54s2.33,14.41,6.3,18.21c6.07,5.81,27.58,10.52,34.51,2.57,6.13-6.06,9.68-15.02,9.68-19.75-25.25,18.02-50.49-1.03-50.49-1.03Z"/>
        <path class="cls-8" d="M212.77,194.81c.37,2.01,1.66,9.14,3.03,16.67.42,2.32-.06,5.43.35,7.69,1.39,7.65,3.48,13.42,3.48,13.42,0,0,9.02,5.36,20.02-.3,2.05-9.24,5.86-36.97,5.86-36.97,0,0-11.29,9.14-32.75-.51Z"/>
        <path class="cls-15" d="M220,233.5c2.1,6.95.64,31.1.64,31.1l-23.11,41.63h18.12l21.14-37.2,2.73-35.85s-15.69,4-19.52.32Z"/>
        <line class="cls-14" x1="85.9" y1="32.87" x2="143.34" y2="35.11"/>
        <ellipse class="cls-7" cx="105.86" cy="20.1" rx="13.55" ry="9.83" transform="translate(48.07 111.04) rotate(-68.31)"/>
        <ellipse class="cls-7" cx="127.57" cy="21.48" rx="13.55" ry="9.83" transform="translate(60.46 132.08) rotate(-68.31)"/>
        <path class="cls-14" d="M84.71,35.4s13.79-28.6,18.47-28.28c1.34.09,21.99-1.49,29.06,0,3.16.67,8.08,5.77,9.04,9.24,1.23,4.44,2.06,13.09,2.06,18.76,0,3.54,6.87,10.45,7.36,13.96,1.2,8.59-4,26.43-9.04,33.48-13.18,18.47-23.16,25.29-33.1,30.6-3.48,1.86-10.52,8.4-13.83,7.63-10.42-2.44-16.57-24.76-19.53-30.23-1.27-2.36,3.72-9.92,3.72-9.92,0,0,2.74-20.95,6.38-25.09,4.92-5.6-.6-20.13-.6-20.13Z"/>
        <polyline class="cls-14" points="85.9 37.74 109.91 40.41 146.25 40.8"/>
        <path class="cls-14" d="M146.25,10.77s5.07,21.34,3.5,27.13c0,0,9.94,6.8,4.23,24.25-9.25,28.27-13.15,32.84-20.74,40.41-6.09,6.07-30.45,18.86-30.45,18.86,0,0-12.47,10.94-10.68,22.87"/>
        <line class="cls-14" x1="87.39" y1="51.89" x2="150.7" y2="54.71"/>
        <line class="cls-14" x1="134.14" y1="92.28" x2="75.4" y2="88.65"/>
        <line class="cls-14" x1="86.33" y1="54.67" x2="150.56" y2="57.05"/>
        <line class="cls-14" x1="76.93" y1="84.8" x2="137.14" y2="88.6"/>
        <line class="cls-14" x1="81.42" y1="64.82" x2="101.83" y2="64.82"/>
        <line class="cls-14" x1="80.02" y1="68.31" x2="100.42" y2="68.31"/>
        <line class="cls-14" x1="110.05" y1="66" x2="129.91" y2="66"/>
        <line class="cls-14" x1="108.57" y1="69.85" x2="128.48" y2="69.85"/>
        <path class="cls-14" d="M111.32,55.6c-7.86,3.48-15.56,14.03-10.17,30.69"/>
        <path class="cls-14" d="M118.97,55.88s-16.7,9.35-9.9,30.85"/>
        <path class="cls-14" d="M141.66,56.72s-20.94,4.6-11.14,31.57"/>
        <path class="cls-14" d="M149.79,60.29c-9.03.27-18.46,6.14-14.61,28"/>
        <path class="cls-7" d="M106.99,110.66c-2.53,5.29-7.96,10.87-13.81,9.6-7.01-2.28-6.88-12.53-3.8-18.06,3.79-6.95,13.29-11.03,17.47-6.95,3.71,4,2.29,10.36.32,15.03l-.18.38Z"/>
        <path class="cls-5" d="M103.09,107.62c-1.44,3.32-4.41,6.24-7.86,6.86-7.75.68-5.02-10.68-.56-14.65,6.78-6.07,11.82-.07,8.59,7.41l-.16.38Z"/>
        <path class="cls-14" d="M92.52,119.92s-6.48,18.05-5.13,24.02c1.35,5.97,2.47,107.19,2.47,107.19,0,0-14.15,17.13-15.94,22.58-1.14,3.46-.02,9.66.19,11.71"/>
        <path class="cls-14" d="M62.57,285.38s32.3.31,41.43-.76c9.5-1.11,24.62-5.4,32.56-8.09,5.68-1.92,18.94-6.16,26.2-9.47"/>
        <path class="cls-14" d="M96.08,243.63s24.59-1.35,33.84-5.2"/>
        <path class="cls-14" d="M85.9,264.6s43.64-1.15,74.04-17.32"/>
        <path class="cls-14" d="M82.97,143.94s9.93.81,13.1,0c8.23-2.09,23.9-11.09,32.41-10.2,9.78,1.03,14.14,10.52,14.14,10.52"/>
        <path class="cls-14" d="M171.93,55.86s-3.52,27.33-8.78,40.67c-2.26,5.74-13.08,13.13-16.9,17.96-3.03,3.82-8.3,12.57-9.68,16.93"/>
        <line class="cls-14" x1="134.3" y1="107.06" x2="145.37" y2="115.66"/>
        <path class="cls-10" d="M118.54,279.21c-2.47-3.25-.15-8.87,3.2-8.82,2.54-.09,8.13-.16,7.37,4.75-1.14,4.41-7.54,6.68-10.36,4.31l-.21-.23Z"/>
        <path class="cls-14" d="M116.45,287.18c3.26,4.6,6.22,2.82,6.35,13.29.12,9.29-3.6,15.64-5.3,23.15"/>
        <path class="cls-7" d="M179.89,304.88s-42.35,24.11-65.24,24.12c-20.53,0-54.78-20.91-54.78-20.91l-12.23,6.34s40.33,27.4,62.1,25.7c14.47-1.13,75.24-26.57,74.51-27.11-4.11-3.01-4.36-8.15-4.36-8.15Z"/>
        <path class="cls-16" d="M143.14,363.9s-23.51,7.22-39.13,8.54c-36.82-2.96-71.29-29.2-71.29-29.2,0,0-9.58,14.48-6.71,17.4,8.27,8.42,50.72,29.64,70.69,30.47,14.5.61,34.32-3.57,33.59-4.1-2.75-2.02,8.13-12.5,12.85-18.67,2.33-3.05,0-4.43,0-4.43Z"/>
        <path class="cls-16" d="M126.32,414.5s-5.7,1.87-7.33,7.13c-1.16,3.72.98,12.62.98,12.62,0,0,14.53,13.91,39.91,15.09,32.14,1.5,109.61-24.27,127.32-43.23,0,0,6.48-7.12,3.5-15.07-.78-2.07-2.78-6.13-3.75-6.47-1.38-.48-14.96,9.89-15.49,10.21-24.25,14.31-94.76,32.82-121.33,29.84-10.3-1.15-23.81-10.11-23.81-10.11Z"/>
        <path class="cls-12" d="M41.02,337.21s47.52,24.38,63.63,24.63c13.37.21,50.85-12.23,50.85-12.23"/>
        <path class="cls-12" d="M27.16,362.87s49.78,28.25,69.53,28.22c12.1-.02,33.59-4.1,33.59-4.1"/>
        <path class="cls-14" d="M32.72,343.23s29.85,23.49,69.11,29.13c7.71,1.11,41.31-8.47,41.31-8.47"/>
        <path class="cls-14" d="M24.2,364.67s26.56,25.4,67.36,32.59"/>
        <path class="cls-14" d="M21.26,367.61s33.42,28.1,70.3,31.7c19.15,1.87,40.64-4.96,40.64-4.96"/>
        <line class="cls-14" x1="104.65" y1="344.65" x2="103.37" y2="357.84"/>
        <line class="cls-14" x1="92.52" y1="376.98" x2="92.52" y2="386.48"/>
        <line class="cls-14" x1="87.93" y1="405.72" x2="82.97" y2="438.05"/>
        <path class="cls-12" d="M.96,403.14c-3.69,4.06,154.54,73.77,180.54,73.53,32.67-2.69,101.36-25.37,118.3-37.72"/>
        <path class="cls-6" d="M161.1,456.27l40.41-7.31s1.8,16.49-14.37,18.09c-22.28,2.21-26.04-10.78-26.04-10.78Z"/>
        <line class="cls-14" x1="161.1" y1="467.6" x2="161.1" y2="456.27"/>
        <path class="cls-14" d="M196.76,472.18s4.49-4.58,4.75-7.83c.33-4.2.04-12.38.04-12.38"/>
        <polygon class="cls-6" points="223.06 443.76 241.34 448.95 267.32 438.95 253.08 431.44 223.06 443.76"/>
        <path class="cls-16" d="M144.61,368.53s-11.84,5.72-13.9,10.25c-1.61,3.55.36,13.86.36,13.86,0,0,12.06,11.08,37.46,10.5,28.95-.66,94.94-20.28,112.64-39.24,0,0,2.89-13.56,0-16.87-1.73-1.99-8.02-2.26-10.12-3.03-.58-.21-1.2-.13-1.74.18-24.25,14.31-80.96,35.7-106.69,35.37-8.08-.1-19.25-10.4-19.25-10.4"/>
        <polyline class="cls-14" points="223.06 443.76 223.06 458.58 239.2 463.95 267.32 454.45 267.32 438.95"/>
        <line class="cls-14" x1="201.66" y1="463" x2="223.06" y2="458.58"/>
        <line class="cls-12" x1="191.12" y1="321.05" x2="162.76" y2="349.53"/>
        <path class="cls-12" d="M268.86,343.37c-1.54,7.88-79.54,34-94.94,36.18-15.4,2.18-27.25-5.85-29.76-11.94-3.34-8.08,5.15-15.46,5.15-15.46l18.31-7.5"/>
        <path class="cls-12" d="M144.61,368.53s-11.84,5.72-13.9,10.25c-1.61,3.55.36,13.86.36,13.86,0,0,12.06,11.08,37.46,10.5,28.95-.66,95.83-20.28,113.54-39.24"/>
        <path class="cls-12" d="M132.89,394.03s-6.17,2.54-8.23,7.07c-1.61,3.55,1.28,13.09,1.28,13.09,0,0,9.6,10.74,35.01,10.76,25.8.02,97.39-15.38,125.23-41.42"/>
        <path class="cls-9" d="M126.52,414.19s-4.84.85-6.89,5.38c-1.61,3.55.35,14.68.35,14.68,0,0,15.8,12.62,41.12,14.7,30.75,2.54,92.63-19.89,125.85-41.95"/>
        <line class="cls-12" x1="124.39" y1="437.46" x2="117.99" y2="456.27"/>
        <line class="cls-14" x1="286.18" y1="413.42" x2="268.86" y2="424.94"/>
        <polyline class="cls-14" points="270.4 431.44 293.49 429.58 299.14 428.08"/>
        <polyline class="cls-14" points="270.4 436.51 294.26 436.51 297.73 434.2"/>
        <line class="cls-14" x1="165.97" y1="449.15" x2="165.97" y2="455.39"/>
        <line class="cls-14" x1="171.1" y1="449.15" x2="171.1" y2="454.46"/>
        <path class="cls-14" d="M146.59,355.21s5.91,4.84,16.18,7.66c23.43,6.44,98.63-28.31,97.12-29.51-4.21-3.34-13.34-9.75-26.43-10.78"/>
        <polyline class="cls-14" points="191.12 322.59 205.12 330.03 228.84 322.59"/>
        <line class="cls-14" x1="200.35" y1="322.59" x2="213.95" y2="322.59"/>
        <line class="cls-14" x1="203.24" y1="330.03" x2="185.99" y2="354.66"/>
        <line class="cls-14" x1="194.61" y1="349.53" x2="209.98" y2="345.42"/>
        <line class="cls-14" x1="219.6" y1="341.5" x2="243.97" y2="332.78"/>
        <path class="cls-14" d="M141.66,374.29s20.56,11.92,27.13,11.42c31.56-2.39,80.63-24.89,97.37-32.01,1.6-.68,1.15-6.22-.75-6.9"/>
        <path class="cls-14" d="M135.89,379.91s15.4,10.92,35.99,9c20.59-1.92,59.91-14.63,59.91-14.63"/>
        <path class="cls-14" d="M228.84,380.64s41.14-13.63,53.67-29.25"/>
        <path class="cls-14" d="M127.21,397.71s24.14,14.91,36.58,13.34c21.36-2.69,63.95-11.43,83.71-19.95,14.43-6.22,37.27-23.48,37.27-23.48"/>
        <path class="cls-14" d="M121.41,417.88c8.75,5.2,20.45,11.67,31.28,14.09,6.52,1.42,13.56.34,20.38-.69,57.78-8.33,73.45-14.48,116.73-43.02"/>
        <path class="cls-14" d="M74.37,438.61s21.3,7.14,48.04-2.64"/>
        <path class="cls-14" d="M181.33,366.26s71.11-14.87,89.22-33.93"/>
        <ellipse class="cls-3" cx="231.29" cy="144.94" rx="15.73" ry="7.56"/>
        <ellipse class="cls-2" cx="231.91" cy="145.03" rx="9.62" ry="3.42"/>
        <path class="cls-12" d="M239.52,233.18s1.53-16.96,7.02-37.85"/>
        <g>
          <line class="cls-1" x1="237.69" y1="72.09" x2="234.07" y2="116.17"/>
          <polygon class="cls-17" points="220.28 110.88 232.4 136.5 248.53 113.2 220.28 110.88"/>
        </g>
        <line class="cls-12" x1="230.2" y1="255.36" x2="271.38" y2="239.2"/>
        <text class="cls-18" transform="translate(274.59 243.63)"><tspan x="0" y="0">2</tspan></text>
        <text class="cls-19" transform="translate(274.59 487.83)"><tspan x="0" y="0">V1083802</tspan></text>
      </g>
    </g>
  </g>
</svg>